GeoramaCondensed-LightItalic.ufo
<glyph name="exclam" format="2">
  <advance width="149.36"/>
  <unicode hex="0021"/>
  <outline>
    <contour>
      <point x="49.98" y="263.0" type="line"/>
      <point x="94.54" y="263.0" type="line"/>
      <point x="173.56" y="740.0" type="line"/>
      <point x="123.4" y="740.0" type="line"/>
    </contour>
    <contour>
      <point x="5.0600000000000005" y="21.639999999999997" type="curve" smooth="yes"/>
      <point x="4.26" y="4.800000000000001"/>
      <point x="10.200000000000001" y="-2.0"/>
      <point x="29.84" y="-2.0" type="curve" smooth="yes"/>
      <point x="60.120000000000005" y="-2.0"/>
      <point x="66.08" y="16.62"/>
      <point x="68.48" y="48.44" type="curve" smooth="yes"/>
      <point x="69.28" y="66.0"/>
      <point x="61.900000000000006" y="72.08"/>
      <point x="43.0" y="72.08" type="curve" smooth="yes"/>
      <point x="14.42" y="72.08"/>
      <point x="7.459999999999999" y="53.72"/>
    </contour>
  </outline>
</glyph>
<glyph name="numbersign" format="2">
  <advance width="359.32"/>
  <unicode hex="0023"/>
  <outline>
    <contour>
      <point x="83.56" y="465.66" type="line"/>
      <point x="143.94" y="465.66" type="line"/>
      <point x="79.74000000000001" y="232.52" type="line"/>
      <point x="23.82" y="232.52" type="line"/>
      <point x="15.739999999999998" y="186.33999999999997" type="line"/>
      <point x="68.66000000000001" y="186.33999999999997" type="line"/>
      <point x="17.64" y="0.0" type="line"/>
      <point x="60.32" y="0.0" type="line"/>
      <point x="110.53999999999999" y="186.33999999999997" type="line"/>
      <point x="187.86" y="186.33999999999997" type="line"/>
      <point x="137.64" y="0.0" type="line"/>
      <point x="179.42" y="0.0" type="line"/>
      <point x="229.64000000000001" y="186.33999999999997" type="line"/>
      <point x="292.73999999999995" y="186.33999999999997" type="line"/>
      <point x="300.08" y="232.52" type="line"/>
      <point x="240.84000000000003" y="232.52" type="line"/>
      <point x="304.91999999999996" y="465.66" type="line"/>
      <point x="359.82" y="465.66" type="line"/>
      <point x="367.44" y="512.16" type="line"/>
      <point x="316.08" y="512.16" type="line"/>
      <point x="367.44" y="700.0" type="line"/>
      <point x="325.47999999999996" y="700.0" type="line"/>
      <point x="274.12" y="512.16" type="line"/>
      <point x="196.8" y="512.16" type="line"/>
      <point x="248.16" y="700.0" type="line"/>
      <point x="206.38" y="700.0" type="line"/>
      <point x="155.02" y="512.16" type="line"/>
      <point x="91.16" y="512.16" type="line"/>
    </contour>
    <contour>
      <point x="185.72" y="465.66" type="line"/>
      <point x="263.03999999999996" y="465.66" type="line"/>
      <point x="199.01999999999998" y="232.52" type="line"/>
      <point x="121.7" y="232.52" type="line"/>
    </contour>
  </outline>
</glyph>
<glyph name="dollar" format="2">
  <advance width="359.32"/>
  <unicode hex="0024"/>
  <outline>
    <contour>
      <point x="354.96000000000004" y="688.66" type="line"/>
      <point x="338.5" y="697.42"/>
      <point x="310.36" y="706.98"/>
      <point x="274.4" y="709.26" type="curve"/>
      <point x="289.5" y="804.64" type="line"/>
      <point x="245.10000000000002" y="804.64" type="line"/>
      <point x="228.82" y="706.16" type="line"/>
      <point x="131.92" y="694.9200000000001"/>
      <point x="84.74" y="601.2200000000001"/>
      <point x="84.74" y="519.42" type="curve" smooth="yes"/>
      <point x="84.74" y="366.16"/>
      <point x="244.3" y="299.24"/>
      <point x="244.3" y="176.86" type="curve" smooth="yes"/>
      <point x="244.3" y="104.38000000000001"/>
      <point x="194.22" y="39.64"/>
      <point x="119.82000000000001" y="39.64" type="curve" smooth="yes"/>
      <point x="80.58" y="39.64"/>
      <point x="41.480000000000004" y="48.260000000000005"/>
      <point x="14.08" y="62.0" type="curve"/>
      <point x="-5.979999999999998" y="15.7" type="line"/>
      <point x="15.879999999999999" y="4.52"/>
      <point x="54.06" y="-7.04"/>
      <point x="95.11999999999999" y="-8.9" type="curve"/>
      <point x="80.11999999999999" y="-105.0" type="line"/>
      <point x="124.5" y="-105.0" type="line"/>
      <point x="139.5" y="-7.54" type="line"/>
      <point x="242.9" y="3.2399999999999998"/>
      <point x="295.66" y="94.76"/>
      <point x="295.66" y="181.96" type="curve" smooth="yes"/>
      <point x="295.66" y="334.26000000000005"/>
      <point x="137.36" y="398.02"/>
      <point x="137.36" y="521.4599999999999" type="curve" smooth="yes"/>
      <point x="137.36" y="587.64"/>
      <point x="181.82" y="660.28"/>
      <point x="253.20000000000002" y="660.28" type="curve" smooth="yes"/>
      <point x="288.3" y="660.28"/>
      <point x="311.66" y="654.16"/>
      <point x="335.92" y="643.1400000000001" type="curve"/>
    </contour>
  </outline>
</glyph>
<glyph name="ampersand" format="2">
  <advance width="425.46000000000004"/>
  <unicode hex="0026"/>
  <outline>
    <contour>
      <point x="155.44" y="-10.0" type="curve" smooth="yes"/>
      <point x="273.68" y="-10.0"/>
      <point x="370.62" y="147.24"/>
      <point x="350.4" y="293.59999999999997" type="curve"/>
      <point x="308.16" y="294.0" type="line"/>
      <point x="330.8" y="175.54"/>
      <point x="247.02" y="36.68"/>
      <point x="162.3" y="36.68" type="curve" smooth="yes"/>
      <point x="98.24000000000001" y="36.68"/>
      <point x="65.44" y="78.86"/>
      <point x="65.44" y="150.74" type="curve" smooth="yes"/>
      <point x="65.44" y="286.44000000000005"/>
      <point x="154.48" y="387.16"/>
      <point x="265.3" y="387.16" type="curve" smooth="yes"/>
      <point x="277.42" y="387.16" type="line"/>
      <point x="285.44" y="425.65999999999997" type="line"/>
      <point x="275.24" y="426.46" type="line" smooth="yes"/>
      <point x="214.92" y="428.02"/>
      <point x="181.74" y="467.88"/>
      <point x="181.74" y="539.6200000000001" type="curve" smooth="yes"/>
      <point x="181.74" y="609.54"/>
      <point x="224.34" y="665.06"/>
      <point x="282.8" y="665.06" type="curve" smooth="yes"/>
      <point x="313.40000000000003" y="665.06"/>
      <point x="338.32" y="656.1400000000001"/>
      <point x="364.44" y="634.24" type="curve"/>
      <point x="387.94" y="673.88" type="line"/>
      <point x="358.26" y="697.1"/>
      <point x="322.2" y="710.0"/>
      <point x="281.16" y="710.0" type="curve" smooth="yes"/>
      <point x="192.21999999999997" y="710.0"/>
      <point x="133.48" y="635.08"/>
      <point x="133.48" y="543.06" type="curve" smooth="yes"/>
      <point x="133.48" y="477.52"/>
      <point x="160.64" y="431.34000000000003"/>
      <point x="206.42000000000002" y="410.6" type="curve"/>
      <point x="96.62" y="386.0"/>
      <point x="16.34" y="282.14"/>
      <point x="16.34" y="142.54" type="curve" smooth="yes"/>
      <point x="16.34" y="49.56"/>
      <point x="63.38" y="-10.0"/>
    </contour>
    <contour>
      <point x="236.4" y="254.2" type="line"/>
      <point x="240.5" y="278.37999999999994"/>
      <point x="254.35999999999999" y="290.86"/>
      <point x="276.7" y="290.86" type="curve" smooth="yes"/>
      <point x="311.48" y="290.86"/>
      <point x="332.84000000000003" y="277.76"/>
      <point x="372.76" y="277.76" type="curve" smooth="yes"/>
      <point x="412.1" y="277.76"/>
      <point x="437.92" y="307.05999999999995"/>
      <point x="440.26" y="344.48" type="curve"/>
      <point x="406.26000000000005" y="350.96" type="line"/>
      <point x="400.86" y="323.35999999999996"/>
      <point x="384.22" y="313.22"/>
      <point x="357.02" y="313.22" type="curve" smooth="yes"/>
      <point x="328.70000000000005" y="313.22"/>
      <point x="301.06" y="326.56"/>
      <point x="270.78" y="326.56" type="curve" smooth="yes"/>
      <point x="229.88" y="326.56"/>
      <point x="208.56" y="300.16"/>
      <point x="201.57999999999998" y="264.14" type="curve"/>
    </contour>
  </outline>
</glyph>
<glyph name="quotesingle" format="2">
  <advance width="133.85999999999999"/>
  <unicode hex="0027"/>
  <outline>
    <contour>
      <point x="70.54" y="427.0" type="line"/>
      <point x="110.38" y="427.0" type="line"/>
      <point x="158.58" y="700.0" type="line"/>
      <point x="109.28" y="700.0" type="line"/>
    </contour>
  </outline>
</glyph>
<glyph name="parenleft" format="2">
  <advance width="206.46"/>
  <unicode hex="0028"/>
  <outline>
    <contour>
      <point x="29.46" y="5.9" type="curve" smooth="yes"/>
      <point x="29.46" y="-113.02"/>
      <point x="55.86" y="-196.82"/>
      <point x="110.38" y="-220.0" type="curve"/>
      <point x="125.35999999999999" y="-175.4" type="line"/>
      <point x="94.02000000000001" y="-158.48"/>
      <point x="71.86" y="-91.16000000000001"/>
      <point x="71.86" y="11.74" type="curve" smooth="yes"/>
      <point x="71.86" y="189.98000000000002"/>
      <point x="152.1" y="649.02"/>
      <point x="262.58" y="702.36" type="curve"/>
      <point x="262.8" y="749.2800000000001" type="line"/>
      <point x="107.48" y="686.68"/>
      <point x="29.46" y="231.38"/>
    </contour>
  </outline>
</glyph>
<glyph name="parenright" format="2">
  <advance width="206.46"/>
  <unicode hex="0029"/>
  <outline>
    <contour>
      <point x="174.70000000000002" y="523.94" type="curve" smooth="yes"/>
      <point x="174.70000000000002" y="643.44"/>
      <point x="148.85999999999999" y="726.82"/>
      <point x="94.26" y="750.0" type="curve"/>
      <point x="80.72" y="702.98" type="line"/>
      <point x="114.3" y="681.58"/>
      <point x="132.29999999999998" y="618.74"/>
      <point x="132.29999999999998" y="527.36" type="curve" smooth="yes"/>
      <point x="132.29999999999998" y="342.47999999999996"/>
      <point x="51.9" y="-120.54"/>
      <point x="-59.3" y="-173.64000000000001" type="curve"/>
      <point x="-58.8" y="-220.0" type="line"/>
      <point x="92.11999999999999" y="-153.48000000000002"/>
      <point x="174.70000000000002" y="296.18"/>
    </contour>
  </outline>
</glyph>
<glyph name="asterisk" format="2">
  <advance width="230.92000000000002"/>
  <unicode hex="002A"/>
  <outline>
    <contour>
      <point x="82.28" y="393.4" type="line"/>
      <point x="148.34" y="482.21999999999997" type="line"/>
      <point x="185.04" y="394.12" type="line"/>
      <point x="211.14000000000001" y="411.56" type="line"/>
      <point x="177.74" y="507.78000000000003" type="line"/>
      <point x="265.15999999999997" y="551.2800000000001" type="line"/>
      <point x="259.76" y="580.0200000000001" type="line"/>
      <point x="174.3" y="544.4200000000001" type="line"/>
      <point x="190.1" y="659.08" type="line"/>
      <point x="161.23999999999998" y="659.08" type="line"/>
      <point x="140.92" y="545.14" type="line"/>
      <point x="67.02000000000001" y="580.74" type="line"/>
      <point x="53.14" y="552.72" type="line"/>
      <point x="125.38000000000001" y="509.22" type="line"/>
      <point x="60.72" y="411.72" type="line"/>
    </contour>
  </outline>
</glyph>
<glyph name="plus" format="2">
  <advance width="370.26"/>
  <unicode hex="002B"/>
  <outline>
    <contour>
      <point x="133.35999999999999" y="88.68" type="line"/>
      <point x="179.01999999999998" y="88.68" type="line"/>
      <point x="208.26" y="272.78" type="line"/>
      <point x="328.24" y="272.78" type="line"/>
      <point x="335.82" y="320.8" type="line"/>
      <point x="215.84" y="320.8" type="line"/>
      <point x="245.18" y="505.6" type="line"/>
      <point x="199.56" y="505.6" type="line"/>
      <point x="170.17999999999998" y="320.8" type="line"/>
      <point x="49.54" y="320.8" type="line"/>
      <point x="41.959999999999994" y="272.78" type="line"/>
      <point x="162.64" y="272.78" type="line"/>
    </contour>
  </outline>
</glyph>
<glyph name="comma" format="2">
  <advance width="123.62"/>
  <unicode hex="002C"/>
  <outline>
    <contour>
      <point x="2.38" y="48.919999999999995" type="line"/>
      <point x="3.2199999999999998" y="33.5"/>
      <point x="2.58" y="18.160000000000004"/>
      <point x="1.9599999999999997" y="6.620000000000001" type="curve" smooth="yes"/>
      <point x="0.05999999999999994" y="-56.36"/>
      <point x="-35.02" y="-142.02"/>
      <point x="-79.17999999999999" y="-178.92" type="curve"/>
      <point x="-49.3" y="-198.02" type="line"/>
      <point x="22.100000000000005" y="-140.86"/>
      <point x="51.00000000000001" y="-36.720000000000006"/>
      <point x="51.00000000000001" y="19.42" type="curve" smooth="yes"/>
      <point x="51.00000000000001" y="31.080000000000002"/>
      <point x="50.56" y="41.760000000000005"/>
      <point x="48.660000000000004" y="54.88" type="curve"/>
    </contour>
  </outline>
</glyph>
<glyph name="hyphen" format="2">
  <advance width="220.58"/>
  <unicode hex="002D"/>
  <outline>
    <contour>
      <point x="19.9" y="248.95999999999998" type="line"/>
      <point x="192.22" y="248.95999999999998" type="line"/>
      <point x="201.24" y="299.64" type="line"/>
      <point x="28.92" y="299.64" type="line"/>
    </contour>
  </outline>
</glyph>
<glyph name="period" format="2">
  <advance width="123.88"/>
  <unicode hex="002E"/>
  <outline>
    <contour>
      <point x="-7.72" y="22.18" type="curve" smooth="yes"/>
      <point x="-8.52" y="5.16"/>
      <point x="-2.7600000000000002" y="-1.4600000000000002"/>
      <point x="17.060000000000002" y="-1.4600000000000002" type="curve" smooth="yes"/>
      <point x="47.339999999999996" y="-1.4600000000000002"/>
      <point x="53.12" y="17.160000000000004"/>
      <point x="55.52" y="49.339999999999996" type="curve" smooth="yes"/>
      <point x="56.32" y="66.72"/>
      <point x="49.120000000000005" y="72.62"/>
      <point x="30.220000000000002" y="72.62" type="curve" smooth="yes"/>
      <point x="1.4600000000000002" y="72.62"/>
      <point x="-5.320000000000001" y="54.260000000000005"/>
    </contour>
  </outline>
</glyph>
<glyph name="slash" format="2">
  <advance width="249.9"/>
  <unicode hex="002F"/>
  <outline>
    <contour>
      <point x="-69.88" y="-210.0" type="line"/>
      <point x="-25.979999999999997" y="-210.0" type="line"/>
      <point x="316.78000000000003" y="740.0" type="line"/>
      <point x="272.5" y="740.0" type="line"/>
    </contour>
  </outline>
</glyph>
<glyph name="zero" format="2">
  <advance width="359.44"/>
  <unicode hex="0030"/>
  <outline>
    <contour>
      <point x="139.28" y="-10.2" type="curve" smooth="yes"/>
      <point x="295.68" y="-10.2"/>
      <point x="364.50000000000006" y="338.53999999999996"/>
      <point x="364.50000000000006" y="536.5" type="curve" smooth="yes"/>
      <point x="364.50000000000006" y="661.62"/>
      <point x="327.12" y="710.1"/>
      <point x="243.02000000000004" y="710.1" type="curve" smooth="yes"/>
      <point x="85.66" y="710.1"/>
      <point x="17.76" y="361.58"/>
      <point x="17.76" y="164.22000000000003" type="curve" smooth="yes"/>
      <point x="17.76" y="39.2"/>
      <point x="55.300000000000004" y="-10.2"/>
    </contour>
    <contour>
      <point x="143.68" y="39.70000000000001" type="curve" smooth="yes"/>
      <point x="89.92" y="39.70000000000001"/>
      <point x="67.32000000000001" y="75.0"/>
      <point x="68.16" y="163.88000000000002" type="curve" smooth="yes"/>
      <point x="69.54" y="334.67999999999995"/>
      <point x="130.28" y="660.3000000000001"/>
      <point x="238.62" y="660.3000000000001" type="curve" smooth="yes"/>
      <point x="292.50000000000006" y="660.3000000000001"/>
      <point x="314.94" y="625.32"/>
      <point x="314.09999999999997" y="536.44" type="curve" smooth="yes"/>
      <point x="312.71999999999997" y="365.90000000000003"/>
      <point x="251.76" y="39.70000000000001"/>
    </contour>
  </outline>
</glyph>
<glyph name="one" format="2">
  <advance width="359.32"/>
  <unicode hex="0031"/>
  <outline>
    <contour>
      <point x="4.740000000000002" y="0.0" type="line"/>
      <point x="294.58000000000004" y="0.0" type="line"/>
      <point x="302.32" y="48.72" type="line"/>
      <point x="186.76000000000002" y="48.72" type="line"/>
      <point x="290.62" y="700.8" type="line"/>
      <point x="264.56" y="700.8" type="line"/>
      <point x="81.12" y="585.34" type="line"/>
      <point x="89.44000000000001" y="536.4599999999999" type="line"/>
      <point x="228.70000000000002" y="628.38" type="line"/>
      <point x="136.62" y="48.72" type="line"/>
      <point x="12.300000000000002" y="48.72" type="line"/>
    </contour>
  </outline>
</glyph>
<glyph name="two" format="2">
  <advance width="359.44"/>
  <unicode hex="0032"/>
  <outline>
    <contour>
      <point x="11.22" y="40.199999999999996" type="curve"/>
      <point x="8.5" y="0.0" type="line"/>
      <point x="280.6600000000001" y="0.0" type="line"/>
      <point x="287.78000000000003" y="45.3" type="line"/>
      <point x="72.38000000000001" y="45.3" type="line"/>
      <point x="220.32000000000002" y="246.51999999999998"/>
      <point x="332.86" y="430.11999999999995"/>
      <point x="332.86" y="585.94" type="curve" smooth="yes"/>
      <point x="332.86" y="663.1600000000001"/>
      <point x="293.78000000000003" y="710.0"/>
      <point x="227.66" y="710.0" type="curve" smooth="yes"/>
      <point x="178.74" y="710.0"/>
      <point x="133.76" y="691.5399999999998"/>
      <point x="95.25999999999999" y="654.48" type="curve"/>
      <point x="110.16" y="612.5799999999999" type="line"/>
      <point x="146.78" y="644.6799999999998"/>
      <point x="175.56" y="658.52"/>
      <point x="211.42000000000002" y="658.52" type="curve" smooth="yes"/>
      <point x="255.34" y="658.52"/>
      <point x="281.26" y="625.9000000000001"/>
      <point x="281.26" y="570.8200000000002" type="curve" smooth="yes"/>
      <point x="280.72" y="438.58000000000004"/>
      <point x="176.26" y="261.8"/>
    </contour>
  </outline>
</glyph>
<glyph name="three" format="2">
  <advance width="359.5"/>
  <unicode hex="0033"/>
  <outline>
    <contour>
      <point x="-15.900000000000002" y="38.45" type="line"/>
      <point x="13.850000000000001" y="7.05"/>
      <point x="57.449999999999996" y="-10.0"/>
      <point x="113.6" y="-10.0" type="curve" smooth="yes"/>
      <point x="222.6" y="-10.0"/>
      <point x="303.79999999999995" y="91.30000000000001"/>
      <point x="303.79999999999995" y="244.79999999999998" type="curve" smooth="yes"/>
      <point x="303.79999999999995" y="318.3"/>
      <point x="275.9" y="358.6"/>
      <point x="239.25" y="370.8" type="curve"/>
      <point x="290.40000000000003" y="395.25"/>
      <point x="336.7" y="468.8"/>
      <point x="336.7" y="570.4499999999999" type="curve" smooth="yes"/>
      <point x="336.7" y="654.8"/>
      <point x="293.25" y="710.0"/>
      <point x="215.7" y="710.0" type="curve" smooth="yes"/>
      <point x="175.7" y="710.0"/>
      <point x="128.1" y="695.6"/>
      <point x="95.85" y="671.65" type="curve"/>
      <point x="110.2" y="630.3" type="line"/>
      <point x="138.45" y="649.6"/>
      <point x="169.54999999999998" y="658.55"/>
      <point x="201.54999999999998" y="658.55" type="curve" smooth="yes"/>
      <point x="252.85000000000002" y="658.55"/>
      <point x="285.05" y="615.45"/>
      <point x="285.05" y="553.5999999999999" type="curve" smooth="yes"/>
      <point x="285.05" y="466.45"/>
      <point x="238.6" y="386.8"/>
      <point x="179.70000000000002" y="386.8" type="curve" smooth="yes"/>
      <point x="125.75" y="386.8" type="line"/>
      <point x="118.70000000000002" y="344.59999999999997" type="line"/>
      <point x="181.0" y="344.59999999999997" type="line" smooth="yes"/>
      <point x="228.29999999999998" y="344.59999999999997"/>
      <point x="253.65000000000003" y="309.8"/>
      <point x="253.65000000000003" y="242.25" type="curve" smooth="yes"/>
      <point x="253.65000000000003" y="125.89999999999999"/>
      <point x="198.55" y="40.349999999999994"/>
      <point x="115.24999999999999" y="40.349999999999994" type="curve" smooth="yes"/>
      <point x="71.14999999999999" y="40.349999999999994"/>
      <point x="38.95" y="52.949999999999996"/>
      <point x="11.5" y="78.55000000000001" type="curve"/>
    </contour>
  </outline>
</glyph>
<glyph name="four" format="2">
  <advance width="359.5"/>
  <unicode hex="0034"/>
  <outline>
    <contour>
      <point x="14.299999999999999" y="170.9" type="line"/>
      <point x="203.15" y="170.9" type="line"/>
      <point x="176.20000000000002" y="-0.5499999999999999" type="line"/>
      <point x="227.95" y="-0.5499999999999999" type="line"/>
      <point x="254.75" y="170.9" type="line"/>
      <point x="322.95" y="170.9" type="line"/>
      <point x="330.05" y="217.05" type="line"/>
      <point x="262.09999999999997" y="217.05" type="line"/>
      <point x="338.6" y="698.85" type="line"/>
      <point x="289.6" y="703.2" type="line"/>
      <point x="16.749999999999996" y="213.8" type="line"/>
    </contour>
    <contour>
      <point x="58.50000000000001" y="217.05" type="line"/>
      <point x="273.45" y="599.3" type="line"/>
      <point x="211.89999999999998" y="217.05" type="line"/>
    </contour>
  </outline>
</glyph>
<glyph name="five" format="2">
  <advance width="359.44"/>
  <unicode hex="0035"/>
  <outline>
    <contour>
      <point x="-5.420000000000001" y="40.39000000000001" type="line"/>
      <point x="22.259999999999998" y="7.699999999999999"/>
      <point x="59.77000000000001" y="-10.0"/>
      <point x="112.41" y="-10.0" type="curve" smooth="yes"/>
      <point x="261.41" y="-10.0"/>
      <point x="310.68999999999994" y="151.45000000000005"/>
      <point x="310.68999999999994" y="259.23" type="curve" smooth="yes"/>
      <point x="310.68999999999994" y="344.32"/>
      <point x="274.51000000000005" y="391.94"/>
      <point x="201.23000000000002" y="392.84" type="curve" smooth="yes"/>
      <point x="124.75000000000001" y="393.14" type="line"/>
      <point x="179.80000000000004" y="648.91" type="line"/>
      <point x="349.3" y="648.91" type="line"/>
      <point x="357.11" y="700.0" type="line"/>
      <point x="146.42" y="700.0" type="line"/>
      <point x="70.08" y="356.89000000000004" type="line"/>
      <point x="78.16000000000001" y="345.65" type="line"/>
      <point x="176.14000000000001" y="345.65" type="line" smooth="yes"/>
      <point x="236.17999999999998" y="345.65"/>
      <point x="258.52000000000004" y="309.63"/>
      <point x="258.52000000000004" y="246.84999999999997" type="curve" smooth="yes"/>
      <point x="258.52000000000004" y="173.18000000000004"/>
      <point x="221.6" y="40.400000000000006"/>
      <point x="114.60999999999999" y="40.400000000000006" type="curve" smooth="yes"/>
      <point x="69.24999999999999" y="40.400000000000006"/>
      <point x="40.040000000000006" y="60.08"/>
      <point x="19.520000000000003" y="82.19999999999999" type="curve"/>
    </contour>
  </outline>
</glyph>
<glyph name="six" format="2">
  <advance width="359.5"/>
  <unicode hex="0036"/>
  <note>
14
</note>
  <outline>
    <contour>
      <point x="152.05" y="-10.0" type="curve" smooth="yes"/>
      <point x="255.15" y="-10.0"/>
      <point x="326.34999999999997" y="106.25"/>
      <point x="326.34999999999997" y="271.55" type="curve" smooth="yes"/>
      <point x="326.34999999999997" y="367.40000000000003"/>
      <point x="283.05" y="413.7"/>
      <point x="213.14999999999998" y="413.7" type="curve" smooth="yes"/>
      <point x="162.65" y="413.7"/>
      <point x="109.95" y="381.65"/>
      <point x="74.30000000000001" y="313.8" type="curve"/>
      <point x="68.05000000000001" y="239.3" type="line"/>
      <point x="96.25" y="314.95"/>
      <point x="145.95" y="368.3"/>
      <point x="199.5" y="368.3" type="curve" smooth="yes"/>
      <point x="251.25" y="368.3"/>
      <point x="276.0" y="330.75"/>
      <point x="276.0" y="260.3" type="curve" smooth="yes"/>
      <point x="276.0" y="139.2"/>
      <point x="223.15" y="36.75"/>
      <point x="155.0" y="36.75" type="curve" smooth="yes"/>
      <point x="101.15" y="36.75"/>
      <point x="72.05" y="80.15"/>
      <point x="72.05" y="162.85" type="curve" smooth="yes"/>
      <point x="72.05" y="296.65"/>
      <point x="98.75" y="428.65"/>
      <point x="141.5" y="530.35" type="curve" smooth="yes"/>
      <point x="175.45000000000002" y="610.8"/>
      <point x="221.70000000000002" y="660.9"/>
      <point x="282.09999999999997" y="660.9" type="curve" smooth="yes"/>
      <point x="310.9" y="660.9"/>
      <point x="335.55" y="651.8"/>
      <point x="361.0" y="635.45" type="curve"/>
      <point x="384.2" y="678.15" type="line"/>
      <point x="356.2" y="698.25"/>
      <point x="323.3" y="710.0"/>
      <point x="280.45" y="710.0" type="curve" smooth="yes"/>
      <point x="122.35000000000001" y="710.0"/>
      <point x="23.150000000000002" y="453.55"/>
      <point x="23.150000000000002" y="163.79999999999998" type="curve" smooth="yes"/>
      <point x="23.150000000000002" y="45.7"/>
      <point x="67.8" y="-10.0"/>
    </contour>
  </outline>
</glyph>
<glyph name="seven" format="2">
  <advance width="359.32"/>
  <unicode hex="0037"/>
  <note>
9
</note>
  <outline>
    <contour>
      <point x="68.75999999999999" y="0.0" type="curve"/>
      <point x="121.44" y="0.0" type="line"/>
      <point x="140.92000000000002" y="115.96000000000001"/>
      <point x="170.94" y="221.04"/>
      <point x="259.12" y="411.82" type="curve" smooth="yes"/>
      <point x="373.58" y="659.8" type="line"/>
      <point x="380.15999999999997" y="700.0" type="line"/>
      <point x="91.58000000000001" y="700.0" type="line"/>
      <point x="83.66" y="649.26" type="line"/>
      <point x="316.94" y="649.26" type="line"/>
      <point x="213.74000000000004" y="430.9" type="line" smooth="yes"/>
      <point x="131.18" y="256.53999999999996"/>
      <point x="91.2" y="141.6"/>
    </contour>
  </outline>
</glyph>
<glyph name="eight" format="2">
  <advance width="359.5"/>
  <unicode hex="0038"/>
  <outline>
    <contour>
      <point x="148.6" y="-10.0" type="curve" smooth="yes"/>
      <point x="259.2" y="-10.0"/>
      <point x="322.75" y="75.75"/>
      <point x="322.75" y="194.1" type="curve" smooth="yes"/>
      <point x="322.75" y="373.55"/>
      <point x="124.4" y="378.8"/>
      <point x="124.4" y="532.3000000000001" type="curve" smooth="yes"/>
      <point x="124.4" y="608.75"/>
      <point x="163.85" y="662.8"/>
      <point x="232.0" y="662.8" type="curve" smooth="yes"/>
      <point x="290.5" y="662.8"/>
      <point x="314.54999999999995" y="625.8"/>
      <point x="314.54999999999995" y="568.9499999999999" type="curve" smooth="yes"/>
      <point x="314.54999999999995" y="484.84999999999997"/>
      <point x="276.85" y="421.8"/>
      <point x="206.14999999999998" y="377.6" type="curve"/>
      <point x="235.25" y="351.8" type="line"/>
      <point x="315.45" y="400.6"/>
      <point x="362.55" y="476.9"/>
      <point x="362.55" y="577.45" type="curve" smooth="yes"/>
      <point x="362.55" y="654.6"/>
      <point x="324.65" y="710.0"/>
      <point x="233.75" y="710.0" type="curve" smooth="yes"/>
      <point x="131.45" y="710.0"/>
      <point x="74.6" y="632.8000000000001"/>
      <point x="74.6" y="523.8499999999999" type="curve" smooth="yes"/>
      <point x="74.6" y="345.9"/>
      <point x="272.34999999999997" y="348.95"/>
      <point x="272.34999999999997" y="186.04999999999998" type="curve" smooth="yes"/>
      <point x="272.34999999999997" y="100.3"/>
      <point x="227.75" y="35.800000000000004"/>
      <point x="151.8" y="35.800000000000004" type="curve" smooth="yes"/>
      <point x="85.6" y="35.800000000000004"/>
      <point x="52.85" y="74.44999999999999"/>
      <point x="52.85" y="142.15" type="curve" smooth="yes"/>
      <point x="52.85" y="235.7"/>
      <point x="95.2" y="315.7"/>
      <point x="176.1" y="356.34999999999997" type="curve"/>
      <point x="145.2" y="385.6" type="line"/>
      <point x="51.7" y="337.09999999999997"/>
      <point x="1.6000000000000005" y="242.6"/>
      <point x="1.6000000000000005" y="133.65" type="curve" smooth="yes"/>
      <point x="1.6000000000000005" y="44.55"/>
      <point x="46.849999999999994" y="-10.0"/>
    </contour>
  </outline>
</glyph>
<glyph name="nine" format="2">
  <advance width="359.5"/>
  <unicode hex="0039"/>
  <outline>
    <contour>
      <point x="230.65" y="710.0" type="curve" smooth="yes"/>
      <point x="127.55" y="710.0"/>
      <point x="56.05" y="593.75"/>
      <point x="56.05" y="428.45" type="curve" smooth="yes"/>
      <point x="56.05" y="332.59999999999997"/>
      <point x="98.45" y="286.59999999999997"/>
      <point x="168.05" y="286.59999999999997" type="curve" smooth="yes"/>
      <point x="218.85" y="286.59999999999997"/>
      <point x="272.75" y="317.45"/>
      <point x="308.09999999999997" y="389.2" type="curve"/>
      <point x="314.34999999999997" y="461.0" type="line"/>
      <point x="286.45" y="385.35"/>
      <point x="236.45" y="332.0"/>
      <point x="182.9" y="332.0" type="curve" smooth="yes"/>
      <point x="131.45" y="332.0"/>
      <point x="106.7" y="369.25"/>
      <point x="106.7" y="439.7" type="curve" smooth="yes"/>
      <point x="106.7" y="561.1"/>
      <point x="159.54999999999998" y="663.25"/>
      <point x="227.4" y="663.25" type="curve" smooth="yes"/>
      <point x="280.95" y="663.25"/>
      <point x="310.35" y="619.85"/>
      <point x="310.35" y="537.45" type="curve" smooth="yes"/>
      <point x="310.35" y="406.35"/>
      <point x="284.25" y="271.34999999999997"/>
      <point x="241.2" y="169.35" type="curve" smooth="yes"/>
      <point x="207.55" y="88.89999999999999"/>
      <point x="161.6" y="38.800000000000004"/>
      <point x="104.05" y="38.800000000000004" type="curve" smooth="yes"/>
      <point x="75.55" y="38.800000000000004"/>
      <point x="47.6" y="47.75000000000001"/>
      <point x="21.4" y="70.85000000000001" type="curve"/>
      <point x="-1.7999999999999994" y="27.849999999999998" type="line"/>
      <point x="27.25" y="1.3"/>
      <point x="63.15" y="-10.0"/>
      <point x="106.60000000000001" y="-10.0" type="curve" smooth="yes"/>
      <point x="258.25" y="-10.0"/>
      <point x="359.25" y="246.45000000000002"/>
      <point x="359.25" y="536.5" type="curve" smooth="yes"/>
      <point x="359.25" y="654.6"/>
      <point x="314.6" y="710.0"/>
    </contour>
  </outline>
</glyph>
<glyph name="less" format="2">
  <advance width="370.15999999999997"/>
  <unicode hex="003C"/>
  <outline>
    <contour>
      <point x="302.28000000000003" y="89.46" type="line"/>
      <point x="309.32" y="136.8" type="line"/>
      <point x="85.3" y="293.72" type="line"/>
      <point x="359.58000000000004" y="451.52" type="line"/>
      <point x="366.62000000000006" y="500.24" type="line"/>
      <point x="46.48" y="321.14000000000004" type="line"/>
      <point x="38.16" y="269.42" type="line"/>
    </contour>
  </outline>
</glyph>
<glyph name="equal" format="2">
  <advance width="363.44000000000005"/>
  <unicode hex="003D"/>
  <outline>
    <contour>
      <point x="311.1" y="214.08" type="line"/>
      <point x="33.1" y="214.08" type="line"/>
      <point x="25.880000000000003" y="165.34" type="line"/>
      <point x="303.88000000000005" y="165.34" type="line"/>
    </contour>
    <contour>
      <point x="343.09999999999997" y="424.7" type="line"/>
      <point x="65.26" y="424.7" type="line"/>
      <point x="57.88" y="375.96" type="line"/>
      <point x="335.88" y="375.96" type="line"/>
    </contour>
  </outline>
</glyph>
<glyph name="greater" format="2">
  <advance width="370.15999999999997"/>
  <unicode hex="003E"/>
  <outline>
    <contour>
      <point x="330.59999999999997" y="267.26" type="line"/>
      <point x="338.88" y="318.67999999999995" type="line"/>
      <point x="74.25999999999999" y="498.59999999999997" type="line"/>
      <point x="67.17999999999999" y="451.6" type="line"/>
      <point x="292.12" y="294.43999999999994" type="line"/>
      <point x="17.68" y="137.6" type="line"/>
      <point x="9.9" y="88.02000000000001" type="line"/>
    </contour>
  </outline>
</glyph>
<glyph name="question" format="2">
  <advance width="286.3"/>
  <unicode hex="003F"/>
  <outline>
    <contour>
      <point x="103.3" y="262.96" type="line"/>
      <point x="147.84" y="262.96" type="line"/>
      <point x="159.72000000000003" y="338.22" type="line"/>
      <point x="252.45999999999998" y="414.84"/>
      <point x="317.46" y="478.73999999999995"/>
      <point x="317.46" y="616.66" type="curve" smooth="yes"/>
      <point x="317.46" y="705.9"/>
      <point x="269.91999999999996" y="750.0"/>
      <point x="206.0" y="750.0" type="curve" smooth="yes"/>
      <point x="162.17999999999998" y="750.0"/>
      <point x="114.5" y="728.5400000000001"/>
      <point x="75.47999999999999" y="693.7" type="curve"/>
      <point x="89.39999999999999" y="649.9599999999999" type="line"/>
      <point x="126.08" y="681.4399999999999"/>
      <point x="160.38" y="696.6600000000001"/>
      <point x="192.64000000000001" y="696.6600000000001" type="curve" smooth="yes"/>
      <point x="233.71999999999997" y="696.6600000000001"/>
      <point x="264.3" y="667.02"/>
      <point x="264.3" y="604.0200000000001" type="curve" smooth="yes"/>
      <point x="264.3" y="502.38"/>
      <point x="220.78" y="438.06"/>
      <point x="118.41999999999999" y="362.86" type="curve"/>
    </contour>
    <contour>
      <point x="59.32" y="21.240000000000002" type="curve" smooth="yes"/>
      <point x="58.8" y="4.420000000000001"/>
      <point x="64.36" y="-2.0"/>
      <point x="83.74000000000001" y="-2.0" type="curve" smooth="yes"/>
      <point x="114.05999999999999" y="-2.0"/>
      <point x="121.02000000000001" y="15.9"/>
      <point x="122.58000000000001" y="48.220000000000006" type="curve" smooth="yes"/>
      <point x="123.1" y="66.0"/>
      <point x="116.08" y="71.88"/>
      <point x="97.64" y="71.88" type="curve" smooth="yes"/>
      <point x="68.67999999999999" y="71.88"/>
      <point x="60.88" y="53.92"/>
    </contour>
  </outline>
</glyph>
<glyph name="at" format="2">
  <advance width="518.9"/>
  <unicode hex="0040"/>
  <outline>
    <contour>
      <point x="197.25" y="-123.35" type="curve" smooth="yes"/>
      <point x="251.5" y="-123.35"/>
      <point x="304.0" y="-100.3"/>
      <point x="340.34999999999997" y="-56.05" type="curve"/>
      <point x="326.15" y="-36.25" type="line"/>
      <point x="292.90000000000003" y="-74.3"/>
      <point x="249.29999999999998" y="-94.19999999999999"/>
      <point x="199.29999999999998" y="-94.19999999999999" type="curve" smooth="yes"/>
      <point x="102.2" y="-94.19999999999999"/>
      <point x="43.35000000000001" y="-25.699999999999996"/>
      <point x="43.35000000000001" y="115.44999999999999" type="curve" smooth="yes"/>
      <point x="43.35000000000001" y="410.0"/>
      <point x="171.14999999999998" y="683.3"/>
      <point x="343.55" y="683.3" type="curve" smooth="yes"/>
      <point x="437.1" y="683.3"/>
      <point x="492.4" y="636.3000000000001"/>
      <point x="492.4" y="504.04999999999995" type="curve" smooth="yes"/>
      <point x="492.4" y="327.09999999999997"/>
      <point x="428.09999999999997" y="96.39999999999999"/>
      <point x="363.15" y="96.39999999999999" type="curve" smooth="yes"/>
      <point x="326.55" y="96.39999999999999"/>
      <point x="333.8" y="160.6"/>
      <point x="343.04999999999995" y="202.60000000000002" type="curve" smooth="yes"/>
      <point x="415.4" y="521.75" type="line"/>
      <point x="381.6" y="536.6"/>
      <point x="353.4" y="543.35"/>
      <point x="320.5" y="543.35" type="curve" smooth="yes"/>
      <point x="212.45" y="543.35"/>
      <point x="125.44999999999999" y="318.25"/>
      <point x="125.44999999999999" y="149.4" type="curve" smooth="yes"/>
      <point x="125.44999999999999" y="90.30000000000001"/>
      <point x="150.79999999999998" y="61.8"/>
      <point x="192.05" y="61.8" type="curve" smooth="yes"/>
      <point x="232.0" y="61.8"/>
      <point x="270.9" y="91.5"/>
      <point x="298.2" y="149.65" type="curve"/>
      <point x="300.4" y="118.05000000000001"/>
      <point x="301.3" y="60.650000000000006"/>
      <point x="356.3" y="60.650000000000006" type="curve" smooth="yes"/>
      <point x="451.1" y="60.650000000000006"/>
      <point x="523.45" y="316.9"/>
      <point x="523.45" y="511.0" type="curve" smooth="yes"/>
      <point x="523.45" y="648.75"/>
      <point x="455.25" y="713.2"/>
      <point x="347.79999999999995" y="713.2" type="curve" smooth="yes"/>
      <point x="152.55" y="713.2"/>
      <point x="12.05" y="432.95"/>
      <point x="12.05" y="106.4" type="curve" smooth="yes"/>
      <point x="12.05" y="-42.0"/>
      <point x="78.64999999999999" y="-123.35"/>
    </contour>
    <contour>
      <point x="212.1" y="108.7" type="curve" smooth="yes"/>
      <point x="188.04999999999998" y="108.7"/>
      <point x="175.1" y="127.54999999999998"/>
      <point x="175.1" y="164.45" type="curve" smooth="yes"/>
      <point x="175.1" y="305.2"/>
      <point x="255.2" y="504.1"/>
      <point x="316.65" y="504.1" type="curve" smooth="yes"/>
      <point x="332.40000000000003" y="504.1"/>
      <point x="348.9" y="501.15"/>
      <point x="364.9" y="494.5" type="curve"/>
      <point x="304.45000000000005" y="232.0" type="line" smooth="yes"/>
      <point x="283.45" y="154.29999999999998"/>
      <point x="244.60000000000002" y="108.7"/>
    </contour>
  </outline>
</glyph>
<glyph name="A" format="2">
  <advance width="364.95000000000005"/>
  <unicode hex="0041"/>
  <anchor x="136.6" y="0.0" name="bottom"/>
  <anchor x="304.95" y="0.0" name="ogonek"/>
  <anchor x="245.45" y="700.0" name="top"/>
  <outline>
    <contour>
      <point x="-28.0" y="0.0" type="line"/>
      <point x="24.650000000000006" y="0.0" type="line"/>
      <point x="92.64999999999999" y="196.05" type="line"/>
      <point x="245.70000000000002" y="196.05" type="line"/>
      <point x="252.14999999999998" y="0.0" type="line"/>
      <point x="304.95" y="0.0" type="line"/>
      <point x="280.55" y="708.2" type="line"/>
      <point x="214.35000000000002" y="708.2" type="line"/>
    </contour>
    <contour>
      <point x="106.7" y="243.9" type="line"/>
      <point x="236.15" y="634.2499999999999" type="line"/>
      <point x="247.04999999999998" y="243.9" type="line"/>
    </contour>
  </outline>
</glyph>
<glyph name="B" format="2">
  <advance width="357.79999999999995"/>
  <unicode hex="0042"/>
  <outline>
    <contour>
      <point x="3.3200000000000003" y="-2.92" type="line"/>
      <point x="51.18000000000001" y="-8.1"/>
      <point x="79.74000000000001" y="-10.0"/>
      <point x="119.56000000000002" y="-10.0" type="curve" smooth="yes"/>
      <point x="260.18" y="-10.0"/>
      <point x="324.88" y="119.10000000000001"/>
      <point x="324.88" y="238.76000000000002" type="curve" smooth="yes"/>
      <point x="324.88" y="308.29999999999995"/>
      <point x="294.78000000000003" y="349.68"/>
      <point x="250.14" y="363.73999999999995" type="curve"/>
      <point x="324.78000000000003" y="395.28"/>
      <point x="360.28000000000003" y="504.78"/>
      <point x="360.28000000000003" y="587.0" type="curve" smooth="yes"/>
      <point x="360.28000000000003" y="668.72"/>
      <point x="319.12" y="710.0"/>
      <point x="226.94000000000003" y="710.0" type="curve" smooth="yes"/>
      <point x="200.20000000000002" y="710.0"/>
      <point x="164.88" y="707.6199999999999"/>
      <point x="114.42" y="701.48" type="curve"/>
    </contour>
    <contour>
      <point x="114.02000000000001" y="377.38" type="line"/>
      <point x="158.28" y="659.04" type="line"/>
      <point x="181.7" y="662.18"/>
      <point x="202.68" y="663.9399999999999"/>
      <point x="223.72" y="663.9399999999999" type="curve" smooth="yes"/>
      <point x="282.47999999999996" y="663.9399999999999"/>
      <point x="311.26" y="638.7399999999999"/>
      <point x="311.26" y="571.9" type="curve" smooth="yes"/>
      <point x="311.26" y="487.0"/>
      <point x="262.40000000000003" y="377.38"/>
      <point x="190.26" y="377.38" type="curve" smooth="yes"/>
    </contour>
    <contour>
      <point x="106.86000000000001" y="332.4" type="line"/>
      <point x="194.12" y="332.4" type="line" smooth="yes"/>
      <point x="237.51999999999998" y="332.4"/>
      <point x="274.54" y="299.04"/>
      <point x="274.54" y="232.12000000000003" type="curve" smooth="yes"/>
      <point x="274.54" y="131.96"/>
      <point x="226.01999999999998" y="36.72"/>
      <point x="125.83999999999999" y="36.72" type="curve" smooth="yes"/>
      <point x="103.5" y="36.72"/>
      <point x="85.9" y="38.120000000000005"/>
      <point x="60.46" y="40.68" type="curve"/>
    </contour>
  </outline>
</glyph>
<glyph name="C" format="2">
  <advance width="332.48"/>
  <unicode hex="0043"/>
  <anchor x="182.43" y="0.0" name="bottom"/>
  <anchor x="280.61000000000007" y="700.0" name="top"/>
  <outline>
    <contour>
      <point x="192.03999999999996" y="-10.0" type="curve" smooth="yes"/>
      <point x="228.09" y="-10.0"/>
      <point x="257.47" y="-5.66"/>
      <point x="281.33000000000004" y="3.08" type="curve"/>
      <point x="276.12000000000006" y="48.18" type="line"/>
      <point x="255.17" y="41.800000000000004"/>
      <point x="229.53000000000003" y="38.15"/>
      <point x="201.41" y="38.15" type="curve" smooth="yes"/>
      <point x="121.60000000000001" y="38.15"/>
      <point x="81.60000000000001" y="84.25999999999999"/>
      <point x="81.60000000000001" y="196.18000000000004" type="curve" smooth="yes"/>
      <point x="81.60000000000001" y="455.55"/>
      <point x="163.90000000000003" y="661.8500000000001"/>
      <point x="282.86000000000007" y="661.8500000000001" type="curve" smooth="yes"/>
      <point x="309.43000000000006" y="661.8500000000001"/>
      <point x="332.95" y="657.65"/>
      <point x="361.34999999999997" y="648.89" type="curve"/>
      <point x="377.34" y="693.09" type="line"/>
      <point x="350.34999999999997" y="704.8999999999999"/>
      <point x="318.42" y="710.0"/>
      <point x="282.91999999999996" y="710.0" type="curve" smooth="yes"/>
      <point x="131.3" y="710.0"/>
      <point x="30.299999999999997" y="495.1"/>
      <point x="30.299999999999997" y="189.19000000000003" type="curve" smooth="yes"/>
      <point x="30.299999999999997" y="51.470000000000006"/>
      <point x="83.08" y="-10.0"/>
    </contour>
  </outline>
</glyph>
<glyph name="D" format="2">
  <advance width="386.28999999999996"/>
  <unicode hex="0044"/>
  <anchor x="135.89" y="0.0" name="bottom"/>
  <anchor x="201.30185" y="350.0" name="center"/>
  <anchor x="232.79000000000002" y="700.0" name="top"/>
  <outline>
    <contour>
      <point x="110.16999999999999" y="-10.0" type="curve" smooth="yes"/>
      <point x="272.56" y="-10.0"/>
      <point x="375.51" y="191.02"/>
      <point x="375.51" y="466.41" type="curve" smooth="yes"/>
      <point x="375.51" y="640.2299999999999"/>
      <point x="317.86" y="710.0"/>
      <point x="207.38000000000002" y="710.0" type="curve" smooth="yes"/>
      <point x="176.20000000000002" y="710.0"/>
      <point x="149.39000000000001" y="708.38"/>
      <point x="114.39" y="704.63" type="curve"/>
      <point x="2.7499999999999996" y="-3.39" type="line"/>
      <point x="38.120000000000005" y="-8.1"/>
      <point x="67.58999999999999" y="-10.0"/>
    </contour>
    <contour>
      <point x="116.03" y="34.62000000000001" type="curve" smooth="yes"/>
      <point x="94.72999999999998" y="34.62000000000001"/>
      <point x="79.33" y="35.78"/>
      <point x="59.31" y="37.93" type="curve"/>
      <point x="158.18" y="660.15" type="line"/>
      <point x="173.75" y="661.55"/>
      <point x="191.73" y="662.2"/>
      <point x="209.23000000000002" y="662.2" type="curve" smooth="yes"/>
      <point x="281.91" y="662.2"/>
      <point x="324.9" y="610.72"/>
      <point x="324.9" y="464.90999999999997" type="curve" smooth="yes"/>
      <point x="324.9" y="228.53"/>
      <point x="234.59" y="34.62000000000001"/>
    </contour>
  </outline>
</glyph>
<glyph name="E" format="2">
  <advance width="316.11"/>
  <unicode hex="0045"/>
  <anchor x="132.78" y="0.0" name="bottom"/>
  <anchor x="256.78" y="0.0" name="ogonek"/>
  <anchor x="237.60000000000002" y="700.0" name="top"/>
  <anchor x="87.96695" y="700.0" name="topleft"/>
  <outline>
    <contour>
      <point x="3.44" y="0.0" type="line"/>
      <point x="256.78" y="0.0" type="line"/>
      <point x="264.48" y="48.25" type="line"/>
      <point x="61.239999999999995" y="48.25" type="line"/>
      <point x="107.02999999999999" y="338.4" type="line"/>
      <point x="282.43" y="338.4" type="line"/>
      <point x="290.22999999999996" y="385.15" type="line"/>
      <point x="114.52" y="385.15" type="line"/>
      <point x="156.2" y="651.0" type="line"/>
      <point x="348.56000000000006" y="651.0" type="line"/>
      <point x="357.24999999999994" y="700.0" type="line"/>
      <point x="113.60000000000001" y="700.0" type="line"/>
    </contour>
  </outline>
</glyph>
<glyph name="F" format="2">
  <advance width="298.7"/>
  <unicode hex="0046"/>
  <outline>
    <contour>
      <point x="3.3400000000000003" y="0.0" type="line"/>
      <point x="52.96" y="0.0" type="line"/>
      <point x="104.08" y="318.88" type="line"/>
      <point x="262.1" y="318.88" type="line"/>
      <point x="269.82" y="368.03999999999996" type="line"/>
      <point x="111.66" y="368.03999999999996" type="line"/>
      <point x="156.18" y="650.84" type="line"/>
      <point x="348.66" y="650.84" type="line"/>
      <point x="356.7" y="700.0" type="line"/>
      <point x="113.7" y="700.0" type="line"/>
    </contour>
  </outline>
</glyph>
<glyph name="G" format="2">
  <advance width="357.30000000000007"/>
  <unicode hex="0047"/>
  <anchor x="177.2" y="0.0" name="bottom"/>
  <anchor x="279.78" y="700.0" name="top"/>
  <outline>
    <contour>
      <point x="186.58" y="-10.0" type="curve" smooth="yes"/>
      <point x="221.46" y="-10.0"/>
      <point x="257.02" y="-3.0199999999999996"/>
      <point x="280.28000000000003" y="8.56" type="curve"/>
      <point x="334.66" y="352.06" type="line"/>
      <point x="197.92000000000002" y="352.06" type="line"/>
      <point x="190.96" y="307.8" type="line"/>
      <point x="281.52" y="307.8" type="line"/>
      <point x="239.46" y="43.7" type="line"/>
      <point x="227.2" y="38.980000000000004"/>
      <point x="208.36" y="36.14"/>
      <point x="189.07999999999998" y="36.14" type="curve" smooth="yes"/>
      <point x="118.5" y="36.14"/>
      <point x="79.44" y="81.04"/>
      <point x="79.44" y="192.02" type="curve" smooth="yes"/>
      <point x="79.44" y="451.12"/>
      <point x="162.35999999999999" y="661.9"/>
      <point x="281.76" y="661.9" type="curve" smooth="yes"/>
      <point x="310.9" y="661.9"/>
      <point x="335.52" y="656.2800000000001"/>
      <point x="363.82000000000005" y="647.6999999999999" type="curve"/>
      <point x="380.08" y="692.9200000000001" type="line"/>
      <point x="353.78000000000003" y="703.4"/>
      <point x="318.97999999999996" y="710.0"/>
      <point x="283.03999999999996" y="710.0" type="curve" smooth="yes"/>
      <point x="123.02" y="710.0"/>
      <point x="29.86" y="477.64"/>
      <point x="29.86" y="188.8" type="curve" smooth="yes"/>
      <point x="29.86" y="51.800000000000004"/>
      <point x="84.96000000000001" y="-10.0"/>
    </contour>
  </outline>
</glyph>
<glyph name="H" format="2">
  <advance width="395.64"/>
  <unicode hex="0048"/>
  <anchor x="154.34432" y="0.0" name="bottom"/>
  <anchor x="210.18612" y="350.0" name="center"/>
  <anchor x="265.30764" y="700.0" name="top"/>
  <anchor x="85.64764" y="700.0" name="topleft"/>
  <outline>
    <contour>
      <point x="3.3200000000000003" y="0.0" type="line"/>
      <point x="54.4" y="0.0" type="line"/>
      <point x="98.72" y="280.84" type="line"/>
      <point x="299.14" y="280.84" type="line"/>
      <point x="254.96" y="0.0" type="line"/>
      <point x="304.96" y="0.0" type="line"/>
      <point x="416.03999999999996" y="700.0" type="line"/>
      <point x="365.88" y="700.0" type="line"/>
      <point x="306.78000000000003" y="328.56" type="line"/>
      <point x="105.64000000000001" y="328.56" type="line"/>
      <point x="164.76000000000002" y="700.0" type="line"/>
      <point x="113.68" y="700.0" type="line"/>
    </contour>
  </outline>
</glyph>
<glyph name="I" format="2">
  <advance width="144.36"/>
  <unicode hex="0049"/>
  <anchor x="28.335440000000006" y="0.0" name="bottom"/>
  <anchor x="54.22504" y="1.8" name="ogonek"/>
  <anchor x="139.30137999999997" y="700.0" name="top"/>
  <anchor x="88.01634" y="700.0" name="topleft"/>
  <outline>
    <contour>
      <point x="3.3200000000000003" y="0.0" type="line"/>
      <point x="53.68000000000001" y="0.0" type="line"/>
      <point x="164.76000000000002" y="700.0" type="line"/>
      <point x="113.68" y="700.0" type="line"/>
    </contour>
  </outline>
</glyph>
<glyph name="J" format="2">
  <advance width="267.96"/>
  <unicode hex="004A"/>
  <anchor x="54.959920000000004" y="0.0" name="bottom"/>
  <anchor x="197.04000000000002" y="700.0" name="top"/>
  <outline>
    <contour>
      <point x="-35.86" y="6.200000000000001" type="line"/>
      <point x="-11.0" y="-3.099999999999999"/>
      <point x="15.160000000000002" y="-10.0"/>
      <point x="49.58" y="-10.0" type="curve" smooth="yes"/>
      <point x="146.44000000000003" y="-10.0"/>
      <point x="189.24" y="49.14"/>
      <point x="203.85999999999999" y="140.98" type="curve" smooth="yes"/>
      <point x="292.64" y="700.0" type="line"/>
      <point x="93.83999999999999" y="700.0" type="line"/>
      <point x="86.34" y="653.14" type="line"/>
      <point x="234.78" y="653.14" type="line"/>
      <point x="154.84" y="152.62" type="line" smooth="yes"/>
      <point x="141.72" y="70.92"/>
      <point x="103.6" y="41.36000000000001"/>
      <point x="44.22" y="41.36000000000001" type="curve" smooth="yes"/>
      <point x="19.700000000000003" y="41.36000000000001"/>
      <point x="-2.059999999999999" y="47.14"/>
      <point x="-22.02" y="53.98" type="curve"/>
    </contour>
  </outline>
</glyph>
<glyph name="K" format="2">
  <advance width="351.79"/>
  <unicode hex="004B"/>
  <anchor x="148.25" y="0.0" name="bottom"/>
  <anchor x="238.85" y="700.0" name="top"/>
  <outline>
    <contour>
      <point x="3.0099999999999993" y="0.0" type="line"/>
      <point x="53.78000000000001" y="0.0" type="line"/>
      <point x="164.61" y="700.0" type="line"/>
      <point x="113.74" y="700.0" type="line"/>
    </contour>
    <contour>
      <point x="287.34000000000003" y="-9.360000000000001" type="curve" smooth="yes"/>
      <point x="295.13" y="-9.360000000000001"/>
      <point x="305.7" y="-7.13"/>
      <point x="311.93" y="-3.98" type="curve"/>
      <point x="313.83" y="51.46000000000001" type="line"/>
      <point x="311.06" y="51.07000000000001"/>
      <point x="307.58" y="50.07000000000001"/>
      <point x="303.46" y="50.07000000000001" type="curve" smooth="yes"/>
      <point x="284.94" y="50.07000000000001"/>
      <point x="270.25" y="60.76"/>
      <point x="242.66" y="125.94" type="curve" smooth="yes"/>
      <point x="111.41" y="436.83" type="line"/>
      <point x="97.23" y="350.51" type="line"/>
      <point x="210.93" y="81.16" type="line" smooth="yes"/>
      <point x="241.44" y="5.2"/>
      <point x="257.12" y="-9.360000000000001"/>
    </contour>
    <contour>
      <point x="156.49" y="292.34" type="line"/>
      <point x="226.89000000000001" y="367.65999999999997"/>
      <point x="334.03000000000003" y="511.55"/>
      <point x="396.03999999999996" y="693.02" type="curve"/>
      <point x="354.22" y="708.4" type="line"/>
      <point x="290.15999999999997" y="532.47"/>
      <point x="196.52" y="402.73"/>
      <point x="137.78" y="338.06" type="curve"/>
    </contour>
  </outline>
</glyph>
<glyph name="L" format="2">
  <advance width="283.88"/>
  <unicode hex="004C"/>
  <anchor x="119.88" y="0.0" name="bottom"/>
  <anchor x="145.66611999999998" y="350.0" name="center"/>
  <anchor x="138.46" y="700.0" name="top"/>
  <anchor x="256.52" y="700.0" name="topright"/>
  <outline>
    <contour>
      <point x="2.5999999999999996" y="0.0" type="line"/>
      <point x="231.68" y="0.0" type="line"/>
      <point x="239.38" y="48.14" type="line"/>
      <point x="60.62" y="48.14" type="line"/>
      <point x="164.04" y="700.0" type="line"/>
      <point x="113.68" y="700.0" type="line"/>
    </contour>
  </outline>
</glyph>
<glyph name="M" format="2">
  <advance width="437.97"/>
  <unicode hex="004D"/>
  <outline>
    <contour>
      <point x="3.17" y="0.0" type="line"/>
      <point x="50.480000000000004" y="0.0" type="line"/>
      <point x="144.2" y="600.4300000000001" type="line"/>
      <point x="197.93" y="247.98" type="line"/>
      <point x="229.79999999999998" y="247.98" type="line"/>
      <point x="396.09" y="600.79" type="line"/>
      <point x="300.09" y="0.0" type="line"/>
      <point x="347.29" y="0.0" type="line"/>
      <point x="458.37" y="700.0" type="line"/>
      <point x="399.66" y="700.0" type="line"/>
      <point x="225.35000000000002" y="324.94" type="line"/>
      <point x="169.23" y="700.0" type="line"/>
      <point x="113.68" y="700.0" type="line"/>
    </contour>
  </outline>
</glyph>
<glyph name="N" format="2">
  <advance width="395.25"/>
  <unicode hex="004E"/>
  <anchor x="160.5" y="0.0" name="bottom"/>
  <anchor x="265.05" y="700.0" name="top"/>
  <outline>
    <contour>
      <point x="3.4" y="0.0" type="line"/>
      <point x="50.15" y="0.0" type="line"/>
      <point x="142.15" y="586.5999999999999" type="line"/>
      <point x="253.25" y="-0.8" type="line"/>
      <point x="304.55" y="-0.8" type="line"/>
      <point x="415.65" y="700.0" type="line"/>
      <point x="369.05" y="700.0" type="line"/>
      <point x="276.4" y="109.00000000000001" type="line"/>
      <point x="166.8" y="700.8" type="line"/>
      <point x="113.9" y="700.8" type="line"/>
    </contour>
  </outline>
</glyph>
<glyph name="O" format="2">
  <advance width="400.90000000000003"/>
  <unicode hex="004F"/>
  <note>
8
</note>
  <anchor x="158.55" y="0.0" name="bottom"/>
  <anchor x="214.25" y="350.0" name="center"/>
  <anchor x="205.20000000000002" y="0.7000000000000001" name="ogonek"/>
  <anchor x="271.15" y="700.0" name="top"/>
  <anchor x="89.80000000000001" y="700.0" name="topleft"/>
  <anchor x="340.5" y="695.95" name="topright"/>
  <outline>
    <contour>
      <point x="161.95" y="-9.7" type="curve" smooth="yes"/>
      <point x="316.05" y="-9.7"/>
      <point x="397.15" y="286.95"/>
      <point x="397.15" y="523.45" type="curve" smooth="yes"/>
      <point x="397.15" y="655.3"/>
      <point x="352.20000000000005" y="709.7"/>
      <point x="262.95" y="709.7" type="curve" smooth="yes"/>
      <point x="108.85000000000001" y="709.7"/>
      <point x="27.75" y="413.05"/>
      <point x="27.75" y="176.55" type="curve" smooth="yes"/>
      <point x="27.75" y="44.7"/>
      <point x="72.7" y="-9.7"/>
    </contour>
    <contour>
      <point x="165.95" y="39.300000000000004" type="curve" smooth="yes"/>
      <point x="107.89999999999999" y="39.300000000000004"/>
      <point x="78.85" y="75.85000000000001"/>
      <point x="78.85" y="175.7" type="curve" smooth="yes"/>
      <point x="78.85" y="378.5"/>
      <point x="152.65" y="660.7"/>
      <point x="259.05" y="660.7" type="curve" smooth="yes"/>
      <point x="317.0" y="660.7"/>
      <point x="346.05" y="624.15"/>
      <point x="346.05" y="524.3" type="curve" smooth="yes"/>
      <point x="346.05" y="321.5"/>
      <point x="272.25" y="39.300000000000004"/>
    </contour>
  </outline>
</glyph>
<glyph name="P" format="2">
  <advance width="348.2"/>
  <unicode hex="0050"/>
  <outline>
    <contour>
      <point x="3.55" y="0.0" type="line"/>
      <point x="53.85" y="0.0" type="line"/>
      <point x="95.95" y="264.0" type="line"/>
      <point x="116.55" y="262.2"/>
      <point x="130.04999999999998" y="262.0"/>
      <point x="169.2" y="262.0" type="curve" smooth="yes"/>
      <point x="291.75" y="262.0"/>
      <point x="366.4" y="382.75"/>
      <point x="366.59999999999997" y="561.1999999999999" type="curve" smooth="yes"/>
      <point x="366.59999999999997" y="665.4000000000001"/>
      <point x="323.25" y="710.0"/>
      <point x="223.95" y="710.0" type="curve" smooth="yes"/>
      <point x="197.5" y="710.0"/>
      <point x="162.2" y="707.8"/>
      <point x="114.65" y="703.15" type="curve"/>
    </contour>
    <contour>
      <point x="158.4" y="658.6" type="line"/>
      <point x="182.35" y="661.5999999999999"/>
      <point x="198.85" y="662.8"/>
      <point x="218.04999999999998" y="662.8" type="curve" smooth="yes"/>
      <point x="288.15000000000003" y="662.8"/>
      <point x="316.7" y="633.25"/>
      <point x="316.7" y="551.9000000000001" type="curve" smooth="yes"/>
      <point x="316.7" y="416.0"/>
      <point x="260.8" y="309.25"/>
      <point x="167.75" y="309.25" type="curve" smooth="yes"/>
      <point x="146.85" y="309.25"/>
      <point x="127.75" y="310.3"/>
      <point x="103.35000000000001" y="311.7" type="curve"/>
    </contour>
  </outline>
</glyph>
<glyph name="Q" format="2">
  <advance width="401.14"/>
  <unicode hex="0051"/>
  <note>
14
</note>
  <outline>
    <contour>
      <point x="274.84000000000003" y="-180.42" type="curve" smooth="yes"/>
      <point x="293.28" y="-180.42"/>
      <point x="313.3" y="-177.92"/>
      <point x="331.78" y="-170.5" type="curve"/>
      <point x="331.86" y="-126.12" type="line"/>
      <point x="317.4" y="-131.88"/>
      <point x="300.5" y="-134.68"/>
      <point x="284.24" y="-134.68" type="curve" smooth="yes"/>
      <point x="236.36" y="-134.68"/>
      <point x="194.78" y="-107.14"/>
      <point x="191.95999999999998" y="4.0200000000000005" type="curve"/>
      <point x="148.84000000000003" y="1.8199999999999998" type="line"/>
      <point x="151.94" y="-136.86"/>
      <point x="209.44" y="-180.42"/>
    </contour>
    <component base="O"/>
  </outline>
</glyph>
<glyph name="R" format="2">
  <advance width="358.1"/>
  <unicode hex="0052"/>
  <anchor x="153.0" y="0.0" name="bottom"/>
  <anchor x="227.65" y="700.0" name="top"/>
  <outline>
    <contour>
      <point x="3.1999999999999997" y="0.0" type="line"/>
      <point x="53.800000000000004" y="0.0" type="line"/>
      <point x="98.85000000000001" y="285.45" type="line"/>
      <point x="117.6" y="285.05"/>
      <point x="138.25" y="284.15"/>
      <point x="171.35" y="284.05" type="curve"/>
      <point x="173.9" y="284.95" type="line"/>
      <point x="286.95" y="285.2"/>
      <point x="366.55" y="392.9"/>
      <point x="366.55" y="557.1500000000001" type="curve" smooth="yes"/>
      <point x="366.55" y="661.9"/>
      <point x="323.2" y="710.0"/>
      <point x="223.04999999999998" y="710.0" type="curve" smooth="yes"/>
      <point x="187.0" y="710.0"/>
      <point x="154.2" y="707.6"/>
      <point x="114.6" y="702.95" type="curve"/>
    </contour>
    <contour>
      <point x="291.45" y="-10.0" type="curve" smooth="yes"/>
      <point x="299.4" y="-10.0"/>
      <point x="311.3" y="-6.85"/>
      <point x="316.05" y="-4.3" type="curve"/>
      <point x="317.4" y="46.3" type="line"/>
      <point x="312.7" y="44.7"/>
      <point x="309.55" y="44.7"/>
      <point x="307.35" y="44.7" type="curve" smooth="yes"/>
      <point x="281.05" y="45.3"/>
      <point x="262.9" y="74.39999999999999"/>
      <point x="218.55" y="313.90000000000003" type="curve"/>
      <point x="172.95" y="301.90000000000003" type="line"/>
      <point x="228.54999999999998" y="18.700000000000003"/>
      <point x="244.95000000000002" y="-10.0"/>
    </contour>
    <contour>
      <point x="174.2" y="330.9" type="curve" smooth="yes"/>
      <point x="145.75" y="330.9"/>
      <point x="126.0" y="331.29999999999995"/>
      <point x="106.64999999999999" y="332.79999999999995" type="curve"/>
      <point x="158.6" y="659.9000000000001" type="line"/>
      <point x="183.5" y="663.0500000000001"/>
      <point x="198.8" y="664.2"/>
      <point x="220.54999999999998" y="664.2" type="curve" smooth="yes"/>
      <point x="292.35" y="664.2"/>
      <point x="315.75" y="629.3"/>
      <point x="315.75" y="558.3" type="curve" smooth="yes"/>
      <point x="315.75" y="422.9"/>
      <point x="256.90000000000003" y="330.9"/>
    </contour>
  </outline>
</glyph>
<glyph name="S" format="2">
  <advance width="323.59999999999997"/>
  <unicode hex="0053"/>
  <anchor x="109.85" y="0.0" name="bottom"/>
  <anchor x="237.79999999999998" y="700.0" name="top"/>
  <outline>
    <contour>
      <point x="341.45" y="688.7" type="line"/>
      <point x="313.15" y="702.1999999999999"/>
      <point x="280.05" y="710.0"/>
      <point x="241.4" y="710.0" type="curve" smooth="yes"/>
      <point x="135.85" y="710.0"/>
      <point x="69.45" y="638.4499999999999"/>
      <point x="69.45" y="520.8" type="curve" smooth="yes"/>
      <point x="69.45" y="368.8"/>
      <point x="230.60000000000002" y="304.9"/>
      <point x="230.45000000000002" y="174.3" type="curve" smooth="yes"/>
      <point x="230.45000000000002" y="95.3"/>
      <point x="183.25" y="38.6"/>
      <point x="105.75" y="38.6" type="curve" smooth="yes"/>
      <point x="65.69999999999999" y="38.6"/>
      <point x="30.800000000000004" y="45.95"/>
      <point x="-1.7999999999999998" y="60.85" type="curve"/>
      <point x="-21.35" y="15.749999999999998" type="line"/>
      <point x="10.4" y="-0.85"/>
      <point x="55.8" y="-10.0"/>
      <point x="102.55" y="-10.0" type="curve" smooth="yes"/>
      <point x="213.7" y="-10.0"/>
      <point x="281.95" y="67.15"/>
      <point x="281.95" y="179.6" type="curve" smooth="yes"/>
      <point x="282.2" y="330.05"/>
      <point x="121.69999999999999" y="394.70000000000005"/>
      <point x="121.69999999999999" y="524.65" type="curve" smooth="yes"/>
      <point x="121.69999999999999" y="610.1"/>
      <point x="169.8" y="662.6"/>
      <point x="239.85000000000002" y="662.6" type="curve" smooth="yes"/>
      <point x="271.95000000000005" y="662.6"/>
      <point x="296.34999999999997" y="657.7"/>
      <point x="323.09999999999997" y="645.5" type="curve"/>
    </contour>
  </outline>
</glyph>
<glyph name="T" format="2">
  <advance width="306.64"/>
  <unicode hex="0054"/>
  <anchor x="109.39992" y="0.0" name="bottom"/>
  <anchor x="165.28853999999998" y="350.0" name="center"/>
  <anchor x="220.40138" y="700.0" name="top"/>
  <outline>
    <contour>
      <point x="359.98" y="653.24" type="line"/>
      <point x="367.66" y="700.0" type="line"/>
      <point x="73.3" y="700.0" type="line"/>
      <point x="65.6" y="653.24" type="line"/>
      <point x="187.40000000000003" y="653.24" type="line"/>
      <point x="83.80000000000001" y="0.0" type="line"/>
      <point x="134.16" y="0.0" type="line"/>
      <point x="237.73999999999998" y="653.24" type="line"/>
    </contour>
  </outline>
</glyph>
<glyph name="U" format="2">
  <advance width="385.78000000000003"/>
  <unicode hex="0055"/>
  <anchor x="149.0288" y="0.0" name="bottom"/>
  <anchor x="190.24" y="0.0" name="ogonek"/>
  <anchor x="258.24260000000004" y="700.0" name="top"/>
  <anchor x="405.02000000000004" y="700.0" name="topright"/>
  <outline>
    <contour>
      <point x="146.51999999999998" y="-10.0" type="curve" smooth="yes"/>
      <point x="248.96" y="-10.0"/>
      <point x="305.82000000000005" y="44.6"/>
      <point x="324.82" y="163.04" type="curve" smooth="yes"/>
      <point x="410.46000000000004" y="700.0" type="line"/>
      <point x="359.52" y="700.0" type="line"/>
      <point x="273.0" y="156.84" type="line" smooth="yes"/>
      <point x="260.72" y="77.2"/>
      <point x="222.73999999999998" y="37.08"/>
      <point x="155.98000000000002" y="37.08" type="curve" smooth="yes"/>
      <point x="92.64" y="37.08"/>
      <point x="61.599999999999994" y="75.9"/>
      <point x="72.56" y="142.68" type="curve" smooth="yes"/>
      <point x="159.86" y="700.0" type="line"/>
      <point x="109.64000000000001" y="700.0" type="line"/>
      <point x="22.64" y="145.83999999999997" type="line" smooth="yes"/>
      <point x="19.900000000000002" y="129.44"/>
      <point x="19.44" y="123.14000000000001"/>
      <point x="19.44" y="107.94" type="curve" smooth="yes"/>
      <point x="19.44" y="31.46"/>
      <point x="64.56" y="-10.0"/>
    </contour>
  </outline>
</glyph>
<glyph name="V" format="2">
  <advance width="347.66999999999996"/>
  <unicode hex="0056"/>
  <outline>
    <contour>
      <point x="159.07000000000002" y="0.0" type="line"/>
      <point x="340.5" y="450.37"/>
      <point x="384.55" y="565.4000000000001"/>
      <point x="390.1" y="665.0" type="curve" smooth="yes"/>
      <point x="390.3" y="677.22"/>
      <point x="389.7" y="687.2199999999999"/>
      <point x="387.37" y="700.0" type="curve"/>
      <point x="334.17" y="700.0" type="line"/>
      <point x="335.75" y="688.25"/>
      <point x="336.62000000000006" y="679.27"/>
      <point x="336.62000000000006" y="669.9" type="curve" smooth="yes"/>
      <point x="334.67" y="576.95"/>
      <point x="293.36" y="469.26000000000005"/>
      <point x="139.83999999999997" y="69.45" type="curve"/>
      <point x="129.35" y="700.8199999999999" type="line"/>
      <point x="73.10000000000001" y="700.2" type="line"/>
      <point x="95.22" y="0.0" type="line"/>
    </contour>
  </outline>
</glyph>
<glyph name="W" format="2">
  <advance width="552.3000000000001"/>
  <unicode hex="0057"/>
  <anchor x="229.04999999999998" y="0.0" name="bottom"/>
  <anchor x="347.95" y="700.0" name="top"/>
  <outline>
    <contour>
      <point x="375.4" y="-0.9" type="line"/>
      <point x="557.6" y="478.05"/>
      <point x="593.3000000000001" y="595.9499999999999"/>
      <point x="594.6999999999999" y="668.0" type="curve" smooth="yes"/>
      <point x="594.6999999999999" y="679.6"/>
      <point x="594.1" y="688.5"/>
      <point x="591.75" y="700.0" type="curve"/>
      <point x="539.1999999999999" y="700.0" type="line"/>
      <point x="540.8" y="689.3000000000001"/>
      <point x="542.3000000000001" y="680.65"/>
      <point x="542.3000000000001" y="670.3" type="curve" smooth="yes"/>
      <point x="540.8" y="588.25"/>
      <point x="514.1" y="500.5"/>
      <point x="358.34999999999997" y="78.4" type="curve"/>
      <point x="366.5" y="636.0" type="line"/>
      <point x="308.8" y="636.0" type="line"/>
      <point x="250.75" y="453.5"/>
      <point x="187.95" y="260.70000000000005"/>
      <point x="127.6" y="84.75" type="curve"/>
      <point x="128.4" y="700.0" type="line"/>
      <point x="74.75" y="700.0" type="line"/>
      <point x="81.10000000000001" y="-0.9" type="line"/>
      <point x="137.0" y="-0.9" type="line"/>
      <point x="203.0" y="188.79999999999998"/>
      <point x="265.4" y="369.8"/>
      <point x="323.9" y="548.4" type="curve"/>
      <point x="316.7" y="-0.9" type="line"/>
    </contour>
  </outline>
</glyph>
<glyph name="X" format="2">
  <advance width="366.3"/>
  <unicode hex="0058"/>
  <outline>
    <contour>
      <point x="273.5" y="-4.95" type="line"/>
      <point x="326.25" y="-0.5" type="line"/>
      <point x="225.4" y="341.85" type="line"/>
      <point x="322.0" y="482.3"/>
      <point x="391.85" y="589.8000000000001"/>
      <point x="397.15000000000003" y="700.3" type="curve"/>
      <point x="344.15" y="700.95" type="line"/>
      <point x="339.35" y="596.7"/>
      <point x="296.5" y="529.8"/>
      <point x="205.64999999999998" y="393.8" type="curve"/>
      <point x="118.60000000000001" y="705.35" type="line"/>
      <point x="68.35" y="700.3" type="line"/>
      <point x="164.65" y="361.9" type="line"/>
      <point x="69.85" y="230.75"/>
      <point x="-5.700000000000001" y="116.1"/>
      <point x="-7.500000000000001" y="0.0" type="curve"/>
      <point x="45.949999999999996" y="0.0" type="line"/>
      <point x="47.75" y="101.64999999999999"/>
      <point x="102.6" y="198.75"/>
      <point x="184.20000000000002" y="310.75" type="curve"/>
    </contour>
  </outline>
</glyph>
<glyph name="Y" format="2">
  <advance width="333.53"/>
  <unicode hex="0059"/>
  <anchor x="121.64999999999999" y="0.0" name="bottom"/>
  <anchor x="233.24999999999997" y="700.0" name="top"/>
  <anchor x="91.11" y="700.0" name="topleft"/>
  <outline>
    <contour>
      <point x="96.77000000000001" y="0.0" type="line"/>
      <point x="146.49" y="0.0" type="line"/>
      <point x="194.19" y="292.76000000000005" type="line"/>
      <point x="282.08000000000004" y="408.26"/>
      <point x="345.96000000000004" y="523.13"/>
      <point x="379.66999999999996" y="659.08" type="curve" smooth="yes"/>
      <point x="382.84" y="672.85"/>
      <point x="385.87" y="687.05"/>
      <point x="388.51000000000005" y="701.0699999999999" type="curve"/>
      <point x="333.54" y="704.4399999999999" type="line"/>
      <point x="331.29999999999995" y="691.21"/>
      <point x="328.92" y="678.05"/>
      <point x="325.97" y="664.8199999999999" type="curve" smooth="yes"/>
      <point x="300.15" y="546.6299999999999"/>
      <point x="254.15" y="447.08"/>
      <point x="178.11" y="346.51" type="curve"/>
      <point x="127.46000000000001" y="703.58" type="line"/>
      <point x="72.28999999999999" y="700.4" type="line"/>
      <point x="143.04" y="292.76000000000005" type="line"/>
    </contour>
  </outline>
</glyph>
<glyph name="Z" format="2">
  <advance width="322.2"/>
  <unicode hex="005A"/>
  <anchor x="120.45" y="0.0" name="bottom"/>
  <anchor x="170.35" y="350.0" name="center"/>
  <anchor x="229.29999999999998" y="700.0" name="top"/>
  <outline>
    <contour>
      <point x="-28.75" y="0.0" type="line"/>
      <point x="268.65000000000003" y="0.0" type="line"/>
      <point x="276.54999999999995" y="47.300000000000004" type="line"/>
      <point x="33.550000000000004" y="47.300000000000004" type="line"/>
      <point x="359.8" y="654.8" type="line"/>
      <point x="366.7" y="700.0" type="line"/>
      <point x="100.45" y="700.0" type="line"/>
      <point x="92.85" y="652.6999999999999" type="line"/>
      <point x="305.2" y="652.6999999999999" type="line"/>
      <point x="-21.25" y="44.4" type="line"/>
    </contour>
  </outline>
</glyph>
<glyph name="bracketleft" format="2">
  <advance width="206.46"/>
  <unicode hex="005B"/>
  <outline>
    <contour>
      <point x="28.040000000000003" y="-165.8" type="line"/>
      <point x="165.32" y="695.88" type="line"/>
      <point x="263.92" y="695.88" type="line"/>
      <point x="271.32" y="740.0" type="line"/>
      <point x="128.72" y="740.0" type="line"/>
      <point x="-22.62" y="-210.0" type="line"/>
      <point x="119.06" y="-210.0" type="line"/>
      <point x="126.64" y="-165.8" type="line"/>
    </contour>
  </outline>
</glyph>
<glyph name="backslash" format="2">
  <advance width="303.82000000000005"/>
  <unicode hex="005C"/>
  <outline>
    <contour>
      <point x="118.72" y="740.0" type="line"/>
      <point x="75.78" y="740.0" type="line"/>
      <point x="221.36" y="-210.0" type="line"/>
      <point x="264.12" y="-210.0" type="line"/>
    </contour>
  </outline>
</glyph>
<glyph name="bracketright" format="2">
  <advance width="206.46"/>
  <unicode hex="005D"/>
  <outline>
    <contour>
      <point x="-59.66" y="-165.8" type="line"/>
      <point x="-67.03999999999999" y="-210.0" type="line"/>
      <point x="73.84" y="-210.0" type="line"/>
      <point x="226.10000000000002" y="740.0" type="line"/>
      <point x="84.22000000000001" y="740.0" type="line"/>
      <point x="76.64" y="695.8" type="line"/>
      <point x="175.24" y="695.8" type="line"/>
      <point x="37.779999999999994" y="-165.8" type="line"/>
    </contour>
  </outline>
</glyph>
<glyph name="asciicircum" format="2">
  <advance width="369.56"/>
  <unicode hex="005E"/>
  <outline>
    <contour>
      <point x="38.08" y="270.56" type="line"/>
      <point x="77.98" y="270.56" type="line"/>
      <point x="243.77999999999997" y="652.22" type="line"/>
      <point x="291.08000000000004" y="270.56" type="line"/>
      <point x="330.64" y="270.56" type="line"/>
      <point x="275.24" y="708.0" type="line"/>
      <point x="227.74" y="708.0" type="line"/>
    </contour>
  </outline>
</glyph>
<glyph name="underscore" format="2">
  <advance width="595.1599999999999"/>
  <unicode hex="005F"/>
  <outline>
    <contour>
      <point x="-65.16000000000001" y="-150.62" type="line"/>
      <point x="525.16" y="-150.62" type="line"/>
      <point x="533.32" y="-101.18" type="line"/>
      <point x="-57.00000000000001" y="-101.18" type="line"/>
    </contour>
  </outline>
</glyph>
<glyph name="a" format="2">
  <advance width="334.97999999999996"/>
  <unicode hex="0061"/>
  <note>
15
</note>
  <anchor x="128.85" y="0.0" name="bottom"/>
  <anchor x="302.6000000000001" y="2.6" name="ogonek"/>
  <anchor x="217.98000000000002" y="534.0" name="top"/>
  <outline>
    <contour>
      <point x="253.44" y="-10.0" type="curve" smooth="yes"/>
      <point x="271.09999999999997" y="-10.0"/>
      <point x="289.34999999999997" y="-5.02"/>
      <point x="302.66" y="2.42" type="curve"/>
      <point x="302.89000000000004" y="43.599999999999994" type="line"/>
      <point x="292.76000000000005" y="39.46000000000001"/>
      <point x="284.43" y="37.17"/>
      <point x="275.59000000000003" y="37.17" type="curve" smooth="yes"/>
      <point x="259.63" y="37.17"/>
      <point x="253.28999999999996" y="45.790000000000006"/>
      <point x="253.28999999999996" y="63.45" type="curve" smooth="yes"/>
      <point x="253.28999999999996" y="70.94"/>
      <point x="259.92" y="114.27000000000001"/>
      <point x="325.0199999999999" y="521.62" type="curve"/>
      <point x="299.17" y="534.9499999999999"/>
      <point x="264.93" y="544.0"/>
      <point x="230.82" y="544.0" type="curve" smooth="yes"/>
      <point x="101.50999999999999" y="544.0"/>
      <point x="18.119999999999997" y="384.09"/>
      <point x="18.119999999999997" y="146.53" type="curve" smooth="yes"/>
      <point x="18.119999999999997" y="43.739999999999995"/>
      <point x="53.35" y="-10.0"/>
      <point x="117.86000000000001" y="-10.0" type="curve" smooth="yes"/>
      <point x="152.31" y="-10.0"/>
      <point x="181.33999999999997" y="3.2199999999999998"/>
      <point x="204.43999999999997" y="22.810000000000002" type="curve"/>
      <point x="211.54999999999998" y="2.6399999999999997"/>
      <point x="228.74" y="-10.0"/>
    </contour>
    <contour>
      <point x="202.05" y="61.35" type="line"/>
      <point x="183.48999999999998" y="47.61000000000001"/>
      <point x="157.65000000000003" y="38.36"/>
      <point x="134.11999999999998" y="38.36" type="curve" smooth="yes"/>
      <point x="93.44000000000001" y="38.36"/>
      <point x="70.03" y="77.88000000000001"/>
      <point x="70.03" y="153.59" type="curve" smooth="yes"/>
      <point x="70.03" y="360.5"/>
      <point x="138.52" y="498.73999999999995"/>
      <point x="225.17000000000002" y="498.73999999999995" type="curve" smooth="yes"/>
      <point x="243.03" y="498.73999999999995"/>
      <point x="257.32000000000005" y="495.49"/>
      <point x="269.09999999999997" y="488.7" type="curve"/>
    </contour>
  </outline>
</glyph>
<glyph name="b" format="2">
  <advance width="336.72"/>
  <unicode hex="0062"/>
  <note>
12
</note>
  <outline>
    <contour>
      <point x="172.40999999999997" y="740.0" type="line"/>
      <point x="122.36" y="740.0" type="line"/>
      <point x="6.92" y="8.459999999999999" type="line"/>
      <point x="35.13" y="-2.67"/>
      <point x="65.13" y="-10.0"/>
      <point x="102.92999999999999" y="-10.0" type="curve" smooth="yes"/>
      <point x="243.09000000000003" y="-10.0"/>
      <point x="318.43" y="194.32"/>
      <point x="318.08" y="385.98" type="curve" smooth="yes"/>
      <point x="317.93" y="494.56"/>
      <point x="286.25" y="544.0"/>
      <point x="221.73" y="544.0" type="curve" smooth="yes"/>
      <point x="191.24" y="544.0"/>
      <point x="164.72000000000003" y="532.86"/>
      <point x="136.45" y="515.6199999999999" type="curve"/>
    </contour>
    <contour>
      <point x="202.89000000000001" y="495.36999999999995" type="curve" smooth="yes"/>
      <point x="250.78" y="495.36999999999995"/>
      <point x="267.28000000000003" y="446.86999999999995"/>
      <point x="267.28000000000003" y="379.58000000000004" type="curve" smooth="yes"/>
      <point x="267.28000000000003" y="212.42000000000002"/>
      <point x="204.95" y="35.33"/>
      <point x="109.05" y="35.33" type="curve" smooth="yes"/>
      <point x="91.61999999999999" y="35.33"/>
      <point x="75.0" y="38.870000000000005"/>
      <point x="62.75" y="44.42" type="curve"/>
      <point x="129.45000000000002" y="469.28000000000003" type="line"/>
      <point x="151.72" y="485.24000000000007"/>
      <point x="181.11" y="495.36999999999995"/>
    </contour>
  </outline>
</glyph>
<glyph name="c" format="2">
  <advance width="269.3"/>
  <unicode hex="0063"/>
  <note>
10
</note>
  <anchor x="133.95999999999998" y="0.0" name="bottom"/>
  <anchor x="216.10000000000002" y="534.0" name="top"/>
  <outline>
    <contour>
      <point x="136.61999999999998" y="-10.0" type="curve" smooth="yes"/>
      <point x="168.78" y="-10.0"/>
      <point x="198.88" y="-4.54"/>
      <point x="222.0" y="3.88" type="curve"/>
      <point x="215.78" y="46.9" type="line"/>
      <point x="197.32" y="41.52000000000001"/>
      <point x="173.35999999999999" y="37.620000000000005"/>
      <point x="149.86" y="37.620000000000005" type="curve" smooth="yes"/>
      <point x="96.1" y="37.620000000000005"/>
      <point x="67.72000000000001" y="76.7"/>
      <point x="67.72000000000001" y="151.01999999999998" type="curve" smooth="yes"/>
      <point x="67.72000000000001" y="328.28000000000003"/>
      <point x="135.01999999999998" y="495.2"/>
      <point x="219.92" y="495.2" type="curve" smooth="yes"/>
      <point x="241.96" y="495.2"/>
      <point x="258.78" y="492.98"/>
      <point x="280.58" y="485.68" type="curve"/>
      <point x="297.52" y="532.4" type="line"/>
      <point x="272.2" y="540.3000000000001"/>
      <point x="248.92" y="544.0"/>
      <point x="222.72" y="544.0" type="curve" smooth="yes"/>
      <point x="99.32000000000001" y="544.0"/>
      <point x="17.459999999999997" y="362.98"/>
      <point x="17.459999999999997" y="139.08" type="curve" smooth="yes"/>
      <point x="17.459999999999997" y="43.6"/>
      <point x="59.84" y="-10.0"/>
    </contour>
  </outline>
</glyph>
<glyph name="d" format="2">
  <advance width="334.70000000000005"/>
  <unicode hex="0064"/>
  <note>
17
</note>
  <anchor x="126.00999999999999" y="0.0" name="bottom"/>
  <anchor x="173.01" y="343.34999999999997" name="center"/>
  <anchor x="230.8" y="740.0" name="top"/>
  <anchor x="418.15" y="740.0" name="topright"/>
  <outline>
    <contour>
      <point x="251.79000000000002" y="-10.0" type="curve" smooth="yes"/>
      <point x="267.16999999999996" y="-10.0"/>
      <point x="285.51" y="-5.8599999999999985"/>
      <point x="300.6700000000001" y="2.42" type="curve"/>
      <point x="300.61999999999995" y="43.6" type="line"/>
      <point x="291.81999999999994" y="40.150000000000006"/>
      <point x="282.2600000000001" y="37.17000000000001"/>
      <point x="272.72999999999996" y="37.17000000000001" type="curve" smooth="yes"/>
      <point x="258.37" y="37.17000000000001"/>
      <point x="251.27" y="45.00000000000001"/>
      <point x="251.27" y="61.91000000000001" type="curve" smooth="yes"/>
      <point x="251.27" y="71.89000000000001"/>
      <point x="283.83" y="271.51000000000005"/>
      <point x="357.9" y="740.0" type="curve"/>
      <point x="307.9" y="740.0" type="line"/>
      <point x="274.97" y="533.02" type="line"/>
      <point x="255.34000000000003" y="539.74"/>
      <point x="236.53" y="544.0"/>
      <point x="213.56" y="544.0" type="curve" smooth="yes"/>
      <point x="96.1" y="544.0"/>
      <point x="16.94" y="365.97999999999996"/>
      <point x="16.94" y="136.86999999999995" type="curve" smooth="yes"/>
      <point x="16.94" y="38.540000000000006"/>
      <point x="52.559999999999995" y="-10.0"/>
      <point x="115.67000000000002" y="-10.0" type="curve" smooth="yes"/>
      <point x="148.60000000000002" y="-10.0"/>
      <point x="181.64000000000001" y="5.95"/>
      <point x="202.21" y="24.810000000000002" type="curve"/>
      <point x="210.07000000000002" y="1.8"/>
      <point x="225.9" y="-10.0"/>
    </contour>
    <contour>
      <point x="131.45000000000002" y="39.15000000000001" type="curve" smooth="yes"/>
      <point x="91.16" y="39.15000000000001"/>
      <point x="67.40999999999998" y="75.95999999999998"/>
      <point x="67.40999999999998" y="135.46" type="curve" smooth="yes"/>
      <point x="67.40999999999998" y="324.26000000000005"/>
      <point x="128.10999999999999" y="498.7399999999999"/>
      <point x="220.22000000000003" y="498.7399999999999" type="curve" smooth="yes"/>
      <point x="238.53" y="498.7399999999999"/>
      <point x="252.06" y="495.21000000000004"/>
      <point x="268.02" y="490.35" type="curve"/>
      <point x="200.69" y="62.660000000000004" type="line"/>
      <point x="182.01000000000002" y="48.06000000000001"/>
      <point x="157.97000000000003" y="39.15000000000001"/>
    </contour>
  </outline>
</glyph>
<glyph name="e" format="2">
  <advance width="308.79999999999995"/>
  <unicode hex="0065"/>
  <note>
14 points
</note>
  <anchor x="148.48000000000002" y="0.0" name="bottom"/>
  <anchor x="222.26" y="1.3800000000000001" name="ogonek"/>
  <anchor x="219.94" y="535.4799999999999" name="top"/>
  <outline>
    <contour>
      <point x="62.64" y="274.1" type="curve"/>
      <point x="55.279999999999994" y="232.76" type="line"/>
      <point x="87.9" y="235.4"/>
      <point x="124.58000000000001" y="243.1"/>
      <point x="159.10000000000002" y="256.2" type="curve" smooth="yes"/>
      <point x="254.9" y="292.68"/>
      <point x="320.0" y="365.96000000000004"/>
      <point x="320.0" y="455.21999999999997" type="curve" smooth="yes"/>
      <point x="320.0" y="508.15999999999997"/>
      <point x="289.3" y="544.0"/>
      <point x="228.95999999999998" y="544.0" type="curve" smooth="yes"/>
      <point x="102.60000000000001" y="544.0"/>
      <point x="21.26" y="388.71999999999997"/>
      <point x="21.26" y="176.06" type="curve" smooth="yes"/>
      <point x="21.26" y="56.839999999999996"/>
      <point x="64.91999999999999" y="-10.0"/>
      <point x="149.88000000000002" y="-10.0" type="curve" smooth="yes"/>
      <point x="186.14000000000001" y="-10.0"/>
      <point x="228.8" y="-0.9400000000000002"/>
      <point x="260.1" y="16.34" type="curve"/>
      <point x="249.49999999999997" y="60.62" type="line"/>
      <point x="215.58" y="44.980000000000004"/>
      <point x="184.94000000000003" y="38.22"/>
      <point x="155.78000000000003" y="38.22" type="curve" smooth="yes"/>
      <point x="100.38" y="38.22"/>
      <point x="69.32" y="88.89999999999999"/>
      <point x="69.32" y="182.6" type="curve" smooth="yes"/>
      <point x="69.32" y="366.62"/>
      <point x="138.48000000000002" y="499.18"/>
      <point x="220.88" y="499.18" type="curve" smooth="yes"/>
      <point x="253.58" y="499.18"/>
      <point x="272.94" y="481.76000000000005"/>
      <point x="272.94" y="445.28000000000003" type="curve" smooth="yes"/>
      <point x="272.94" y="382.04"/>
      <point x="224.14000000000001" y="327.02"/>
      <point x="151.35999999999999" y="296.59999999999997" type="curve" smooth="yes"/>
      <point x="122.46" y="284.59999999999997"/>
      <point x="92.32000000000001" y="276.68"/>
    </contour>
  </outline>
</glyph>
<glyph name="f" format="2">
  <advance width="210.46"/>
  <unicode hex="0066"/>
  <outline>
    <contour>
      <point x="-61.68000000000001" y="-220.0" type="curve" smooth="yes"/>
      <point x="12.92" y="-220.0"/>
      <point x="49.940000000000005" y="-162.68"/>
      <point x="67.82000000000001" y="-48.96" type="curve" smooth="yes"/>
      <point x="146.22" y="446.32" type="line"/>
      <point x="240.48" y="446.32" type="line"/>
      <point x="247.78" y="492.1" type="line"/>
      <point x="153.5" y="492.1" type="line"/>
      <point x="177.06" y="642.8599999999999"/>
      <point x="209.78" y="700.6"/>
      <point x="270.17999999999995" y="700.6" type="curve" smooth="yes"/>
      <point x="288.90000000000003" y="700.6"/>
      <point x="307.0" y="696.5999999999999"/>
      <point x="324.38" y="691.6" type="curve"/>
      <point x="339.78" y="736.1" type="line"/>
      <point x="315.70000000000005" y="745.0799999999999"/>
      <point x="293.64000000000004" y="750.0"/>
      <point x="268.97999999999996" y="750.0" type="curve" smooth="yes"/>
      <point x="181.92" y="750.0"/>
      <point x="131.76000000000002" y="675.8399999999999"/>
      <point x="103.4" y="492.1" type="curve"/>
      <point x="42.5" y="485.72" type="line"/>
      <point x="36.059999999999995" y="446.32" type="line"/>
      <point x="96.10000000000001" y="446.32" type="line"/>
      <point x="18.560000000000002" y="-45.16" type="line" smooth="yes"/>
      <point x="5.76" y="-125.48"/>
      <point x="-15.600000000000001" y="-172.06"/>
      <point x="-67.38" y="-172.06" type="curve" smooth="yes"/>
      <point x="-80.16" y="-172.06"/>
      <point x="-91.36" y="-170.34"/>
      <point x="-107.11999999999999" y="-165.21999999999997" type="curve"/>
      <point x="-119.82000000000001" y="-210.38" type="line"/>
      <point x="-101.54" y="-217.07999999999998"/>
      <point x="-83.12" y="-220.0"/>
    </contour>
  </outline>
</glyph>
<glyph name="g" format="2">
  <advance width="332.52"/>
  <unicode hex="0067"/>
  <note>
16
</note>
  <anchor x="82.3" y="-212.6" name="bottom"/>
  <anchor x="214.92000000000002" y="534.0" name="top"/>
  <outline>
    <contour>
      <point x="-9.02" y="-202.71999999999997" type="line"/>
      <point x="19.58" y="-214.28"/>
      <point x="52.68" y="-220.0"/>
      <point x="83.10000000000001" y="-220.0" type="curve" smooth="yes"/>
      <point x="166.93999999999997" y="-220.0"/>
      <point x="214.18000000000004" y="-165.38"/>
      <point x="233.26000000000002" y="-43.12" type="curve" smooth="yes"/>
      <point x="324.64" y="524.5200000000001" type="line"/>
      <point x="299.88000000000005" y="535.8"/>
      <point x="265.48" y="544.0"/>
      <point x="233.95999999999998" y="544.0" type="curve" smooth="yes"/>
      <point x="87.92" y="544.0"/>
      <point x="17.08" y="351.58000000000004"/>
      <point x="17.08" y="145.50000000000003" type="curve" smooth="yes"/>
      <point x="17.08" y="51.76"/>
      <point x="50.02" y="-6.1"/>
      <point x="112.80000000000001" y="-6.1" type="curve" smooth="yes"/>
      <point x="137.94" y="-6.1"/>
      <point x="168.42000000000002" y="2.66"/>
      <point x="194.04" y="19.96" type="curve"/>
      <point x="184.94" y="-41.800000000000004" type="line" smooth="yes"/>
      <point x="170.4" y="-137.15999999999997"/>
      <point x="138.32000000000002" y="-173.04000000000002"/>
      <point x="81.64000000000001" y="-173.04000000000002" type="curve" smooth="yes"/>
      <point x="57.839999999999996" y="-173.04000000000002"/>
      <point x="29.360000000000003" y="-167.46"/>
      <point x="5.080000000000001" y="-158.44" type="curve"/>
    </contour>
    <contour>
      <point x="268.64" y="490.74" type="curve"/>
      <point x="200.96" y="64.7" type="line"/>
      <point x="184.1" y="50.7"/>
      <point x="154.3" y="40.260000000000005"/>
      <point x="133.44" y="40.260000000000005" type="curve" smooth="yes"/>
      <point x="92.54" y="40.260000000000005"/>
      <point x="68.54" y="79.82000000000001"/>
      <point x="68.54" y="153.79999999999998" type="curve" smooth="yes"/>
      <point x="68.54" y="327.16"/>
      <point x="130.81999999999996" y="500.08"/>
      <point x="225.32" y="500.08" type="curve" smooth="yes"/>
      <point x="240.85999999999999" y="500.08"/>
      <point x="255.04" y="495.96000000000004"/>
    </contour>
  </outline>
</glyph>
<glyph name="h" format="2">
  <advance width="341.6"/>
  <unicode hex="0068"/>
  <note>
16
</note>
  <anchor x="131.42000000000002" y="0.0" name="bottom"/>
  <anchor x="186.83" y="370.5" name="center"/>
  <anchor x="247.04" y="740.0" name="top"/>
  <outline>
    <contour>
      <point x="259.86999999999995" y="62.330000000000005" type="curve" smooth="yes"/>
      <point x="259.86999999999995" y="90.88"/>
      <point x="319.61" y="431.23999999999995"/>
      <point x="319.61" y="462.0" type="curve" smooth="yes"/>
      <point x="319.61" y="510.52"/>
      <point x="296.86000000000007" y="544.0"/>
      <point x="242.34000000000003" y="544.0" type="curve" smooth="yes"/>
      <point x="205.89" y="544.0"/>
      <point x="169.59" y="530.6999999999999"/>
      <point x="136.07999999999998" y="510.57" type="curve"/>
      <point x="172.47" y="740.0" type="line"/>
      <point x="122.32000000000002" y="740.0" type="line"/>
      <point x="5.07" y="0.0" type="line"/>
      <point x="55.22" y="0.0" type="line"/>
      <point x="128.89" y="466.4" type="line"/>
      <point x="155.59000000000003" y="483.41999999999996"/>
      <point x="189.57999999999998" y="495.79"/>
      <point x="215.44" y="495.79" type="curve" smooth="yes"/>
      <point x="255.26000000000002" y="495.79"/>
      <point x="266.4600000000001" y="472.93"/>
      <point x="266.4600000000001" y="442.98999999999995" type="curve" smooth="yes"/>
      <point x="266.4600000000001" y="414.82"/>
      <point x="208.30999999999997" y="81.0"/>
      <point x="208.30999999999997" y="42.629999999999995" type="curve" smooth="yes"/>
      <point x="208.30999999999997" y="10.02"/>
      <point x="231.53000000000003" y="-10.0"/>
      <point x="262.53" y="-10.0" type="curve" smooth="yes"/>
      <point x="276.81" y="-10.0"/>
      <point x="291.97" y="-7.19"/>
      <point x="307.73999999999995" y="1.2100000000000004" type="curve"/>
      <point x="308.54" y="43.34" type="line"/>
      <point x="298.13" y="39.14"/>
      <point x="290.82000000000005" y="38.07000000000001"/>
      <point x="284.7200000000001" y="38.07000000000001" type="curve" smooth="yes"/>
      <point x="266.94000000000005" y="38.07000000000001"/>
      <point x="259.86999999999995" y="46.68"/>
    </contour>
  </outline>
</glyph>
<glyph name="i" format="2">
  <advance width="148.37999999999997"/>
  <unicode hex="0069"/>
  <note>
Ajuster pts sur points
8
</note>
  <anchor x="29.88888" y="0.0" name="bottom"/>
  <anchor x="55.32" y="0.0" name="ogonek"/>
  <anchor x="114.57112000000001" y="534.0" name="top"/>
  <outline>
    <contour>
      <point x="5.979999999999999" y="0.0" type="line"/>
      <point x="55.32" y="0.0" type="line"/>
      <point x="139.89999999999998" y="534.0" type="line"/>
      <point x="89.88" y="534.0" type="line"/>
    </contour>
    <contour>
      <point x="146.32" y="726.0" type="curve" smooth="yes"/>
      <point x="118.25999999999999" y="726.0"/>
      <point x="111.03999999999999" y="710.6"/>
      <point x="108.8" y="677.0999999999999" type="curve" smooth="yes"/>
      <point x="108.08" y="660.0799999999999"/>
      <point x="117.74" y="654.62"/>
      <point x="133.42" y="654.62" type="curve" smooth="yes"/>
      <point x="161.5" y="654.62"/>
      <point x="168.76000000000002" y="670.1"/>
      <point x="171.08" y="703.8000000000001" type="curve" smooth="yes"/>
      <point x="171.79999999999998" y="720.72"/>
      <point x="162.20000000000002" y="726.0"/>
    </contour>
  </outline>
</glyph>
<glyph name="j" format="2">
  <advance width="155.95999999999998"/>
  <unicode hex="006A"/>
  <note>
idem /i
12
</note>
  <outline>
    <contour>
      <point x="153.92000000000002" y="726.0" type="curve" smooth="yes"/>
      <point x="125.83999999999999" y="726.0"/>
      <point x="118.8" y="710.6"/>
      <point x="116.56" y="677.0999999999999" type="curve" smooth="yes"/>
      <point x="115.84" y="660.0799999999999"/>
      <point x="125.53999999999999" y="654.62"/>
      <point x="141.22" y="654.62" type="curve" smooth="yes"/>
      <point x="168.88" y="654.62"/>
      <point x="176.2" y="670.1"/>
      <point x="178.52" y="703.8000000000001" type="curve" smooth="yes"/>
      <point x="179.24" y="720.72"/>
      <point x="169.79999999999998" y="726.0"/>
    </contour>
    <contour>
      <point x="147.7" y="534.0" type="line"/>
      <point x="97.48" y="534.0" type="line"/>
      <point x="5.04" y="-50.440000000000005" type="line" smooth="yes"/>
      <point x="-6.82" y="-124.89999999999999"/>
      <point x="-27.72" y="-172.06"/>
      <point x="-78.5" y="-172.06" type="curve" smooth="yes"/>
      <point x="-92.10000000000001" y="-172.06"/>
      <point x="-103.86" y="-170.44"/>
      <point x="-119.96" y="-165.01999999999998" type="curve"/>
      <point x="-131.82" y="-210.82" type="line"/>
      <point x="-113.67999999999999" y="-217.52"/>
      <point x="-92.26" y="-220.0"/>
      <point x="-72.99999999999999" y="-220.0" type="curve" smooth="yes"/>
      <point x="2.320000000000002" y="-220.0"/>
      <point x="37.260000000000005" y="-163.86"/>
      <point x="54.36000000000001" y="-54.339999999999996" type="curve" smooth="yes"/>
    </contour>
  </outline>
</glyph>
<glyph name="k" format="2">
  <advance width="319.5"/>
  <unicode hex="006B"/>
  <anchor x="135.95000000000002" y="0.0" name="bottom"/>
  <anchor x="148.05" y="740.0" name="top"/>
  <outline>
    <contour>
      <point x="5.35" y="0.0" type="line"/>
      <point x="55.650000000000006" y="0.0" type="line"/>
      <point x="172.75" y="740.0" type="line"/>
      <point x="122.35000000000001" y="740.0" type="line"/>
    </contour>
    <contour>
      <point x="266.84999999999997" y="-10.0" type="curve" smooth="yes"/>
      <point x="275.25" y="-10.0"/>
      <point x="283.65" y="-8.75"/>
      <point x="292.65" y="-5.05" type="curve"/>
      <point x="295.45" y="43.900000000000006" type="line"/>
      <point x="289.05" y="42.300000000000004"/>
      <point x="283.7" y="41.7"/>
      <point x="279.05" y="42.0" type="curve" smooth="yes"/>
      <point x="252.15" y="43.5"/>
      <point x="227.95000000000002" y="73.6"/>
      <point x="177.85" y="186.04999999999998" type="curve" smooth="yes"/>
      <point x="102.45" y="352.3" type="line"/>
      <point x="86.60000000000001" y="284.8" type="line"/>
      <point x="158.55" y="122.0" type="line" smooth="yes"/>
      <point x="202.54999999999998" y="22.0"/>
      <point x="228.3" y="-10.0"/>
    </contour>
    <contour>
      <point x="145.0" y="244.0" type="line"/>
      <point x="227.3" y="309.59999999999997"/>
      <point x="301.05" y="418.7"/>
      <point x="341.9" y="534.5" type="curve"/>
      <point x="294.84999999999997" y="543.4" type="line"/>
      <point x="251.6" y="424.35"/>
      <point x="197.4" y="345.1"/>
      <point x="120.35" y="281.85" type="curve"/>
    </contour>
  </outline>
</glyph>
<glyph name="l" format="2">
  <advance width="161.06"/>
  <unicode hex="006C"/>
  <anchor x="72.67999999999999" y="0.0" name="bottom"/>
  <anchor x="91.02012" y="370.5" name="center"/>
  <anchor x="147.04000000000002" y="740.0" name="top"/>
  <anchor x="232.70000000000002" y="740.0" name="topright"/>
  <outline>
    <contour>
      <point x="122.34" y="740.0" type="line"/>
      <point x="17.28" y="76.8" type="line" smooth="yes"/>
      <point x="15.940000000000003" y="67.16"/>
      <point x="14.64" y="56.120000000000005"/>
      <point x="14.64" y="46.82" type="curve" smooth="yes"/>
      <point x="14.64" y="11.620000000000001"/>
      <point x="31.560000000000002" y="-10.0"/>
      <point x="72.76" y="-10.0" type="curve" smooth="yes"/>
      <point x="91.08" y="-10.0"/>
      <point x="113.0" y="-5.28"/>
      <point x="129.26000000000002" y="2.0000000000000004" type="curve"/>
      <point x="129.94" y="44.28" type="line"/>
      <point x="115.58" y="39.760000000000005"/>
      <point x="104.3" y="37.74"/>
      <point x="95.04" y="37.74" type="curve" smooth="yes"/>
      <point x="72.89999999999999" y="37.74"/>
      <point x="66.39999999999999" y="47.74"/>
      <point x="66.39999999999999" y="62.059999999999995" type="curve" smooth="yes"/>
      <point x="66.39999999999999" y="73.21999999999998"/>
      <point x="69.06" y="86.60000000000001"/>
      <point x="72.32000000000001" y="107.58000000000001" type="curve" smooth="yes"/>
      <point x="172.46" y="740.0" type="line"/>
    </contour>
  </outline>
</glyph>
<glyph name="m" format="2">
  <advance width="511.22"/>
  <unicode hex="006D"/>
  <note>
24&gt;23 points
un point de trop dans la jointure avec 2e jambage
</note>
  <outline>
    <contour>
      <point x="431.68" y="-10.0" type="curve" smooth="yes"/>
      <point x="445.91999999999996" y="-10.0"/>
      <point x="462.08000000000004" y="-7.24"/>
      <point x="477.38" y="1.1800000000000004" type="curve"/>
      <point x="478.14" y="43.160000000000004" type="line"/>
      <point x="467.8" y="38.96"/>
      <point x="460.4" y="37.980000000000004"/>
      <point x="454.31999999999994" y="37.980000000000004" type="curve" smooth="yes"/>
      <point x="436.56000000000006" y="37.980000000000004"/>
      <point x="428.76" y="47.06000000000001"/>
      <point x="428.76" y="63.260000000000005" type="curve" smooth="yes"/>
      <point x="428.76" y="95.08"/>
      <point x="488.64000000000004" y="432.44"/>
      <point x="488.64000000000004" y="463.02000000000004" type="curve" smooth="yes"/>
      <point x="488.64000000000004" y="510.08000000000004"/>
      <point x="466.54" y="544.0"/>
      <point x="411.90000000000003" y="544.0" type="curve" smooth="yes"/>
      <point x="379.58000000000004" y="544.0"/>
      <point x="340.20000000000005" y="531.88"/>
      <point x="300.08" y="502.70000000000005" type="curve"/>
      <point x="289.22" y="528.12"/>
      <point x="265.21999999999997" y="544.0"/>
      <point x="231.26" y="544.0" type="curve" smooth="yes"/>
      <point x="199.3" y="544.0"/>
      <point x="164.92000000000002" y="530.3"/>
      <point x="131.42000000000002" y="508.64000000000004" type="curve"/>
      <point x="135.9" y="534.0" type="line"/>
      <point x="89.14" y="534.0" type="line"/>
      <point x="4.62" y="0.0" type="line"/>
      <point x="54.660000000000004" y="0.0" type="line"/>
      <point x="128.32" y="467.47999999999996" type="line"/>
      <point x="153.35999999999999" y="484.58"/>
      <point x="181.78" y="495.8"/>
      <point x="207.56" y="495.8" type="curve" smooth="yes"/>
      <point x="242.18" y="495.8"/>
      <point x="255.7" y="473.9"/>
      <point x="255.7" y="444.78000000000003" type="curve" smooth="yes"/>
      <point x="255.7" y="417.44"/>
      <point x="195.98" y="58.47999999999999"/>
      <point x="186.82000000000002" y="0.0" type="curve"/>
      <point x="237.32000000000002" y="0.0" type="line"/>
      <point x="245.16" y="50.480000000000004"/>
      <point x="301.62" y="398.84"/>
      <point x="305.54" y="446.92" type="curve" smooth="yes"/>
      <point x="305.74" y="452.92"/>
      <point x="305.38" y="460.09999999999997"/>
      <point x="304.7" y="465.16" type="curve"/>
      <point x="329.1" y="482.16"/>
      <point x="358.20000000000005" y="495.74"/>
      <point x="387.91999999999996" y="495.74" type="curve" smooth="yes"/>
      <point x="423.58" y="495.74"/>
      <point x="435.32000000000005" y="472.88"/>
      <point x="435.32000000000005" y="442.46" type="curve" smooth="yes"/>
      <point x="435.32000000000005" y="412.52"/>
      <point x="377.26" y="82.6"/>
      <point x="377.26" y="43.16" type="curve" smooth="yes"/>
      <point x="377.26" y="8.92"/>
      <point x="400.72" y="-10.0"/>
    </contour>
  </outline>
</glyph>
<glyph name="n" format="2">
  <advance width="340.15999999999997"/>
  <unicode hex="006E"/>
  <note>
16
</note>
  <anchor x="139.26" y="0.0" name="bottom"/>
  <anchor x="208.26000000000002" y="534.0" name="top"/>
  <outline>
    <contour>
      <point x="89.14" y="534.0" type="line"/>
      <point x="4.62" y="0.0" type="line"/>
      <point x="54.64" y="0.0" type="line"/>
      <point x="128.42000000000002" y="466.5" type="line"/>
      <point x="155.32" y="483.64"/>
      <point x="188.14" y="496.52"/>
      <point x="214.28" y="496.52" type="curve" smooth="yes"/>
      <point x="253.96" y="496.52"/>
      <point x="266.0" y="473.02000000000004"/>
      <point x="266.0" y="442.56" type="curve" smooth="yes"/>
      <point x="266.0" y="412.70000000000005"/>
      <point x="207.92000000000002" y="82.8"/>
      <point x="207.92000000000002" y="41.72" type="curve" smooth="yes"/>
      <point x="207.92000000000002" y="10.179999999999998"/>
      <point x="230.01999999999998" y="-10.0"/>
      <point x="260.98" y="-10.0" type="curve" smooth="yes"/>
      <point x="275.22" y="-10.0"/>
      <point x="291.02" y="-7.24"/>
      <point x="306.32" y="1.1800000000000004" type="curve"/>
      <point x="307.08" y="43.160000000000004" type="line"/>
      <point x="296.73999999999995" y="38.96"/>
      <point x="289.34" y="37.980000000000004"/>
      <point x="283.26000000000005" y="37.980000000000004" type="curve" smooth="yes"/>
      <point x="265.5" y="37.980000000000004"/>
      <point x="259.06" y="46.599999999999994"/>
      <point x="259.06" y="62.260000000000005" type="curve" smooth="yes"/>
      <point x="259.06" y="90.83999999999999"/>
      <point x="319.12" y="431.17999999999995"/>
      <point x="319.12" y="461.94" type="curve" smooth="yes"/>
      <point x="319.12" y="510.72"/>
      <point x="295.12" y="544.0"/>
      <point x="241.02" y="544.0" type="curve" smooth="yes"/>
      <point x="204.39999999999998" y="544.0"/>
      <point x="165.8" y="529.6"/>
      <point x="131.2" y="507.67999999999995" type="curve"/>
      <point x="135.66" y="534.0" type="line"/>
    </contour>
  </outline>
</glyph>
<glyph name="o" format="2">
  <advance width="329.95"/>
  <unicode hex="006F"/>
  <note>
8
</note>
  <anchor x="126.3" y="0.0" name="bottom"/>
  <anchor x="166.7" y="267.8" name="center"/>
  <anchor x="172.55" y="1.5" name="ogonek"/>
  <anchor x="206.29999999999998" y="534.0" name="top"/>
  <anchor x="270.5" y="524.8" name="topright"/>
  <outline>
    <contour>
      <point x="129.5" y="-10.0" type="curve" smooth="yes"/>
      <point x="260.2" y="-10.0"/>
      <point x="310.0" y="256.95"/>
      <point x="310.0" y="407.95000000000005" type="curve" smooth="yes"/>
      <point x="310.0" y="509.65"/>
      <point x="272.40000000000003" y="543.65"/>
      <point x="198.0" y="543.65" type="curve" smooth="yes"/>
      <point x="67.15" y="543.65"/>
      <point x="17.1" y="274.4"/>
      <point x="17.1" y="125.5" type="curve" smooth="yes"/>
      <point x="17.1" y="23.7"/>
      <point x="54.15" y="-10.0"/>
    </contour>
    <contour>
      <point x="129.79999999999998" y="35.85000000000001" type="curve" smooth="yes"/>
      <point x="89.15" y="35.85000000000001"/>
      <point x="65.75" y="54.800000000000004"/>
      <point x="65.75" y="125.1" type="curve" smooth="yes"/>
      <point x="65.75" y="225.2"/>
      <point x="108.60000000000001" y="497.8"/>
      <point x="197.75" y="497.8" type="curve" smooth="yes"/>
      <point x="237.3" y="497.8"/>
      <point x="261.45" y="478.4"/>
      <point x="261.45" y="409.1" type="curve" smooth="yes"/>
      <point x="261.45" y="306.25"/>
      <point x="219.2" y="35.85000000000001"/>
    </contour>
  </outline>
</glyph>
<glyph name="p" format="2">
  <advance width="336.95"/>
  <unicode hex="0070"/>
  <note>
14 point
</note>
  <outline>
    <contour>
      <point x="-27.640000000000004" y="-210.0" type="line"/>
      <point x="21.490000000000002" y="-210.0" type="line"/>
      <point x="54.73" y="-1.38" type="line"/>
      <point x="71.73" y="-6.44"/>
      <point x="90.31" y="-9.649999999999999"/>
      <point x="113.47" y="-9.649999999999999" type="curve" smooth="yes"/>
      <point x="241.20000000000002" y="-9.649999999999999"/>
      <point x="318.08" y="183.2"/>
      <point x="318.08" y="384.89" type="curve" smooth="yes"/>
      <point x="318.08" y="493.58000000000004"/>
      <point x="287.41" y="544.0"/>
      <point x="222.54000000000002" y="544.0" type="curve" smooth="yes"/>
      <point x="188.09" y="544.0"/>
      <point x="161.46" y="530.04"/>
      <point x="134.64999999999998" y="513.25" type="curve"/>
      <point x="134.0" y="541.2" type="line"/>
      <point x="90.6" y="541.2" type="line"/>
    </contour>
    <contour>
      <point x="108.41" y="35.33" type="curve" smooth="yes"/>
      <point x="90.97999999999999" y="35.33"/>
      <point x="75.0" y="38.23000000000001"/>
      <point x="62.03000000000001" y="43.78" type="curve"/>
      <point x="129.37" y="469.34999999999997" type="line"/>
      <point x="150.85" y="484.12"/>
      <point x="180.67" y="495.36999999999995"/>
      <point x="202.99000000000004" y="495.36999999999995" type="curve" smooth="yes"/>
      <point x="245.70000000000002" y="495.36999999999995"/>
      <point x="267.28000000000003" y="458.15"/>
      <point x="267.28000000000003" y="377.76" type="curve" smooth="yes"/>
      <point x="267.28000000000003" y="207.75"/>
      <point x="204.20000000000002" y="35.33"/>
    </contour>
  </outline>
</glyph>
<glyph name="q" format="2">
  <advance width="332.03999999999996"/>
  <unicode hex="0071"/>
  <note>
12
</note>
  <outline>
    <contour>
      <point x="324.11" y="525.54" type="line"/>
      <point x="296.49" y="535.23"/>
      <point x="261.65000000000003" y="544.0"/>
      <point x="225.25" y="544.0" type="curve" smooth="yes"/>
      <point x="70.39" y="544.0"/>
      <point x="16.52" y="295.06999999999994"/>
      <point x="16.52" y="132.84" type="curve" smooth="yes"/>
      <point x="16.52" y="34.87"/>
      <point x="55.46" y="-10.0"/>
      <point x="112.74" y="-10.0" type="curve" smooth="yes"/>
      <point x="145.03" y="-10.0"/>
      <point x="170.75" y="2.5700000000000003"/>
      <point x="193.57999999999998" y="19.509999999999998" type="curve"/>
      <point x="155.71" y="-210.0" type="line"/>
      <point x="206.79999999999998" y="-210.0" type="line"/>
    </contour>
    <contour>
      <point x="268.21000000000004" y="490.29" type="curve"/>
      <point x="200.63" y="64.87" type="line"/>
      <point x="178.74" y="47.02"/>
      <point x="153.11" y="38.33"/>
      <point x="130.71000000000004" y="38.33" type="curve" smooth="yes"/>
      <point x="88.64" y="38.33"/>
      <point x="66.66" y="81.84"/>
      <point x="66.66" y="134.17000000000002" type="curve" smooth="yes"/>
      <point x="66.66" y="289.61999999999995"/>
      <point x="115.05" y="498.79"/>
      <point x="220.28" y="498.79" type="curve" smooth="yes"/>
      <point x="235.85" y="498.79"/>
      <point x="253.1" y="495.11999999999995"/>
    </contour>
  </outline>
</glyph>
<glyph name="r" format="2">
  <advance width="232.0"/>
  <unicode hex="0072"/>
  <anchor x="28.92" y="0.0" name="bottom"/>
  <anchor x="183.5" y="534.0" name="top"/>
  <outline>
    <contour>
      <point x="135.42" y="534.0" type="line"/>
      <point x="89.18" y="534.0" type="line"/>
      <point x="4.6000000000000005" y="0.0" type="line"/>
      <point x="54.040000000000006" y="0.0" type="line"/>
      <point x="123.56" y="438.93999999999994" type="line"/>
      <point x="159.94" y="475.88"/>
      <point x="190.4" y="490.28"/>
      <point x="220.22" y="490.28" type="curve" smooth="yes"/>
      <point x="233.76" y="490.28"/>
      <point x="248.92" y="487.97999999999996"/>
      <point x="262.98" y="483.4" type="curve"/>
      <point x="279.7" y="535.64" type="line"/>
      <point x="265.64" y="541.56"/>
      <point x="249.79999999999998" y="544.0"/>
      <point x="232.44" y="544.0" type="curve" smooth="yes"/>
      <point x="198.08" y="544.0"/>
      <point x="162.38" y="525.76"/>
      <point x="128.06" y="490.68000000000006" type="curve"/>
    </contour>
  </outline>
</glyph>
<glyph name="s" format="2">
  <advance width="282.20000000000005"/>
  <unicode hex="0073"/>
  <anchor x="93.45" y="0.0" name="bottom"/>
  <anchor x="194.85" y="534.0" name="top"/>
  <outline>
    <contour>
      <point x="-16.349999999999998" y="12.05" type="line"/>
      <point x="11.649999999999999" y="-1.7"/>
      <point x="47.35" y="-10.0"/>
      <point x="90.14999999999999" y="-10.0" type="curve" smooth="yes"/>
      <point x="193.8" y="-10.0"/>
      <point x="244.85" y="63.150000000000006"/>
      <point x="244.85" y="147.45" type="curve" smooth="yes"/>
      <point x="244.85" y="274.15"/>
      <point x="101.6" y="301.90000000000003"/>
      <point x="101.6" y="399.4" type="curve" smooth="yes"/>
      <point x="101.6" y="451.2"/>
      <point x="133.89999999999998" y="496.65000000000003"/>
      <point x="196.35000000000002" y="496.65000000000003" type="curve" smooth="yes"/>
      <point x="225.3" y="496.65000000000003"/>
      <point x="252.45000000000002" y="488.34999999999997"/>
      <point x="275.04999999999995" y="478.85" type="curve"/>
      <point x="290.75" y="524.2" type="line"/>
      <point x="269.79999999999995" y="535.5500000000001"/>
      <point x="235.55" y="544.0"/>
      <point x="201.2" y="544.0" type="curve" smooth="yes"/>
      <point x="98.44999999999999" y="544.0"/>
      <point x="52.85" y="469.1"/>
      <point x="52.85" y="395.5" type="curve" smooth="yes"/>
      <point x="52.85" y="261.6"/>
      <point x="195.5" y="243.75"/>
      <point x="195.5" y="141.6" type="curve" smooth="yes"/>
      <point x="195.5" y="87.3"/>
      <point x="160.5" y="36.75"/>
      <point x="93.55000000000001" y="36.75" type="curve" smooth="yes"/>
      <point x="60.65" y="36.75"/>
      <point x="26.400000000000002" y="44.650000000000006"/>
      <point x="0.5000000000000007" y="57.0" type="curve"/>
    </contour>
  </outline>
</glyph>
<glyph name="t" format="2">
  <advance width="219.06"/>
  <unicode hex="0074"/>
  <anchor x="106.3" y="0.0" name="bottom"/>
  <anchor x="101.44" y="316.76" name="center"/>
  <anchor x="148.49999999999997" y="663.02" name="top"/>
  <anchor x="258.86" y="749.9" name="topright"/>
  <outline>
    <contour>
      <point x="181.56" y="46.7" type="line"/>
      <point x="165.38000000000002" y="42.14"/>
      <point x="149.70000000000002" y="39.02"/>
      <point x="135.76000000000002" y="39.02" type="curve" smooth="yes"/>
      <point x="97.46" y="39.02"/>
      <point x="82.08000000000001" y="58.440000000000005"/>
      <point x="82.08000000000001" y="96.22" type="curve" smooth="yes"/>
      <point x="82.08000000000001" y="107.42"/>
      <point x="83.78" y="119.60000000000001"/>
      <point x="85.66" y="134.14" type="curve" smooth="yes"/>
      <point x="142.14" y="488.38" type="line"/>
      <point x="254.42" y="488.38" type="line"/>
      <point x="262.12" y="534.0" type="line"/>
      <point x="149.78" y="534.0" type="line"/>
      <point x="169.92" y="663.02" type="line"/>
      <point x="128.74" y="663.02" type="line"/>
      <point x="100.02" y="534.0" type="line"/>
      <point x="42.14" y="527.72" type="line"/>
      <point x="35.4" y="488.56" type="line"/>
      <point x="92.25999999999999" y="488.56" type="line"/>
      <point x="35.26" y="130.17999999999998" type="line" smooth="yes"/>
      <point x="31.860000000000003" y="110.32"/>
      <point x="30.04" y="88.60000000000001"/>
      <point x="30.04" y="73.02" type="curve" smooth="yes"/>
      <point x="30.04" y="17.639999999999997"/>
      <point x="57.0" y="-10.0"/>
      <point x="112.24" y="-10.0" type="curve" smooth="yes"/>
      <point x="133.94" y="-10.0"/>
      <point x="157.64" y="-5.9799999999999995"/>
      <point x="181.9" y="3.46" type="curve"/>
    </contour>
  </outline>
</glyph>
<glyph name="u" format="2">
  <advance width="337.8"/>
  <unicode hex="0075"/>
  <note>
15
</note>
  <anchor x="127.16" y="0.0" name="bottom"/>
  <anchor x="302.8" y="3.22" name="ogonek"/>
  <anchor x="206.68008" y="534.0" name="top"/>
  <anchor x="321.28" y="534.0" name="topright"/>
  <outline>
    <contour>
      <point x="94.56000000000002" y="-10.0" type="curve" smooth="yes"/>
      <point x="132.76000000000002" y="-10.0"/>
      <point x="165.57999999999998" y="3.7"/>
      <point x="204.32" y="31.16" type="curve"/>
      <point x="208.95999999999998" y="3.86"/>
      <point x="228.1" y="-10.0"/>
      <point x="254.82000000000002" y="-10.0" type="curve" smooth="yes"/>
      <point x="267.38" y="-10.0"/>
      <point x="288.90000000000003" y="-4.76"/>
      <point x="302.8" y="3.44" type="curve"/>
      <point x="302.88" y="43.699999999999996" type="line"/>
      <point x="292.32" y="39.44"/>
      <point x="281.48" y="37.04"/>
      <point x="275.46" y="37.04" type="curve" smooth="yes"/>
      <point x="258.71999999999997" y="37.04"/>
      <point x="253.42" y="46.78000000000001"/>
      <point x="253.42" y="61.660000000000004" type="curve" smooth="yes"/>
      <point x="253.42" y="71.68"/>
      <point x="255.86" y="90.8"/>
      <point x="326.68" y="534.0" type="curve"/>
      <point x="277.08" y="534.0" type="line"/>
      <point x="204.03999999999996" y="69.08000000000001" type="line"/>
      <point x="173.0" y="47.78"/>
      <point x="144.88000000000002" y="37.080000000000005"/>
      <point x="116.44000000000001" y="37.080000000000005" type="curve" smooth="yes"/>
      <point x="84.75999999999999" y="37.080000000000005"/>
      <point x="67.94000000000001" y="58.50000000000001"/>
      <point x="68.30000000000001" y="86.9" type="curve" smooth="yes"/>
      <point x="71.54" y="119.54"/>
      <point x="76.60000000000001" y="152.44"/>
      <point x="136.46" y="534.0" type="curve"/>
      <point x="86.75999999999999" y="534.0" type="line"/>
      <point x="38.5" y="220.35999999999999"/>
      <point x="16.439999999999998" y="108.46000000000001"/>
      <point x="16.439999999999998" y="65.3" type="curve" smooth="yes"/>
      <point x="16.439999999999998" y="19.94"/>
      <point x="45.14" y="-10.0"/>
    </contour>
  </outline>
</glyph>
<glyph name="v" format="2">
  <advance width="299.69"/>
  <unicode hex="0076"/>
  <outline>
    <contour>
      <point x="136.53" y="-2.7800000000000002" type="line"/>
      <point x="261.19" y="322.73"/>
      <point x="314.01" y="413.20000000000005"/>
      <point x="315.82" y="534.0" type="curve"/>
      <point x="264.75" y="534.0" type="line"/>
      <point x="261.69" y="426.35999999999996"/>
      <point x="234.63" y="377.34000000000003"/>
      <point x="114.47" y="57.2" type="curve"/>
      <point x="102.31" y="534.8" type="line"/>
      <point x="50.339999999999996" y="534.19" type="line"/>
      <point x="74.7" y="-2.7800000000000002" type="line"/>
    </contour>
  </outline>
</glyph>
<glyph name="w" format="2">
  <advance width="487.71999999999997"/>
  <unicode hex="0077"/>
  <note>
15
</note>
  <anchor x="211.23999999999998" y="0.0" name="bottom"/>
  <anchor x="275.89" y="534.0" name="top"/>
  <outline>
    <contour>
      <point x="341.36" y="0.0" type="line"/>
      <point x="463.17999999999995" y="346.22"/>
      <point x="495.35" y="411.79"/>
      <point x="501.91" y="534.0" type="curve"/>
      <point x="452.46" y="534.0" type="line"/>
      <point x="443.46" y="416.47"/>
      <point x="424.03000000000003" y="364.45"/>
      <point x="320.68" y="61.75" type="curve"/>
      <point x="305.31" y="491.62" type="line"/>
      <point x="248.92" y="491.62" type="line"/>
      <point x="203.54" y="346.8"/>
      <point x="159.06" y="203.84"/>
      <point x="113.44000000000001" y="59.86" type="curve"/>
      <point x="97.3" y="534.8" type="line"/>
      <point x="46.68" y="534.21" type="line"/>
      <point x="72.85" y="0.0" type="line"/>
      <point x="133.78" y="0.0" type="line"/>
      <point x="177.76" y="137.6"/>
      <point x="222.48999999999998" y="276.89000000000004"/>
      <point x="265.99" y="414.09000000000003" type="curve"/>
      <point x="282.78999999999996" y="0.0" type="line"/>
    </contour>
  </outline>
</glyph>
<glyph name="x" format="2">
  <advance width="303.80000000000007"/>
  <unicode hex="0078"/>
  <outline>
    <contour>
      <point x="266.09999999999997" y="534.0" type="line"/>
      <point x="261.54999999999995" y="465.4"/>
      <point x="237.55" y="394.15"/>
      <point x="162.54999999999998" y="301.5" type="curve"/>
      <point x="113.85" y="538.0500000000001" type="line"/>
      <point x="61.2" y="533.9" type="line"/>
      <point x="120.6" y="272.59999999999997" type="line"/>
      <point x="34.55" y="171.7"/>
      <point x="-9.55" y="82.9"/>
      <point x="-15.15" y="0.0" type="curve"/>
      <point x="36.4" y="0.0" type="line"/>
      <point x="42.85" y="77.6"/>
      <point x="78.25" y="149.6"/>
      <point x="147.64999999999998" y="234.75" type="curve"/>
      <point x="198.10000000000002" y="-2.3" type="line"/>
      <point x="251.05" y="0.95" type="line"/>
      <point x="189.14999999999998" y="265.0" type="line"/>
      <point x="279.65" y="367.45"/>
      <point x="313.85" y="468.09999999999997"/>
      <point x="317.70000000000005" y="534.0" type="curve"/>
    </contour>
  </outline>
</glyph>
<glyph name="y" format="2">
  <advance width="300.20000000000005"/>
  <unicode hex="0079"/>
  <anchor x="89.25" y="-210.0" name="bottom"/>
  <anchor x="180.45" y="534.0" name="top"/>
  <outline>
    <contour>
      <point x="269.35" y="541.2" type="line"/>
      <point x="244.85" y="353.65"/>
      <point x="188.15" y="198.45000000000002"/>
      <point x="128.04999999999998" y="52.099999999999994" type="curve"/>
      <point x="93.5" y="542.0" type="line"/>
      <point x="43.3" y="540.0" type="line"/>
      <point x="83.2" y="-0.8" type="line"/>
      <point x="101.0" y="-0.8" type="line"/>
      <point x="69.39999999999999" y="-75.55"/>
      <point x="34.199999999999996" y="-144.0"/>
      <point x="-2.2" y="-209.6" type="curve"/>
      <point x="47.5" y="-218.0" type="line"/>
      <point x="168.85" y="15.150000000000002"/>
      <point x="286.4" y="293.45"/>
      <point x="318.85" y="538.4" type="curve"/>
    </contour>
  </outline>
</glyph>
<glyph name="z" format="2">
  <advance width="297.17"/>
  <unicode hex="007A"/>
  <anchor x="119.96000000000001" y="0.0" name="bottom"/>
  <anchor x="145.17000000000002" y="275.0" name="center"/>
  <anchor x="194.56" y="534.0" name="top"/>
  <outline>
    <contour>
      <point x="-13.7" y="0.0" type="line"/>
      <point x="249.46" y="0.0" type="line"/>
      <point x="256.78000000000003" y="46.650000000000006" type="line"/>
      <point x="48.33" y="46.650000000000006" type="line"/>
      <point x="308.64000000000004" y="489.02" type="line"/>
      <point x="316.57" y="534.0" type="line"/>
      <point x="76.42999999999999" y="534.0" type="line"/>
      <point x="68.91000000000001" y="486.99" type="line"/>
      <point x="254.18" y="486.99" type="line"/>
      <point x="-7.66" y="42.7" type="line"/>
    </contour>
  </outline>
</glyph>
<glyph name="braceleft" format="2">
  <advance width="223.02"/>
  <unicode hex="007B"/>
  <outline>
    <contour>
      <point x="15.5" y="-115.0" type="curve" smooth="yes"/>
      <point x="15.5" y="-173.1"/>
      <point x="39.76" y="-210.0"/>
      <point x="86.38" y="-210.0" type="curve" smooth="yes"/>
      <point x="119.48" y="-210.0" type="line"/>
      <point x="127.06" y="-164.20000000000002" type="line"/>
      <point x="103.92" y="-164.20000000000002" type="line" smooth="yes"/>
      <point x="73.76" y="-164.20000000000002"/>
      <point x="61.24000000000001" y="-139.0"/>
      <point x="61.24000000000001" y="-102.64" type="curve" smooth="yes"/>
      <point x="61.24000000000001" y="5.44"/>
      <point x="131.1" y="100.18"/>
      <point x="131.1" y="203.23999999999998" type="curve" smooth="yes"/>
      <point x="131.1" y="231.70000000000002"/>
      <point x="126.16000000000001" y="258.34"/>
      <point x="102.66000000000001" y="271.4" type="curve"/>
      <point x="148.66" y="283.84"/>
      <point x="166.7" y="359.41999999999996"/>
      <point x="166.7" y="415.9" type="curve" smooth="yes"/>
      <point x="166.7" y="461.90000000000003"/>
      <point x="164.02" y="490.65999999999997"/>
      <point x="164.02" y="548.4" type="curve" smooth="yes"/>
      <point x="164.02" y="616.98"/>
      <point x="182.89999999999998" y="694.1999999999999"/>
      <point x="243.00000000000003" y="694.1999999999999" type="curve" smooth="yes"/>
      <point x="262.90000000000003" y="694.1999999999999" type="line"/>
      <point x="270.12" y="740.0" type="line"/>
      <point x="240.62" y="740.0" type="line" smooth="yes"/>
      <point x="148.4" y="740.0"/>
      <point x="119.5" y="636.88"/>
      <point x="119.5" y="540.18" type="curve" smooth="yes"/>
      <point x="119.5" y="485.47999999999996"/>
      <point x="122.7" y="454.46"/>
      <point x="122.7" y="420.46000000000004" type="curve" smooth="yes"/>
      <point x="122.7" y="368.7"/>
      <point x="113.52" y="295.72"/>
      <point x="70.46000000000001" y="295.72" type="curve" smooth="yes"/>
      <point x="56.82" y="295.72" type="line"/>
      <point x="49.42" y="249.14000000000001" type="line"/>
      <point x="61.7" y="249.14000000000001" type="line" smooth="yes"/>
      <point x="83.44" y="249.14000000000001"/>
      <point x="88.88000000000001" y="229.32"/>
      <point x="88.88000000000001" y="205.10000000000002" type="curve" smooth="yes"/>
      <point x="88.88000000000001" y="97.12"/>
      <point x="15.5" y="9.799999999999999"/>
    </contour>
  </outline>
</glyph>
<glyph name="bar" format="2">
  <advance width="136.52"/>
  <unicode hex="007C"/>
  <outline>
    <contour>
      <point x="172.20000000000002" y="790.1800000000001" type="line"/>
      <point x="128.2" y="790.1800000000001" type="line"/>
      <point x="-30.859999999999996" y="-210.0" type="line"/>
      <point x="13.3" y="-210.0" type="line"/>
    </contour>
  </outline>
</glyph>
<glyph name="braceright" format="2">
  <advance width="223.02"/>
  <unicode hex="007D"/>
  <outline>
    <contour>
      <point x="204.44" y="645.0" type="curve" smooth="yes"/>
      <point x="204.44" y="703.28"/>
      <point x="180.0" y="740.1800000000001"/>
      <point x="133.38" y="740.1800000000001" type="curve" smooth="yes"/>
      <point x="100.28" y="740.1800000000001" type="line"/>
      <point x="92.7" y="694.38" type="line"/>
      <point x="114.04" y="694.38" type="line" smooth="yes"/>
      <point x="144.38" y="694.38"/>
      <point x="157.08" y="669.0"/>
      <point x="157.08" y="632.6400000000001" type="curve" smooth="yes"/>
      <point x="157.08" y="524.2"/>
      <point x="87.22" y="439.54"/>
      <point x="87.22" y="332.7" type="curve" smooth="yes"/>
      <point x="87.22" y="304.78"/>
      <point x="91.98000000000002" y="278.14"/>
      <point x="115.84" y="265.26" type="curve"/>
      <point x="69.83999999999999" y="252.64000000000001"/>
      <point x="51.620000000000005" y="177.42"/>
      <point x="51.620000000000005" y="120.76" type="curve" smooth="yes"/>
      <point x="51.620000000000005" y="74.75999999999999"/>
      <point x="54.3" y="39.52"/>
      <point x="54.3" y="-17.86" type="curve" smooth="yes"/>
      <point x="54.3" y="-86.43999999999998"/>
      <point x="35.599999999999994" y="-164.01999999999998"/>
      <point x="-24.5" y="-164.01999999999998" type="curve" smooth="yes"/>
      <point x="-42.96000000000001" y="-164.01999999999998" type="line"/>
      <point x="-50.18" y="-210.0" type="line"/>
      <point x="-20.859999999999996" y="-210.0" type="line" smooth="yes"/>
      <point x="71.36" y="-210.0"/>
      <point x="100.25999999999999" y="-104.54"/>
      <point x="100.25999999999999" y="-13.6" type="curve" smooth="yes"/>
      <point x="100.25999999999999" y="45.96"/>
      <point x="97.06" y="84.18"/>
      <point x="97.06" y="116.92" type="curve" smooth="yes"/>
      <point x="97.06" y="168.32"/>
      <point x="106.60000000000001" y="240.94"/>
      <point x="149.3" y="240.94" type="curve" smooth="yes"/>
      <point x="162.94" y="240.94" type="line"/>
      <point x="170.34" y="287.34" type="line"/>
      <point x="158.06" y="287.34" type="line" smooth="yes"/>
      <point x="136.32" y="287.34"/>
      <point x="130.88000000000002" y="307.15999999999997"/>
      <point x="130.88000000000002" y="331.38" type="curve" smooth="yes"/>
      <point x="130.88000000000002" y="439.53999999999996"/>
      <point x="204.44" y="517.68"/>
    </contour>
  </outline>
</glyph>
<glyph name="asciitilde" format="2">
  <advance width="374.54"/>
  <unicode hex="007E"/>
  <outline>
    <contour>
      <point x="314.88" y="250.1" type="curve"/>
      <point x="323.0" y="302.22" type="line"/>
      <point x="301.65999999999997" y="277.0"/>
      <point x="284.02" y="265.26"/>
      <point x="261.68" y="265.26" type="curve" smooth="yes"/>
      <point x="203.9" y="265.26"/>
      <point x="190.01999999999998" y="373.7"/>
      <point x="129.6" y="373.7" type="curve" smooth="yes"/>
      <point x="103.2" y="373.7"/>
      <point x="83.14" y="360.38000000000005"/>
      <point x="67.02" y="340.90000000000003" type="curve"/>
      <point x="58.8" y="288.70000000000005" type="line"/>
      <point x="76.78000000000002" y="310.50000000000006"/>
      <point x="96.32" y="325.42"/>
      <point x="120.9" y="325.42" type="curve" smooth="yes"/>
      <point x="175.11999999999998" y="325.42"/>
      <point x="189.51999999999998" y="216.98000000000002"/>
      <point x="254.06" y="216.98000000000002" type="curve" smooth="yes"/>
      <point x="278.28000000000003" y="216.98000000000002"/>
      <point x="295.28000000000003" y="227.12"/>
    </contour>
  </outline>
</glyph>
<glyph name="cent" format="2">
  <advance width="359.32"/>
  <unicode hex="00A2"/>
  <outline>
    <contour>
      <point x="131.14" y="-105.16" type="line"/>
      <point x="175.38" y="-105.16" type="line"/>
      <point x="190.57999999999998" y="-8.46" type="line"/>
      <point x="218.58" y="-6.58"/>
      <point x="243.84" y="-2.08"/>
      <point x="261.36" y="4.34" type="curve"/>
      <point x="258.8" y="52.660000000000004" type="line"/>
      <point x="239.3" y="46.94"/>
      <point x="210.94" y="42.160000000000004"/>
      <point x="191.9" y="42.160000000000004" type="curve" smooth="yes"/>
      <point x="135.38" y="42.160000000000004"/>
      <point x="114.24" y="82.9"/>
      <point x="114.24" y="151.9" type="curve" smooth="yes"/>
      <point x="114.24" y="337.56"/>
      <point x="178.42" y="490.12"/>
      <point x="262.48" y="490.12" type="curve" smooth="yes"/>
      <point x="283.18" y="490.12"/>
      <point x="302.02" y="485.88"/>
      <point x="320.34000000000003" y="480.21999999999997" type="curve"/>
      <point x="337.18" y="531.5600000000001" type="line"/>
      <point x="319.80000000000007" y="536.74"/>
      <point x="302.74" y="541.08"/>
      <point x="282.18" y="542.3800000000001" type="curve"/>
      <point x="298.12" y="638.8199999999999" type="line"/>
      <point x="253.88000000000002" y="638.8199999999999" type="line"/>
      <point x="237.52" y="539.4" type="line"/>
      <point x="132.74" y="521.04"/>
      <point x="61.720000000000006" y="346.84"/>
      <point x="61.720000000000006" y="134.5" type="curve" smooth="yes"/>
      <point x="61.720000000000006" y="38.86"/>
      <point x="98.67999999999999" y="2.9800000000000004"/>
      <point x="145.76" y="-5.9399999999999995" type="curve"/>
    </contour>
  </outline>
</glyph>
<glyph name="sterling" format="2">
  <advance width="359.44"/>
  <unicode hex="00A3"/>
  <outline>
    <contour>
      <point x="26.740000000000002" y="0.0" type="line"/>
      <point x="269.5" y="0.0" type="line"/>
      <point x="277.0" y="48.7" type="line"/>
      <point x="93.48" y="48.7" type="line"/>
      <point x="149.18000000000004" y="120.52000000000001"/>
      <point x="186.1" y="189.04"/>
      <point x="186.1" y="292.62" type="curve" smooth="yes"/>
      <point x="186.1" y="352.6"/>
      <point x="167.86" y="404.65999999999997"/>
      <point x="167.86" y="464.58" type="curve" smooth="yes"/>
      <point x="167.86" y="604.54"/>
      <point x="230.22000000000003" y="658.02"/>
      <point x="283.34000000000003" y="658.02" type="curve" smooth="yes"/>
      <point x="309.92" y="658.02"/>
      <point x="333.20000000000005" y="653.2200000000001"/>
      <point x="358.06" y="641.5600000000001" type="curve"/>
      <point x="375.82" y="687.5" type="line"/>
      <point x="349.8" y="702.04"/>
      <point x="317.2" y="710.0"/>
      <point x="287.64000000000004" y="710.0" type="curve" smooth="yes"/>
      <point x="189.6" y="710.0"/>
      <point x="119.4" y="625.96"/>
      <point x="119.4" y="473.58" type="curve" smooth="yes"/>
      <point x="119.4" y="392.24"/>
      <point x="138.6" y="356.36"/>
      <point x="138.6" y="284.56" type="curve" smooth="yes"/>
      <point x="138.6" y="178.68000000000004"/>
      <point x="90.74" y="110.48"/>
      <point x="30.720000000000002" y="40.5" type="curve"/>
    </contour>
    <contour>
      <point x="68.0" y="348.73999999999995" type="line"/>
      <point x="299.82" y="348.86000000000007" type="line"/>
      <point x="305.62" y="388.34" type="line"/>
      <point x="74.1" y="388.34" type="line"/>
    </contour>
  </outline>
</glyph>
<glyph name="currency" format="2">
  <advance width="384.38"/>
  <unicode hex="00A4"/>
  <outline>
    <contour>
      <point x="37.7" y="109.62" type="line"/>
      <point x="112.97999999999999" y="180.56" type="line"/>
      <point x="128.32" y="164.16"/>
      <point x="150.12" y="155.33999999999997"/>
      <point x="176.18" y="155.33999999999997" type="curve" smooth="yes"/>
      <point x="201.84" y="155.33999999999997"/>
      <point x="226.76000000000002" y="164.23999999999998"/>
      <point x="247.67999999999998" y="180.39999999999998" type="curve"/>
      <point x="300.74" y="109.62" type="line"/>
      <point x="337.12" y="143.48000000000002" type="line"/>
      <point x="285.3" y="211.96" type="line"/>
      <point x="308.17999999999995" y="237.51999999999998"/>
      <point x="323.46" y="272.58"/>
      <point x="323.82" y="310.28000000000003" type="curve" smooth="yes"/>
      <point x="324.17999999999995" y="331.74"/>
      <point x="319.36" y="351.14000000000004"/>
      <point x="310.36" y="367.96" type="curve"/>
      <point x="383.38" y="436.44" type="line"/>
      <point x="358.0" y="470.3" type="line"/>
      <point x="282.96" y="400.06" type="line"/>
      <point x="266.94" y="416.29999999999995"/>
      <point x="244.96" y="426.09999999999997"/>
      <point x="219.1" y="426.09999999999997" type="curve" smooth="yes"/>
      <point x="192.85999999999999" y="426.09999999999997"/>
      <point x="167.68" y="416.12"/>
      <point x="146.43999999999997" y="399.9" type="curve"/>
      <point x="94.94000000000001" y="470.3" type="line"/>
      <point x="59.64" y="436.44" type="line"/>
      <point x="109.66" y="367.88" type="line"/>
      <point x="87.02000000000001" y="342.21999999999997"/>
      <point x="72.72" y="308.38"/>
      <point x="72.36" y="271.29999999999995" type="curve" smooth="yes"/>
      <point x="72.00000000000001" y="248.9"/>
      <point x="76.64" y="228.72"/>
      <point x="85.66" y="211.96" type="curve"/>
      <point x="13.36" y="143.48000000000002" type="line"/>
    </contour>
    <contour>
      <point x="183.2" y="194.64" type="curve" smooth="yes"/>
      <point x="139.82" y="194.64"/>
      <point x="109.52" y="228.66"/>
      <point x="110.05999999999999" y="274.16" type="curve" smooth="yes"/>
      <point x="110.60000000000001" y="335.20000000000005"/>
      <point x="160.85999999999999" y="386.62"/>
      <point x="213.04" y="386.62" type="curve" smooth="yes"/>
      <point x="257.16" y="386.62"/>
      <point x="286.55999999999995" y="352.1"/>
      <point x="286.02" y="306.34000000000003" type="curve" smooth="yes"/>
      <point x="285.47999999999996" y="245.6"/>
      <point x="236.22" y="194.64"/>
    </contour>
  </outline>
</glyph>
<glyph name="yen" format="2">
  <advance width="359.5"/>
  <unicode hex="00A5"/>
  <outline>
    <contour>
      <point x="78.75" y="345.4" type="line"/>
      <point x="167.64999999999998" y="345.4" type="line"/>
      <point x="150.15" y="236.95000000000002" type="line"/>
      <point x="62.7" y="236.95000000000002" type="line"/>
      <point x="55.9" y="199.25" type="line"/>
      <point x="144.25" y="199.25" type="line"/>
      <point x="112.85000000000001" y="0.0" type="line"/>
      <point x="162.75" y="0.0" type="line"/>
      <point x="194.25" y="199.25" type="line"/>
      <point x="286.3" y="199.25" type="line"/>
      <point x="292.1" y="236.95000000000002" type="line"/>
      <point x="200.05" y="236.95000000000002" type="line"/>
      <point x="217.55" y="345.4" type="line"/>
      <point x="309.0" y="345.4" type="line"/>
      <point x="315.5" y="383.04999999999995" type="line"/>
      <point x="224.9" y="383.04999999999995" type="line"/>
      <point x="378.55" y="700.2" type="line"/>
      <point x="326.84999999999997" y="706.4" type="line"/>
      <point x="207.25" y="431.15000000000003" type="line"/>
      <point x="167.95000000000002" y="702.0" type="line"/>
      <point x="115.7" y="699.45" type="line"/>
      <point x="173.55" y="383.04999999999995" type="line"/>
      <point x="85.35" y="383.04999999999995" type="line"/>
    </contour>
  </outline>
</glyph>
<glyph name="brokenbar" format="2">
  <advance width="138.14"/>
  <unicode hex="00A6"/>
  <outline>
    <contour>
      <point x="108.89999999999999" y="391.0" type="line"/>
      <point x="173.28" y="790.1800000000001" type="line"/>
      <point x="129.28000000000003" y="790.1800000000001" type="line"/>
      <point x="64.89999999999999" y="391.0" type="line"/>
    </contour>
    <contour>
      <point x="33.34" y="190.17999999999998" type="line"/>
      <point x="-30.139999999999997" y="-210.0" type="line"/>
      <point x="13.840000000000003" y="-210.0" type="line"/>
      <point x="77.5" y="190.17999999999998" type="line"/>
    </contour>
  </outline>
</glyph>
<glyph name="section" format="2">
  <advance width="369.39000000000004"/>
  <unicode hex="00A7"/>
  <outline>
    <contour>
      <point x="0.9800000000000002" y="-130.28" type="curve"/>
      <point x="-23.68" y="-180.38" type="line"/>
      <point x="8.110000000000001" y="-208.02"/>
      <point x="42.230000000000004" y="-220.0"/>
      <point x="80.35000000000001" y="-220.0" type="curve" smooth="yes"/>
      <point x="215.79999999999998" y="-220.0"/>
      <point x="320.78" y="-48.06"/>
      <point x="320.78" y="143.94" type="curve" smooth="yes"/>
      <point x="320.78" y="314.03000000000003"/>
      <point x="229.86" y="425.25"/>
      <point x="229.86" y="571.6600000000001" type="curve" smooth="yes"/>
      <point x="229.86" y="641.24"/>
      <point x="258.86" y="692.62"/>
      <point x="304.76000000000005" y="692.62" type="curve" smooth="yes"/>
      <point x="317.97" y="692.62"/>
      <point x="329.74" y="688.48"/>
      <point x="344.21999999999997" y="681.1" type="curve"/>
      <point x="365.90000000000003" y="734.14" type="line"/>
      <point x="345.02" y="744.47"/>
      <point x="315.15999999999997" y="749.1800000000001"/>
      <point x="291.47999999999996" y="749.1800000000001" type="curve" smooth="yes"/>
      <point x="148.17999999999998" y="749.1800000000001"/>
      <point x="50.07" y="592.84"/>
      <point x="50.07" y="396.8" type="curve" smooth="yes"/>
      <point x="50.07" y="207.7"/>
      <point x="139.72" y="78.16"/>
      <point x="139.72" y="-55.559999999999995" type="curve" smooth="yes"/>
      <point x="139.72" y="-118.08"/>
      <point x="109.1" y="-163.76000000000002"/>
      <point x="65.96" y="-163.76000000000002" type="curve" smooth="yes"/>
      <point x="43.190000000000005" y="-163.76000000000002"/>
      <point x="18.89" y="-150.95000000000002"/>
    </contour>
    <contour>
      <point x="247.71" y="707.61" type="curve"/>
      <point x="211.22" y="677.9799999999999"/>
      <point x="192.42000000000002" y="622.14"/>
      <point x="192.42000000000002" y="568.74" type="curve" smooth="yes"/>
      <point x="192.42000000000002" y="402.38"/>
      <point x="281.16" y="301.90000000000003"/>
      <point x="281.16" y="126.83999999999999" type="curve" smooth="yes"/>
      <point x="281.16" y="-18.08"/>
      <point x="201.85999999999999" y="-163.52"/>
      <point x="113.24" y="-178.68" type="curve"/>
      <point x="158.77" y="-147.35"/>
      <point x="178.34" y="-95.24000000000001"/>
      <point x="178.34" y="-39.879999999999995" type="curve" smooth="yes"/>
      <point x="178.34" y="98.71000000000001"/>
      <point x="90.05999999999999" y="235.2"/>
      <point x="90.05999999999999" y="395.0" type="curve" smooth="yes"/>
      <point x="90.05999999999999" y="550.02"/>
      <point x="147.57000000000002" y="673.8"/>
    </contour>
  </outline>
</glyph>
<glyph name="copyright" format="2">
  <advance width="431.93999999999994"/>
  <unicode hex="00A9"/>
  <outline>
    <contour>
      <point x="180.23" y="-10.04" type="curve" smooth="yes"/>
      <point x="337.94" y="-10.12"/>
      <point x="417.96999999999997" y="280.19000000000005"/>
      <point x="417.96999999999997" y="523.59" type="curve" smooth="yes"/>
      <point x="417.96999999999997" y="648.63"/>
      <point x="367.78000000000003" y="711.67"/>
      <point x="276.38" y="711.75" type="curve" smooth="yes"/>
      <point x="118.33999999999999" y="711.8299999999999"/>
      <point x="37.790000000000006" y="421.92"/>
      <point x="37.790000000000006" y="178.16000000000003" type="curve" smooth="yes"/>
      <point x="37.790000000000006" y="53.239999999999995"/>
      <point x="87.89999999999999" y="-9.96"/>
    </contour>
    <contour>
      <point x="212.01000000000002" y="157.67999999999998" type="curve" smooth="yes"/>
      <point x="228.43" y="157.67999999999998"/>
      <point x="250.35000000000002" y="161.56"/>
      <point x="264.51" y="166.63" type="curve"/>
      <point x="263.73" y="200.95" type="line"/>
      <point x="253.04" y="197.3"/>
      <point x="233.79" y="194.98"/>
      <point x="221.81" y="194.98" type="curve" smooth="yes"/>
      <point x="190.64" y="194.98"/>
      <point x="174.35000000000002" y="222.42999999999998"/>
      <point x="174.35000000000002" y="266.85" type="curve" smooth="yes"/>
      <point x="174.35000000000002" y="376.46"/>
      <point x="214.01000000000002" y="491.53"/>
      <point x="266.45" y="491.53" type="curve" smooth="yes"/>
      <point x="280.49999999999994" y="491.53"/>
      <point x="291.74" y="490.5"/>
      <point x="303.96999999999997" y="486.05" type="curve"/>
      <point x="315.57" y="523.6600000000001" type="line"/>
      <point x="303.0" y="528.5500000000001"/>
      <point x="287.24" y="531.1700000000001"/>
      <point x="267.99" y="531.1700000000001" type="curve" smooth="yes"/>
      <point x="196.65" y="531.1700000000001"/>
      <point x="135.86999999999998" y="412.51"/>
      <point x="135.86999999999998" y="266.74" type="curve" smooth="yes"/>
      <point x="135.86999999999998" y="194.21"/>
      <point x="162.36999999999998" y="157.67999999999998"/>
    </contour>
    <contour>
      <point x="181.87" y="16.21" type="curve" smooth="yes"/>
      <point x="105.83" y="16.21"/>
      <point x="65.51" y="69.42"/>
      <point x="65.51" y="181.78" type="curve" smooth="yes"/>
      <point x="65.51" y="402.05"/>
      <point x="135.4" y="685.5400000000001"/>
      <point x="274.17" y="685.5400000000001" type="curve" smooth="yes"/>
      <point x="349.81" y="685.5400000000001"/>
      <point x="390.25000000000006" y="632.2900000000001"/>
      <point x="390.25000000000006" y="520.01" type="curve" smooth="yes"/>
      <point x="390.25000000000006" y="299.82"/>
      <point x="320.56" y="16.21"/>
    </contour>
  </outline>
</glyph>
<glyph name="ordfeminine" format="2">
  <advance width="242.88"/>
  <unicode hex="00AA"/>
  <outline>
    <contour>
      <point x="37.34" y="286.22" type="line"/>
      <point x="214.1" y="286.22" type="line"/>
      <point x="219.26000000000002" y="317.36" type="line"/>
      <point x="42.5" y="317.36" type="line"/>
    </contour>
    <component base="a.superior" xOffset="10.24"/>
  </outline>
</glyph>
<glyph name="logicalnot" format="2">
  <advance width="369.6"/>
  <unicode hex="00AC"/>
  <outline>
    <contour>
      <point x="58.92" y="367.72" type="line"/>
      <point x="293.1" y="367.72" type="line"/>
      <point x="263.32" y="176.86" type="line"/>
      <point x="309.66" y="176.86" type="line"/>
      <point x="347.02" y="413.22" type="line"/>
      <point x="66.5" y="413.22" type="line"/>
    </contour>
  </outline>
</glyph>
<glyph name="registered" format="2">
  <advance width="400.1"/>
  <unicode hex="00AE"/>
  <outline>
    <contour>
      <point x="196.36" y="208.42" type="curve" smooth="yes"/>
      <point x="323.40000000000003" y="208.42"/>
      <point x="418.1" y="446.8"/>
      <point x="418.1" y="716.18" type="curve" smooth="yes"/>
      <point x="418.1" y="833.18"/>
      <point x="374.95" y="894.22"/>
      <point x="291.06" y="894.22" type="curve" smooth="yes"/>
      <point x="164.01999999999998" y="894.22"/>
      <point x="69.86" y="655.5899999999999"/>
      <point x="69.86" y="386.46000000000004" type="curve" smooth="yes"/>
      <point x="69.86" y="269.5"/>
      <point x="112.42999999999999" y="208.42"/>
    </contour>
    <contour>
      <point x="197.4" y="232.24" type="curve" smooth="yes"/>
      <point x="129.21" y="232.24"/>
      <point x="95.00999999999999" y="286.3"/>
      <point x="95.00999999999999" y="387.35" type="curve" smooth="yes"/>
      <point x="95.00999999999999" y="637.9300000000001"/>
      <point x="178.60000000000002" y="870.19"/>
      <point x="290.05999999999995" y="870.19" type="curve" smooth="yes"/>
      <point x="358.25" y="870.19"/>
      <point x="392.95" y="816.34"/>
      <point x="392.95" y="715.04" type="curve" smooth="yes"/>
      <point x="392.95" y="464.46"/>
      <point x="308.82" y="232.24"/>
    </contour>
    <contour>
      <point x="153.34" y="394.87" type="line"/>
      <point x="188.37999999999997" y="394.87" type="line"/>
      <point x="209.82000000000002" y="526.87" type="line"/>
      <point x="221.68" y="525.2700000000001"/>
      <point x="232.38" y="523.6300000000001"/>
      <point x="248.23000000000002" y="524.45" type="curve"/>
      <point x="258.2" y="529.06" type="line"/>
      <point x="306.92999999999995" y="541.63"/>
      <point x="332.9" y="590.3199999999999"/>
      <point x="332.9" y="650.4" type="curve" smooth="yes"/>
      <point x="332.9" y="708.8499999999999"/>
      <point x="310.27000000000004" y="730.09"/>
      <point x="265.41999999999996" y="730.09" type="curve" smooth="yes"/>
      <point x="242.89000000000001" y="730.09"/>
      <point x="225.82" y="728.16"/>
      <point x="205.37" y="724.1199999999999" type="curve"/>
    </contour>
    <contour>
      <point x="240.24000000000004" y="554.0699999999999" type="curve" smooth="yes"/>
      <point x="229.92" y="554.0699999999999"/>
      <point x="222.22000000000003" y="555.64"/>
      <point x="214.29000000000002" y="556.6" type="curve"/>
      <point x="235.67999999999998" y="694.7900000000001" type="line"/>
      <point x="247.01" y="696.7800000000001"/>
      <point x="253.20000000000002" y="697.7800000000001"/>
      <point x="264.77000000000004" y="697.7800000000001" type="curve" smooth="yes"/>
      <point x="288.40999999999997" y="697.7800000000001"/>
      <point x="298.74" y="682.81"/>
      <point x="298.74" y="650.9000000000001" type="curve" smooth="yes"/>
      <point x="298.74" y="590.89"/>
      <point x="276.92" y="554.0699999999999"/>
    </contour>
    <contour>
      <point x="295.53000000000003" y="391.50000000000006" type="curve" smooth="yes"/>
      <point x="298.93" y="391.50000000000006"/>
      <point x="304.81" y="392.61"/>
      <point x="308.18" y="394.15000000000003" type="curve"/>
      <point x="311.81" y="430.96999999999997" type="line"/>
      <point x="309.72999999999996" y="429.58000000000004"/>
      <point x="307.72999999999996" y="429.58000000000004"/>
      <point x="306.51" y="429.58000000000004" type="curve" smooth="yes"/>
      <point x="291.11" y="429.58000000000004"/>
      <point x="283.21999999999997" y="458.74"/>
      <point x="272.82" y="544.07" type="curve"/>
      <point x="241.92000000000002" y="536.33" type="line"/>
      <point x="256.6" y="408.29999999999995"/>
      <point x="269.61" y="391.50000000000006"/>
    </contour>
  </outline>
</glyph>
<glyph name="degree" format="2">
  <advance width="228.00000000000003"/>
  <unicode hex="00B0"/>
  <outline>
    <contour>
      <point x="148.0" y="489.15999999999997" type="curve" smooth="yes"/>
      <point x="213.06" y="489.15999999999997"/>
      <point x="254.12" y="562.78"/>
      <point x="254.12" y="636.14" type="curve" smooth="yes"/>
      <point x="254.12" y="686.3599999999999"/>
      <point x="232.1" y="724.36"/>
      <point x="184.78" y="724.36" type="curve" smooth="yes"/>
      <point x="118.56" y="724.36"/>
      <point x="78.52" y="648.5600000000001"/>
      <point x="78.52" y="575.36" type="curve" smooth="yes"/>
      <point x="78.52" y="525.96"/>
      <point x="100.67999999999999" y="489.15999999999997"/>
    </contour>
    <contour>
      <point x="154.2" y="531.0400000000001" type="curve" smooth="yes"/>
      <point x="127.24000000000001" y="531.0400000000001"/>
      <point x="115.34" y="552.76"/>
      <point x="115.34" y="583.0400000000001" type="curve" smooth="yes"/>
      <point x="115.34" y="632.6999999999999"/>
      <point x="139.24" y="681.7599999999999"/>
      <point x="178.26" y="681.7599999999999" type="curve" smooth="yes"/>
      <point x="205.61999999999998" y="681.7599999999999"/>
      <point x="217.35999999999999" y="658.54"/>
      <point x="217.35999999999999" y="628.34" type="curve" smooth="yes"/>
      <point x="217.35999999999999" y="578.4"/>
      <point x="193.18" y="531.0400000000001"/>
    </contour>
  </outline>
</glyph>
<glyph name="plusminus" format="2">
  <advance width="371.08"/>
  <unicode hex="00B1"/>
  <outline>
    <contour>
      <point x="294.74" y="59.18" type="line"/>
      <point x="302.32000000000005" y="107.20000000000002" type="line"/>
      <point x="181.61999999999998" y="107.20000000000002" type="line"/>
      <point x="210.61999999999998" y="288.76" type="line"/>
      <point x="330.6" y="288.76" type="line"/>
      <point x="338.18" y="336.78" type="line"/>
      <point x="218.2" y="336.78" type="line"/>
      <point x="247.52" y="504.3" type="line"/>
      <point x="201.9" y="504.3" type="line"/>
      <point x="173.26000000000002" y="336.78" type="line"/>
      <point x="51.9" y="336.78" type="line"/>
      <point x="44.31999999999999" y="288.76" type="line"/>
      <point x="164.99999999999997" y="288.76" type="line"/>
      <point x="135.96" y="107.20000000000002" type="line"/>
      <point x="16.04" y="107.20000000000002" type="line"/>
      <point x="8.46" y="59.18" type="line"/>
    </contour>
  </outline>
</glyph>
<glyph name="uni00B2" format="2">
  <advance width="241.95"/>
  <unicode hex="00B2"/>
  <outline>
    <contour>
      <point x="52.75" y="367.79" type="line"/>
      <point x="215.28" y="367.79" type="line"/>
      <point x="219.79" y="398.28999999999996" type="line"/>
      <point x="98.78" y="398.28999999999996" type="line"/>
      <point x="172.09" y="500.10999999999996"/>
      <point x="245.48" y="607.0300000000001"/>
      <point x="245.48" y="703.06" type="curve" smooth="yes"/>
      <point x="245.48" y="746.64"/>
      <point x="224.17" y="772.99"/>
      <point x="184.84" y="772.99" type="curve" smooth="yes"/>
      <point x="156.65" y="772.99"/>
      <point x="128.51999999999998" y="761.42"/>
      <point x="104.85" y="739.01" type="curve"/>
      <point x="116.23" y="708.63" type="line"/>
      <point x="138.88000000000002" y="728.1899999999999"/>
      <point x="153.78" y="734.5400000000001"/>
      <point x="172.85000000000002" y="734.5400000000001" type="curve" smooth="yes"/>
      <point x="195.64" y="734.5400000000001"/>
      <point x="207.12" y="716.68"/>
      <point x="207.12" y="687.74" type="curve" smooth="yes"/>
      <point x="206.29999999999998" y="606.1"/>
      <point x="127.33" y="486.75"/>
      <point x="54.78" y="394.11" type="curve"/>
    </contour>
  </outline>
</glyph>
<glyph name="uni00B3" format="2">
  <advance width="247.95000000000002"/>
  <unicode hex="00B3"/>
  <outline>
    <contour>
      <point x="46.3" y="394.4" type="line"/>
      <point x="64.2" y="374.2"/>
      <point x="89.5" y="364.29999999999995"/>
      <point x="119.5" y="364.29999999999995" type="curve" smooth="yes"/>
      <point x="192.0" y="364.29999999999995"/>
      <point x="235.95" y="431.09999999999997"/>
      <point x="235.95" y="513.15" type="curve" smooth="yes"/>
      <point x="235.95" y="546.8499999999999"/>
      <point x="223.3" y="570.5"/>
      <point x="203.8" y="578.9" type="curve"/>
      <point x="233.45" y="595.95"/>
      <point x="257.09999999999997" y="642.0"/>
      <point x="257.09999999999997" y="694.9000000000001" type="curve" smooth="yes"/>
      <point x="257.09999999999997" y="746.5"/>
      <point x="227.75" y="773.9499999999999"/>
      <point x="183.5" y="773.9499999999999" type="curve" smooth="yes"/>
      <point x="159.9" y="773.9499999999999"/>
      <point x="133.95" y="767.75"/>
      <point x="109.89999999999999" y="750.5" type="curve"/>
      <point x="120.8" y="723.6" type="line"/>
      <point x="138.3" y="734.75"/>
      <point x="157.9" y="739.35"/>
      <point x="174.15" y="739.35" type="curve" smooth="yes"/>
      <point x="201.65" y="739.35"/>
      <point x="220.2" y="721.15"/>
      <point x="220.2" y="684.25" type="curve" smooth="yes"/>
      <point x="220.2" y="634.3000000000001"/>
      <point x="195.0" y="591.1"/>
      <point x="163.75" y="591.1" type="curve" smooth="yes"/>
      <point x="128.8" y="591.1" type="line"/>
      <point x="124.30000000000001" y="563.4" type="line"/>
      <point x="161.54999999999998" y="563.4" type="line" smooth="yes"/>
      <point x="187.6" y="563.4"/>
      <point x="202.0" y="545.6999999999999"/>
      <point x="202.0" y="510.59999999999997" type="curve" smooth="yes"/>
      <point x="202.0" y="456.4"/>
      <point x="175.75" y="397.85"/>
      <point x="119.55" y="397.85" type="curve" smooth="yes"/>
      <point x="97.8" y="397.85"/>
      <point x="80.6" y="405.25"/>
      <point x="66.25" y="421.05" type="curve"/>
    </contour>
  </outline>
</glyph>
<glyph name="uni00B5" format="2">
  <advance width="340.35999999999996"/>
  <unicode hex="00B5"/>
  <outline>
    <contour>
      <point x="-27.04" y="-210.0" type="line"/>
      <point x="21.900000000000002" y="-210.0" type="line"/>
      <point x="58.0" y="17.72" type="line"/>
      <point x="66.22" y="-1.1"/>
      <point x="83.80000000000001" y="-10.0"/>
      <point x="107.72" y="-10.0" type="curve" smooth="yes"/>
      <point x="141.34" y="-10.0"/>
      <point x="172.9" y="2.44"/>
      <point x="208.50000000000003" y="29.000000000000004" type="curve"/>
      <point x="213.14" y="3.5000000000000004"/>
      <point x="231.56" y="-10.0"/>
      <point x="257.38" y="-10.0" type="curve" smooth="yes"/>
      <point x="269.94" y="-10.0"/>
      <point x="291.46000000000004" y="-4.76"/>
      <point x="305.36000000000007" y="3.44" type="curve"/>
      <point x="305.44" y="43.699999999999996" type="line"/>
      <point x="294.88" y="39.44"/>
      <point x="284.04" y="37.04"/>
      <point x="278.02" y="37.04" type="curve" smooth="yes"/>
      <point x="261.28" y="37.04"/>
      <point x="255.98000000000005" y="46.78000000000001"/>
      <point x="255.98000000000005" y="61.660000000000004" type="curve" smooth="yes"/>
      <point x="255.98000000000005" y="71.68"/>
      <point x="258.42" y="90.8"/>
      <point x="329.24" y="534.0" type="curve"/>
      <point x="279.64" y="534.0" type="line"/>
      <point x="206.6" y="69.08000000000001" type="line"/>
      <point x="175.56" y="47.78"/>
      <point x="141.68" y="37.080000000000005"/>
      <point x="117.56" y="37.080000000000005" type="curve" smooth="yes"/>
      <point x="85.88" y="37.080000000000005"/>
      <point x="69.78" y="54.900000000000006"/>
      <point x="70.14000000000001" y="83.3" type="curve" smooth="yes"/>
      <point x="74.28" y="118.82000000000001"/>
      <point x="94.28" y="250.35999999999999"/>
      <point x="139.01999999999998" y="534.0" type="curve"/>
      <point x="89.32000000000001" y="534.0" type="line"/>
    </contour>
  </outline>
</glyph>
<glyph name="paragraph" format="2">
  <advance width="420.68"/>
  <unicode hex="00B6"/>
  <outline>
    <contour>
      <point x="254.82" y="-210.0" type="line"/>
      <point x="295.68" y="-210.0" type="line"/>
      <point x="446.23999999999995" y="740.0" type="line"/>
      <point x="405.37999999999994" y="740.0" type="line"/>
    </contour>
    <contour>
      <point x="167.60000000000002" y="231.32000000000002" type="line"/>
      <point x="117.72" y="243.06"/>
      <point x="91.32" y="294.94000000000005"/>
      <point x="91.32" y="372.94" type="curve" smooth="yes"/>
      <point x="91.32" y="533.12"/>
      <point x="157.92" y="687.66"/>
      <point x="276.96000000000004" y="692.58" type="curve"/>
      <point x="134.32" y="-210.0" type="line"/>
      <point x="175.17999999999998" y="-210.0" type="line"/>
      <point x="325.74" y="740.0" type="line"/>
      <point x="298.03999999999996" y="740.0" type="line" smooth="yes"/>
      <point x="137.70000000000002" y="740.0"/>
      <point x="46.42" y="561.78"/>
      <point x="46.42" y="370.06" type="curve" smooth="yes"/>
      <point x="46.42" y="275.14000000000004"/>
      <point x="81.92" y="208.82"/>
      <point x="155.89999999999998" y="191.23999999999998" type="curve"/>
    </contour>
  </outline>
</glyph>
<glyph name="periodcentered" format="2">
  <advance width="123.99999999999999"/>
  <unicode hex="00B7"/>
  <outline>
    <contour>
      <point x="34.190000000000005" y="286.83" type="curve" smooth="yes"/>
      <point x="32.65" y="265.43000000000006"/>
      <point x="38.480000000000004" y="257.95"/>
      <point x="59.01" y="257.95" type="curve" smooth="yes"/>
      <point x="86.52" y="257.95"/>
      <point x="93.07000000000001" y="276.75"/>
      <point x="94.73" y="303.62" type="curve" smooth="yes"/>
      <point x="96.27" y="324.03"/>
      <point x="91.03" y="332.19999999999993"/>
      <point x="70.74999999999999" y="332.19999999999993" type="curve" smooth="yes"/>
      <point x="43.589999999999996" y="332.19999999999993"/>
      <point x="35.849999999999994" y="313.59999999999997"/>
    </contour>
  </outline>
</glyph>
<glyph name="uni00B9" format="2">
  <advance width="239.04"/>
  <unicode hex="00B9"/>
  <outline>
    <contour>
      <point x="43.72" y="370.0" type="line"/>
      <point x="228.96" y="370.0" type="line"/>
      <point x="234.02" y="402.2" type="line"/>
      <point x="164.04" y="402.2" type="line"/>
      <point x="223.70000000000002" y="769.36" type="line"/>
      <point x="203.44000000000003" y="769.36" type="line"/>
      <point x="95.62" y="703.3799999999999" type="line"/>
      <point x="101.98" y="670.5400000000001" type="line"/>
      <point x="179.38" y="720.56" type="line"/>
      <point x="127.98" y="402.2" type="line"/>
      <point x="49.06" y="402.2" type="line"/>
    </contour>
  </outline>
</glyph>
<glyph name="ordmasculine" format="2">
  <advance width="232.26000000000002"/>
  <unicode hex="00BA"/>
  <outline>
    <contour>
      <point x="37.14" y="286.22" type="line"/>
      <point x="194.98" y="286.22" type="line"/>
      <point x="199.42000000000002" y="317.36" type="line"/>
      <point x="41.58" y="317.36" type="line"/>
    </contour>
    <component base="o.superior" xOffset="15.2"/>
  </outline>
</glyph>
<glyph name="AE" format="2">
  <advance width="518.41"/>
  <unicode hex="00C6"/>
  <anchor x="228.13324" y="0.0" name="bottom"/>
  <anchor x="346.31" y="700.0" name="top"/>
  <outline>
    <contour>
      <point x="206.49" y="0.0" type="line"/>
      <point x="459.08" y="0.0" type="line"/>
      <point x="466.68" y="48.25" type="line"/>
      <point x="263.84000000000003" y="48.25" type="line"/>
      <point x="306.66999999999996" y="322.58" type="line"/>
      <point x="480.24" y="322.58" type="line"/>
      <point x="487.93999999999994" y="369.33000000000004" type="line"/>
      <point x="314.21999999999997" y="369.33000000000004" type="line"/>
      <point x="358.79999999999995" y="651.0" type="line"/>
      <point x="550.8599999999999" y="651.0" type="line"/>
      <point x="559.5500000000001" y="700.0" type="line"/>
      <point x="282.23" y="700.0" type="line"/>
      <point x="-37.88" y="0.0" type="line"/>
      <point x="16.43" y="0.0" type="line"/>
      <point x="149.60999999999999" y="288.37999999999994" type="line"/>
      <point x="251.42" y="288.37999999999994" type="line"/>
    </contour>
    <contour>
      <point x="168.18" y="336.03000000000003" type="line"/>
      <point x="308.9100000000001" y="654.4799999999998" type="line"/>
      <point x="258.91999999999996" y="336.03000000000003" type="line"/>
    </contour>
  </outline>
</glyph>
<glyph name="multiply" format="2">
  <advance width="352.78000000000003"/>
  <unicode hex="00D7"/>
  <outline>
    <contour>
      <point x="54.02" y="92.44999999999999" type="line"/>
      <point x="173.85000000000002" y="258.31999999999994" type="line"/>
      <point x="240.26000000000002" y="92.80999999999999" type="line"/>
      <point x="278.61000000000007" y="124.01" type="line"/>
      <point x="208.90000000000003" y="297.99" type="line"/>
      <point x="336.24" y="474.31" type="line"/>
      <point x="306.43999999999994" y="505.37" type="line"/>
      <point x="185.51" y="338.22" type="line"/>
      <point x="118.39999999999999" y="505.37" type="line"/>
      <point x="79.89999999999999" y="474.37" type="line"/>
      <point x="149.67" y="299.03999999999996" type="line"/>
      <point x="24.07" y="123.41000000000001" type="line"/>
    </contour>
  </outline>
</glyph>
<glyph name="Oslash" format="2">
  <advance width="400.90000000000003"/>
  <unicode hex="00D8"/>
  <anchor x="261.2" y="700.0" name="top"/>
  <outline>
    <contour>
      <point x="426.75" y="710.0" type="line"/>
      <point x="385.05" y="710.0" type="line"/>
      <point x="344.5" y="641.5500000000001" type="line"/>
      <point x="341.95" y="641.95" type="line"/>
      <point x="61.15" y="102.25" type="line"/>
      <point x="58.900000000000006" y="102.95" type="line"/>
      <point x="-4.2" y="-8.0" type="line"/>
      <point x="37.45" y="-8.0" type="line"/>
      <point x="77.55" y="60.2" type="line"/>
      <point x="80.1" y="59.800000000000004" type="line"/>
      <point x="361.85" y="600.55" type="line"/>
      <point x="364.1" y="599.85" type="line"/>
    </contour>
    <contour>
      <point x="163.29999999999998" y="-9.8" type="curve" smooth="yes"/>
      <point x="313.3" y="-9.8"/>
      <point x="396.1" y="282.85"/>
      <point x="396.1" y="522.3499999999999" type="curve" smooth="yes"/>
      <point x="396.1" y="653.1999999999999"/>
      <point x="352.25" y="709.8"/>
      <point x="260.1" y="709.8" type="curve" smooth="yes"/>
      <point x="111.6" y="709.8"/>
      <point x="27.3" y="417.25"/>
      <point x="27.3" y="177.85" type="curve" smooth="yes"/>
      <point x="27.3" y="46.7"/>
      <point x="71.15" y="-9.8"/>
    </contour>
    <contour>
      <point x="166.4" y="38.0" type="curve" smooth="yes"/>
      <point x="107.25" y="38.0"/>
      <point x="76.89999999999999" y="76.65"/>
      <point x="76.89999999999999" y="175.7" type="curve" smooth="yes"/>
      <point x="76.89999999999999" y="383.4"/>
      <point x="152.3" y="662.0"/>
      <point x="258.0" y="662.0" type="curve" smooth="yes"/>
      <point x="316.55" y="662.0"/>
      <point x="346.8" y="623.65"/>
      <point x="346.8" y="524.9" type="curve" smooth="yes"/>
      <point x="346.8" y="320.4"/>
      <point x="271.3" y="38.0"/>
    </contour>
  </outline>
</glyph>
<glyph name="Thorn" format="2">
  <advance width="348.70000000000005"/>
  <unicode hex="00DE"/>
  <outline>
    <contour>
      <point x="3.4" y="0.0" type="line"/>
      <point x="53.75000000000001" y="0.0" type="line"/>
      <point x="80.05" y="163.95" type="line"/>
      <point x="104.2" y="162.15"/>
      <point x="127.55000000000001" y="162.1"/>
      <point x="154.1" y="162.1" type="curve" smooth="yes"/>
      <point x="273.75" y="162.1"/>
      <point x="351.05" y="278.9"/>
      <point x="351.05" y="461.7" type="curve" smooth="yes"/>
      <point x="351.05" y="560.85"/>
      <point x="310.45000000000005" y="609.95"/>
      <point x="211.45" y="609.95" type="curve" smooth="yes"/>
      <point x="195.54999999999998" y="609.95"/>
      <point x="176.7" y="609.0999999999999"/>
      <point x="149.45000000000002" y="606.9000000000001" type="curve"/>
      <point x="164.25" y="700.0" type="line"/>
      <point x="113.9" y="700.0" type="line"/>
    </contour>
    <contour>
      <point x="150.89999999999998" y="209.15" type="curve" smooth="yes"/>
      <point x="121.4" y="209.15"/>
      <point x="107.05000000000001" y="209.95000000000002"/>
      <point x="88.1" y="211.6" type="curve"/>
      <point x="142.5" y="558.5" type="line"/>
      <point x="171.65" y="561.75"/>
      <point x="188.70000000000002" y="562.75"/>
      <point x="205.25" y="562.75" type="curve" smooth="yes"/>
      <point x="271.8" y="562.75"/>
      <point x="301.15" y="532.7"/>
      <point x="301.15" y="455.20000000000005" type="curve" smooth="yes"/>
      <point x="301.15" y="308.8"/>
      <point x="244.9" y="209.15"/>
    </contour>
  </outline>
</glyph>
<glyph name="germandbls" format="2">
  <advance width="394.8"/>
  <unicode hex="00DF"/>
  <outline>
    <contour>
      <point x="16.45" y="-51.5" type="line" smooth="yes"/>
      <point x="4.5" y="-125.7"/>
      <point x="-15.100000000000001" y="-173.3"/>
      <point x="-65.6" y="-173.3" type="curve" smooth="yes"/>
      <point x="-79.24999999999999" y="-173.3"/>
      <point x="-90.75" y="-171.6"/>
      <point x="-107.2" y="-166.3" type="curve"/>
      <point x="-119.85000000000001" y="-210.15" type="line"/>
      <point x="-101.80000000000001" y="-217.09999999999997"/>
      <point x="-81.75" y="-220.0"/>
      <point x="-60.650000000000006" y="-220.0" type="curve" smooth="yes"/>
      <point x="13.350000000000001" y="-220.0"/>
      <point x="48.55" y="-163.5"/>
      <point x="65.30000000000001" y="-56.75" type="curve" smooth="yes"/>
      <point x="158.49999999999997" y="534.2500000000001" type="line" smooth="yes"/>
      <point x="175.55" y="640.6499999999999"/>
      <point x="212.64999999999998" y="701.8"/>
      <point x="282.40000000000003" y="701.8" type="curve" smooth="yes"/>
      <point x="321.7" y="701.8"/>
      <point x="344.09999999999997" y="685.4"/>
      <point x="344.09999999999997" y="644.7499999999999" type="curve" smooth="yes"/>
      <point x="344.09999999999997" y="604.05"/>
      <point x="328.20000000000005" y="577.65"/>
      <point x="277.15" y="536.7500000000001" type="curve" smooth="yes"/>
      <point x="218.35" y="489.7"/>
      <point x="190.6" y="450.2"/>
      <point x="190.6" y="383.05" type="curve" smooth="yes"/>
      <point x="190.6" y="328.85"/>
      <point x="219.85" y="288.65000000000003"/>
      <point x="268.70000000000005" y="242.9" type="curve" smooth="yes"/>
      <point x="309.0" y="205.7"/>
      <point x="322.55" y="181.6"/>
      <point x="322.55" y="144.3" type="curve" smooth="yes"/>
      <point x="322.55" y="84.4"/>
      <point x="279.40000000000003" y="38.0"/>
      <point x="219.35" y="38.0" type="curve" smooth="yes"/>
      <point x="188.65000000000003" y="38.0"/>
      <point x="156.79999999999998" y="45.550000000000004"/>
      <point x="130.39999999999998" y="57.2" type="curve"/>
      <point x="115.35000000000001" y="13.6" type="line"/>
      <point x="142.54999999999998" y="-0.7499999999999998"/>
      <point x="180.2" y="-10.0"/>
      <point x="218.45" y="-10.0" type="curve" smooth="yes"/>
      <point x="314.3" y="-10.0"/>
      <point x="373.29999999999995" y="55.25"/>
      <point x="373.29999999999995" y="150.95" type="curve" smooth="yes"/>
      <point x="373.29999999999995" y="203.3"/>
      <point x="351.70000000000005" y="237.05"/>
      <point x="303.2" y="283.75" type="curve" smooth="yes"/>
      <point x="256.45" y="330.0"/>
      <point x="238.8" y="353.15000000000003"/>
      <point x="238.8" y="390.4" type="curve" smooth="yes"/>
      <point x="238.8" y="432.95"/>
      <point x="258.15" y="460.85"/>
      <point x="312.65000000000003" y="505.5" type="curve" smooth="yes"/>
      <point x="371.65" y="553.9"/>
      <point x="395.09999999999997" y="588.8000000000001"/>
      <point x="395.09999999999997" y="650.9" type="curve" smooth="yes"/>
      <point x="395.09999999999997" y="717.7"/>
      <point x="354.1" y="750.0"/>
      <point x="285.59999999999997" y="750.0" type="curve" smooth="yes"/>
      <point x="183.25" y="750.0"/>
      <point x="131.4" y="679.3"/>
      <point x="109.9" y="540.5999999999999" type="curve" smooth="yes"/>
      <point x="102.60000000000001" y="492.15000000000003" type="line"/>
      <point x="42.550000000000004" y="485.45" type="line"/>
      <point x="35.8" y="446.05" type="line"/>
      <point x="94.35000000000001" y="446.05" type="line"/>
    </contour>
  </outline>
</glyph>
<glyph name="ae" format="2">
  <advance width="527.0500000000001"/>
  <unicode hex="00E6"/>
  <anchor x="232.85" y="0.0" name="bottom"/>
  <anchor x="307.5" y="534.0" name="top"/>
  <outline>
    <contour>
      <point x="117.3" y="-10.0" type="curve" smooth="yes"/>
      <point x="149.1" y="-10.0"/>
      <point x="175.75" y="0.8"/>
      <point x="197.6" y="20.1" type="curve"/>
      <point x="193.0" y="-6.1499999999999995" type="line"/>
      <point x="239.5" y="-6.1499999999999995" type="line"/>
      <point x="257.15" y="102.89999999999999" type="line"/>
      <point x="268.8" y="32.9"/>
      <point x="310.1" y="-9.6"/>
      <point x="372.40000000000003" y="-9.6" type="curve" smooth="yes"/>
      <point x="409.9" y="-9.6"/>
      <point x="449.8" y="-0.6000000000000002"/>
      <point x="478.8" y="16.4" type="curve"/>
      <point x="469.4" y="60.300000000000004" type="line"/>
      <point x="436.45" y="45.2"/>
      <point x="406.05" y="37.55"/>
      <point x="375.85" y="37.55" type="curve" smooth="yes"/>
      <point x="315.5" y="37.55"/>
      <point x="278.0" y="92.35"/>
      <point x="278.0" y="181.85000000000002" type="curve" smooth="yes"/>
      <point x="278.0" y="359.6"/>
      <point x="340.95" y="499.15000000000003"/>
      <point x="429.15" y="499.15000000000003" type="curve" smooth="yes"/>
      <point x="467.8" y="499.15000000000003"/>
      <point x="484.75" y="478.7"/>
      <point x="484.75" y="441.8" type="curve" smooth="yes"/>
      <point x="484.75" y="382.5"/>
      <point x="437.5" y="326.8"/>
      <point x="365.04999999999995" y="296.3" type="curve" smooth="yes"/>
      <point x="334.09999999999997" y="282.59999999999997"/>
      <point x="299.75" y="274.75"/>
      <point x="264.85" y="272.1" type="curve"/>
      <point x="259.0" y="232.4" type="line"/>
      <point x="295.2" y="234.7"/>
      <point x="336.65" y="242.1"/>
      <point x="372.8" y="256.90000000000003" type="curve" smooth="yes"/>
      <point x="468.70000000000005" y="292.95"/>
      <point x="532.25" y="364.8"/>
      <point x="532.25" y="450.3" type="curve" smooth="yes"/>
      <point x="532.25" y="508.34999999999997"/>
      <point x="500.9" y="544.0"/>
      <point x="444.05" y="544.0" type="curve" smooth="yes"/>
      <point x="389.95" y="544.0"/>
      <point x="342.75" y="510.75"/>
      <point x="309.45" y="447.40000000000003" type="curve"/>
      <point x="325.04999999999995" y="543.0" type="line"/>
      <point x="280.0" y="543.0" type="line"/>
      <point x="277.2" y="526.2" type="line"/>
      <point x="260.9" y="538.8000000000001"/>
      <point x="239.70000000000002" y="544.0"/>
      <point x="219.8" y="544.0" type="curve" smooth="yes"/>
      <point x="103.4" y="544.0"/>
      <point x="18.05" y="382.95"/>
      <point x="18.05" y="146.15" type="curve" smooth="yes"/>
      <point x="18.05" y="44.55"/>
      <point x="53.699999999999996" y="-10.0"/>
    </contour>
    <contour>
      <point x="133.85000000000002" y="33.60000000000001" type="curve" smooth="yes"/>
      <point x="94.0" y="33.60000000000001"/>
      <point x="69.55" y="74.75"/>
      <point x="69.55" y="148.6" type="curve" smooth="yes"/>
      <point x="69.55" y="336.29999999999995"/>
      <point x="135.29999999999998" y="499.0"/>
      <point x="223.5" y="499.0" type="curve" smooth="yes"/>
      <point x="240.55" y="499.0"/>
      <point x="257.6" y="495.15000000000003"/>
      <point x="270.6" y="483.2" type="curve"/>
      <point x="203.6" y="57.7" type="line"/>
      <point x="184.65" y="43.5"/>
      <point x="158.29999999999998" y="33.60000000000001"/>
    </contour>
  </outline>
</glyph>
<glyph name="eth" format="2">
  <advance width="337.7"/>
  <unicode hex="00F0"/>
  <outline>
    <contour>
      <point x="296.3" y="461.35" type="curve"/>
      <point x="305.85" y="503.4" type="line"/>
      <point x="284.75" y="524.0500000000001"/>
      <point x="251.25" y="534.4"/>
      <point x="216.9" y="534.4" type="curve" smooth="yes"/>
      <point x="80.6" y="534.4"/>
      <point x="16.700000000000003" y="315.4"/>
      <point x="16.700000000000003" y="137.25" type="curve" smooth="yes"/>
      <point x="16.700000000000003" y="35.1"/>
      <point x="57.1" y="-9.9"/>
      <point x="130.35" y="-9.9" type="curve" smooth="yes"/>
      <point x="228.70000000000002" y="-9.9"/>
      <point x="277.1" y="69.55"/>
      <point x="315.29999999999995" y="309.8" type="curve" smooth="yes"/>
      <point x="328.95" y="396.9"/>
      <point x="337.1" y="464.8"/>
      <point x="337.1" y="519.5" type="curve" smooth="yes"/>
      <point x="337.1" y="652.9000000000001"/>
      <point x="284.20000000000005" y="719.0999999999999"/>
      <point x="173.5" y="719.0999999999999" type="curve" smooth="yes"/>
      <point x="148.10000000000002" y="719.0999999999999"/>
      <point x="120.0" y="714.4"/>
      <point x="92.89999999999999" y="707.9" type="curve"/>
      <point x="96.39999999999999" y="668.0500000000001" type="line"/>
      <point x="120.1" y="673.0500000000001"/>
      <point x="140.20000000000002" y="676.75"/>
      <point x="165.95" y="676.75" type="curve" smooth="yes"/>
      <point x="248.9" y="676.75"/>
      <point x="287.70000000000005" y="632.85"/>
      <point x="287.70000000000005" y="525.9499999999999" type="curve" smooth="yes"/>
      <point x="287.70000000000005" y="474.15"/>
      <point x="281.3" y="405.05"/>
      <point x="266.95" y="317.95" type="curve" smooth="yes"/>
      <point x="230.89999999999998" y="97.85"/>
      <point x="195.15" y="31.05"/>
      <point x="134.15" y="31.05" type="curve" smooth="yes"/>
      <point x="88.69999999999999" y="31.05"/>
      <point x="64.75" y="61.95"/>
      <point x="64.75" y="129.4" type="curve" smooth="yes"/>
      <point x="64.75" y="274.95"/>
      <point x="117.0" y="492.9"/>
      <point x="222.14999999999998" y="492.9" type="curve" smooth="yes"/>
      <point x="248.75" y="492.9"/>
      <point x="276.05" y="485.4"/>
    </contour>
    <contour>
      <point x="147.8" y="564.75" type="line"/>
      <point x="276.90000000000003" y="647.45" type="line"/>
      <point x="276.65" y="649.25" type="line"/>
      <point x="393.4" y="723.8" type="line"/>
      <point x="341.3" y="723.8" type="line"/>
      <point x="257.15000000000003" y="670.5500000000001" type="line"/>
      <point x="257.85" y="669.05" type="line"/>
      <point x="95.44999999999999" y="564.75" type="line"/>
    </contour>
  </outline>
</glyph>
<glyph name="divide" format="2">
  <advance width="370.68"/>
  <unicode hex="00F7"/>
  <outline>
    <contour>
      <point x="128.54000000000002" y="97.44000000000001" type="curve" smooth="yes"/>
      <point x="127.54" y="82.47999999999999"/>
      <point x="133.42000000000002" y="76.54"/>
      <point x="152.35999999999999" y="76.54" type="curve" smooth="yes"/>
      <point x="177.68000000000004" y="76.54"/>
      <point x="185.14" y="84.94000000000001"/>
      <point x="187.73999999999998" y="118.44" type="curve" smooth="yes"/>
      <point x="188.73999999999998" y="134.24"/>
      <point x="181.38" y="139.34"/>
      <point x="163.68" y="139.34" type="curve" smooth="yes"/>
      <point x="138.74" y="139.34"/>
      <point x="131.14000000000001" y="128.04000000000002"/>
    </contour>
    <contour>
      <point x="189.3" y="475.56000000000006" type="curve" smooth="yes"/>
      <point x="188.3" y="460.7"/>
      <point x="194.08" y="454.96"/>
      <point x="212.82" y="454.96" type="curve" smooth="yes"/>
      <point x="238.14000000000001" y="454.96"/>
      <point x="245.79999999999998" y="463.46"/>
      <point x="248.4" y="496.56" type="curve" smooth="yes"/>
      <point x="249.4" y="512.46"/>
      <point x="242.14" y="517.56"/>
      <point x="224.34" y="517.56" type="curve" smooth="yes"/>
      <point x="198.7" y="517.56"/>
      <point x="191.9" y="505.46000000000004"/>
    </contour>
    <contour>
      <point x="42.13999999999999" y="272.7" type="line"/>
      <point x="328.48" y="272.7" type="line"/>
      <point x="336.23999999999995" y="321.7" type="line"/>
      <point x="49.8" y="321.7" type="line"/>
    </contour>
  </outline>
</glyph>
<glyph name="oslash" format="2">
  <advance width="329.95"/>
  <unicode hex="00F8"/>
  <anchor x="206.1" y="534.0" name="top"/>
  <outline>
    <contour>
      <point x="308.0" y="543.65" type="line"/>
      <point x="271.45" y="482.25" type="line"/>
      <point x="268.9" y="482.75" type="line"/>
      <point x="47.15" y="90.5" type="line"/>
      <point x="45.099999999999994" y="91.4" type="line"/>
      <point x="-15.2" y="-10.0" type="line"/>
      <point x="23.700000000000003" y="-10.0" type="line"/>
      <point x="60.6" y="50.75" type="line"/>
      <point x="63.25" y="50.25" type="line"/>
      <point x="284.75" y="442.45000000000005" type="line"/>
      <point x="286.7" y="441.55" type="line"/>
      <point x="346.9" y="543.65" type="line"/>
    </contour>
    <contour>
      <point x="130.89999999999998" y="-10.0" type="curve" smooth="yes"/>
      <point x="261.6" y="-10.0"/>
      <point x="311.4" y="256.95"/>
      <point x="311.4" y="407.95000000000005" type="curve" smooth="yes"/>
      <point x="311.4" y="509.65"/>
      <point x="273.8" y="543.65"/>
      <point x="199.4" y="543.65" type="curve" smooth="yes"/>
      <point x="68.55" y="543.65"/>
      <point x="18.5" y="274.4"/>
      <point x="18.5" y="125.5" type="curve" smooth="yes"/>
      <point x="18.5" y="23.7"/>
      <point x="55.55" y="-10.0"/>
    </contour>
    <contour>
      <point x="131.5" y="34.65" type="curve" smooth="yes"/>
      <point x="88.25" y="34.55"/>
      <point x="65.15" y="55.6"/>
      <point x="65.05000000000001" y="125.1" type="curve" smooth="yes"/>
      <point x="64.85000000000001" y="225.10000000000002"/>
      <point x="107.5" y="498.8"/>
      <point x="198.85" y="499.0" type="curve" smooth="yes"/>
      <point x="241.3" y="499.1"/>
      <point x="264.85" y="477.0"/>
      <point x="264.95000000000005" y="408.20000000000005" type="curve" smooth="yes"/>
      <point x="265.15000000000003" y="305.45000000000005"/>
      <point x="222.79999999999998" y="34.849999999999994"/>
    </contour>
  </outline>
</glyph>
<glyph name="thorn" format="2">
  <advance width="336.95"/>
  <unicode hex="00FE"/>
  <outline>
    <contour>
      <point x="-27.640000000000004" y="-210.0" type="line"/>
      <point x="21.490000000000002" y="-210.0" type="line"/>
      <point x="54.730000000000004" y="-1.38" type="line"/>
      <point x="71.73" y="-6.44"/>
      <point x="90.30999999999999" y="-9.649999999999999"/>
      <point x="113.47" y="-9.649999999999999" type="curve" smooth="yes"/>
      <point x="241.2" y="-9.649999999999999"/>
      <point x="318.08000000000004" y="183.2"/>
      <point x="318.08000000000004" y="384.89" type="curve" smooth="yes"/>
      <point x="318.08000000000004" y="495.08000000000004"/>
      <point x="289.05999999999995" y="544.0"/>
      <point x="224.23999999999998" y="544.0" type="curve" smooth="yes"/>
      <point x="189.09" y="544.0"/>
      <point x="162.65999999999997" y="529.9899999999999"/>
      <point x="136.04999999999998" y="513.25" type="curve"/>
      <point x="172.30999999999997" y="740.0" type="line"/>
      <point x="122.36" y="740.0" type="line"/>
    </contour>
    <contour>
      <point x="108.41000000000001" y="35.480000000000004" type="curve" smooth="yes"/>
      <point x="90.97999999999999" y="35.480000000000004"/>
      <point x="74.99999999999999" y="38.38000000000001"/>
      <point x="62.03000000000001" y="43.93000000000001" type="curve"/>
      <point x="129.37" y="469.2" type="line"/>
      <point x="150.85" y="483.96999999999997"/>
      <point x="180.67" y="495.21999999999997"/>
      <point x="202.99000000000004" y="495.21999999999997" type="curve" smooth="yes"/>
      <point x="245.7" y="495.21999999999997"/>
      <point x="267.13000000000005" y="458.0"/>
      <point x="267.13000000000005" y="377.60999999999996" type="curve" smooth="yes"/>
      <point x="267.13000000000005" y="207.6"/>
      <point x="203.9" y="35.480000000000004"/>
    </contour>
  </outline>
</glyph>
<glyph name="Dcroat" format="2">
  <advance width="393.71999999999997"/>
  <unicode hex="0110"/>
  <outline>
    <contour>
      <point x="18.88" y="335.78999999999996" type="line"/>
      <point x="207.6" y="335.78999999999996" type="line"/>
      <point x="215.6" y="382.54999999999995" type="line"/>
      <point x="27.0" y="382.54999999999995" type="line"/>
    </contour>
    <component base="D" xOffset="7.43"/>
  </outline>
</glyph>
<glyph name="dcroat" format="2">
  <advance width="341.67"/>
  <unicode hex="0111"/>
  <outline>
    <contour>
      <point x="183.51999999999998" y="618.47" type="line"/>
      <point x="398.3" y="618.47" type="line"/>
      <point x="403.9" y="650.5999999999999" type="line"/>
      <point x="189.27000000000004" y="650.5999999999999" type="line"/>
    </contour>
    <component base="d"/>
  </outline>
</glyph>
<glyph name="Hbar" format="2">
  <advance width="401.66"/>
  <unicode hex="0126"/>
  <outline>
    <contour>
      <point x="42.660000000000004" y="501.54" type="line"/>
      <point x="430.97999999999996" y="501.54" type="line"/>
      <point x="437.52000000000004" y="543.8199999999999" type="line"/>
      <point x="49.199999999999996" y="543.8199999999999" type="line"/>
    </contour>
    <component base="H" xOffset="1.72"/>
  </outline>
</glyph>
<glyph name="hbar" format="2">
  <advance width="342.8999999999999"/>
  <unicode hex="0127"/>
  <outline>
    <contour>
      <point x="55.440000000000005" y="618.47" type="line"/>
      <point x="244.51" y="618.47" type="line"/>
      <point x="250.01" y="650.5999999999999" type="line"/>
      <point x="60.94" y="650.5999999999999" type="line"/>
    </contour>
    <component base="h" xOffset="1.3"/>
  </outline>
</glyph>
<glyph name="Idotaccent" format="2">
  <advance width="147.23999999999998"/>
  <unicode hex="0130"/>
  <outline>
    <contour>
      <point x="167.42" y="863.1999999999999" type="curve" smooth="yes"/>
      <point x="139.36" y="863.1999999999999"/>
      <point x="132.14" y="847.8000000000001"/>
      <point x="129.9" y="814.3000000000001" type="curve" smooth="yes"/>
      <point x="129.17999999999998" y="797.2800000000001"/>
      <point x="138.84000000000003" y="791.8199999999999"/>
      <point x="154.51999999999998" y="791.8199999999999" type="curve" smooth="yes"/>
      <point x="182.6" y="791.8199999999999"/>
      <point x="189.86" y="807.3"/>
      <point x="192.17999999999998" y="841.0" type="curve" smooth="yes"/>
      <point x="192.9" y="857.92"/>
      <point x="183.29999999999998" y="863.1999999999999"/>
    </contour>
    <component base="I"/>
  </outline>
</glyph>
<glyph name="dotlessi" format="2">
  <advance width="146.94"/>
  <unicode hex="0131"/>
  <anchor x="29.168879999999998" y="0.0" name="bottom"/>
  <anchor x="54.60000000000001" y="0.0" name="ogonek"/>
  <anchor x="113.85112" y="534.0" name="top"/>
  <outline>
    <contour>
      <point x="54.60000000000001" y="0.0" type="line"/>
      <point x="139.18" y="534.0" type="line"/>
      <point x="89.16000000000001" y="534.0" type="line"/>
      <point x="5.26" y="0.020000000000000004" type="line"/>
    </contour>
  </outline>
</glyph>
<glyph name="Ldot" format="2">
  <advance width="283.88"/>
  <unicode hex="013F"/>
  <outline>
    <contour>
      <point x="203.27964" y="361.23316" type="curve" smooth="yes"/>
      <point x="201.75964" y="342.97436"/>
      <point x="206.29916" y="337.03502"/>
      <point x="223.6779" y="337.03502" type="curve" smooth="yes"/>
      <point x="245.97598" y="337.03502"/>
      <point x="251.03544" y="350.05262"/>
      <point x="252.71544" y="373.01111999999995" type="curve" smooth="yes"/>
      <point x="254.23544" y="390.34998"/>
      <point x="250.41592" y="397.00932"/>
      <point x="233.17706" y="397.00932" type="curve" smooth="yes"/>
      <point x="211.01904" y="397.00932"/>
      <point x="204.95963999999998" y="384.11166"/>
    </contour>
    <component base="L"/>
  </outline>
</glyph>
<glyph name="ldot" format="2">
  <advance width="212.56000000000003"/>
  <unicode hex="0140"/>
  <outline>
    <contour>
      <point x="172.68580000000003" y="356.2241" type="curve" smooth="yes"/>
      <point x="171.16580000000002" y="338.44324"/>
      <point x="175.27888" y="332.77024"/>
      <point x="191.74362000000002" y="332.77024" type="curve" smooth="yes"/>
      <point x="212.95126" y="332.77024"/>
      <point x="217.35670000000002" y="345.37022"/>
      <point x="219.0367" y="367.64248" type="curve" smooth="yes"/>
      <point x="220.5567" y="384.49374"/>
      <point x="217.16361999999998" y="390.88674000000003"/>
      <point x="200.8277" y="390.88674000000003" type="curve" smooth="yes"/>
      <point x="179.74868" y="390.88674000000003"/>
      <point x="174.3658" y="378.44221999999996"/>
    </contour>
    <component base="l"/>
  </outline>
</glyph>
<glyph name="Lslash" format="2">
  <advance width="292.58"/>
  <unicode hex="0141"/>
  <outline>
    <contour>
      <point x="11.3" y="0.0" type="line"/>
      <point x="240.38" y="0.0" type="line"/>
      <point x="248.08" y="48.14" type="line"/>
      <point x="69.14" y="48.14" type="line"/>
      <point x="106.58" y="282.98" type="line"/>
      <point x="243.16000000000003" y="386.96" type="line"/>
      <point x="252.32000000000002" y="442.59999999999997" type="line"/>
      <point x="115.38" y="338.44" type="line"/>
      <point x="172.74" y="700.0" type="line"/>
      <point x="122.56" y="700.0" type="line"/>
      <point x="60.08" y="305.53999999999996" type="line"/>
      <point x="11.34" y="268.04" type="line"/>
      <point x="2.04" y="211.78" type="line"/>
      <point x="50.559999999999995" y="249.26" type="line"/>
    </contour>
  </outline>
</glyph>
<glyph name="lslash" format="2">
  <advance width="168.0"/>
  <unicode hex="0142"/>
  <outline>
    <contour>
      <point x="-1.2400000000000002" y="195.57999999999998" type="line"/>
      <point x="180.0" y="363.32" type="line"/>
      <point x="188.12" y="416.44" type="line"/>
      <point x="6.68" y="248.7" type="line"/>
    </contour>
    <component base="l" xOffset="3.6"/>
  </outline>
</glyph>
<glyph name="Eng" format="2">
  <advance width="395.2"/>
  <unicode hex="014A"/>
  <outline>
    <contour>
      <point x="3.35" y="0.0" type="line"/>
      <point x="51.0" y="0.0" type="line"/>
      <point x="142.4" y="582.0" type="line"/>
      <point x="254.85" y="0.19999999999999968" type="line"/>
      <point x="244.35" y="-76.1"/>
      <point x="206.8" y="-100.85"/>
      <point x="155.05" y="-100.85" type="curve" smooth="yes"/>
      <point x="138.9" y="-101.05"/>
      <point x="121.95" y="-98.35"/>
      <point x="105.1" y="-93.60000000000001" type="curve"/>
      <point x="95.15" y="-146.3" type="line"/>
      <point x="115.05" y="-151.45000000000002"/>
      <point x="134.55" y="-153.7"/>
      <point x="152.7" y="-153.7" type="curve" smooth="yes"/>
      <point x="248.25" y="-152.8"/>
      <point x="289.09999999999997" y="-96.35"/>
      <point x="304.40000000000003" y="-0.20000000000000023" type="curve" smooth="yes"/>
      <point x="415.59999999999997" y="700.0" type="line"/>
      <point x="368.1" y="700.0" type="line"/>
      <point x="276.65" y="116.9" type="line"/>
      <point x="166.6" y="700.8" type="line"/>
      <point x="113.85000000000001" y="700.8" type="line"/>
    </contour>
  </outline>
</glyph>
<glyph name="eng" format="2">
  <advance width="338.93999999999994"/>
  <unicode hex="014B"/>
  <outline>
    <contour>
      <point x="237.44000000000003" y="-52.36" type="curve" smooth="yes"/>
      <point x="298.91999999999996" y="342.8"/>
      <point x="319.04" y="460.79999999999995"/>
      <point x="319.04" y="471.62" type="curve" smooth="yes"/>
      <point x="319.04" y="515.0"/>
      <point x="292.32" y="544.0"/>
      <point x="241.72" y="544.0" type="curve" smooth="yes"/>
      <point x="205.1" y="544.0"/>
      <point x="166.38000000000002" y="529.6600000000001"/>
      <point x="131.02" y="507.67999999999995" type="curve"/>
      <point x="135.48" y="534.0" type="line"/>
      <point x="89.14" y="534.0" type="line"/>
      <point x="4.62" y="0.0" type="line"/>
      <point x="53.82000000000001" y="0.0" type="line"/>
      <point x="128.36" y="466.59999999999997" type="line"/>
      <point x="155.5" y="483.76"/>
      <point x="188.76000000000002" y="496.53999999999996"/>
      <point x="214.88000000000002" y="496.53999999999996" type="curve" smooth="yes"/>
      <point x="250.98" y="496.53999999999996"/>
      <point x="266.78" y="480.22"/>
      <point x="266.62" y="450.21999999999997" type="curve" smooth="yes"/>
      <point x="266.38" y="442.14"/>
      <point x="260.18" y="402.86"/>
      <point x="189.02" y="-49.300000000000004" type="curve" smooth="yes"/>
      <point x="177.76000000000002" y="-120.24"/>
      <point x="157.85999999999999" y="-167.56"/>
      <point x="108.56000000000002" y="-167.56" type="curve" smooth="yes"/>
      <point x="99.88" y="-167.56"/>
      <point x="92.26000000000002" y="-166.68"/>
      <point x="82.34" y="-164.0" type="curve"/>
      <point x="70.28" y="-215.92" type="line"/>
      <point x="82.26" y="-218.92"/>
      <point x="97.56" y="-220.48"/>
      <point x="113.24000000000001" y="-220.48" type="curve" smooth="yes"/>
      <point x="179.29999999999998" y="-220.48"/>
      <point x="220.32000000000002" y="-169.1"/>
    </contour>
  </outline>
</glyph>
<glyph name="OE" format="2">
  <advance width="558.0500000000001"/>
  <unicode hex="0152"/>
  <outline>
    <contour>
      <point x="498.72" y="0.0" type="line"/>
      <point x="506.42" y="48.24999999999999" type="line"/>
      <point x="303.39" y="48.24999999999999" type="line"/>
      <point x="349.12" y="338.4" type="line"/>
      <point x="524.37" y="338.4" type="line"/>
      <point x="532.1700000000002" y="385.15" type="line"/>
      <point x="356.82" y="385.15" type="line"/>
      <point x="398.5" y="651.0" type="line"/>
      <point x="590.4999999999999" y="651.0" type="line"/>
      <point x="599.1899999999999" y="700.0" type="line"/>
      <point x="402.3" y="700.0" type="line"/>
      <point x="372.5900000000001" y="703.79"/>
      <point x="335.74" y="710.0"/>
      <point x="300.33000000000004" y="710.0" type="curve" smooth="yes"/>
      <point x="126.55999999999999" y="710.0"/>
      <point x="30.229999999999997" y="487.38"/>
      <point x="30.229999999999997" y="183.23000000000005" type="curve" smooth="yes"/>
      <point x="30.229999999999997" y="43.96000000000001"/>
      <point x="80.11999999999999" y="-10.0"/>
      <point x="195.66999999999996" y="-10.0" type="curve" smooth="yes"/>
      <point x="219.46" y="-10.0"/>
      <point x="252.36999999999998" y="-6.409999999999998"/>
      <point x="290.87" y="0.0" type="curve"/>
    </contour>
    <contour>
      <point x="252.0" y="42.86000000000001" type="line"/>
      <point x="230.68" y="38.39"/>
      <point x="213.04" y="37.110000000000014"/>
      <point x="195.45" y="37.110000000000014" type="curve" smooth="yes"/>
      <point x="109.0" y="37.110000000000014"/>
      <point x="80.49" y="87.69999999999999"/>
      <point x="80.49" y="190.74" type="curve" smooth="yes"/>
      <point x="80.49" y="457.29999999999995"/>
      <point x="167.23" y="662.33"/>
      <point x="292.97" y="662.33" type="curve" smooth="yes"/>
      <point x="311.09999999999997" y="662.33"/>
      <point x="338.13" y="658.1899999999999"/>
      <point x="349.09" y="656.3100000000001" type="curve"/>
    </contour>
  </outline>
</glyph>
<glyph name="oe" format="2">
  <advance width="542.9000000000001"/>
  <unicode hex="0153"/>
  <outline>
    <contour>
      <point x="130.35000000000002" y="-10.0" type="curve" smooth="yes"/>
      <point x="188.39999999999998" y="-10.0"/>
      <point x="231.75" y="48.55"/>
      <point x="256.40000000000003" y="124.75" type="curve"/>
      <point x="268.6" y="37.35"/>
      <point x="310.7" y="-10.0"/>
      <point x="380.5" y="-10.0" type="curve" smooth="yes"/>
      <point x="420.1" y="-10.0"/>
      <point x="463.2" y="-0.6000000000000002"/>
      <point x="494.2" y="16.4" type="curve"/>
      <point x="483.0" y="61.4" type="line"/>
      <point x="449.05" y="46.1"/>
      <point x="416.45000000000005" y="38.25"/>
      <point x="387.75" y="38.25" type="curve" smooth="yes"/>
      <point x="328.34999999999997" y="38.25"/>
      <point x="293.8" y="87.55"/>
      <point x="293.8" y="181.14999999999998" type="curve" smooth="yes"/>
      <point x="293.8" y="366.65000000000003"/>
      <point x="359.5" y="499.15000000000003"/>
      <point x="444.55" y="499.15000000000003" type="curve" smooth="yes"/>
      <point x="482.8" y="499.15000000000003"/>
      <point x="500.45" y="478.85"/>
      <point x="500.45" y="441.20000000000005" type="curve" smooth="yes"/>
      <point x="500.45" y="381.75"/>
      <point x="453.05" y="327.84999999999997"/>
      <point x="380.45" y="297.09999999999997" type="curve" smooth="yes"/>
      <point x="351.84999999999997" y="285.0"/>
      <point x="319.5" y="277.2"/>
      <point x="287.59999999999997" y="274.55" type="curve"/>
      <point x="280.0" y="232.70000000000002" type="line"/>
      <point x="316.35" y="235.4"/>
      <point x="355.0" y="243.25"/>
      <point x="388.09999999999997" y="256.2" type="curve" smooth="yes"/>
      <point x="484.0" y="292.65"/>
      <point x="547.65" y="364.95"/>
      <point x="547.65" y="450.3" type="curve" smooth="yes"/>
      <point x="547.65" y="508.34999999999997"/>
      <point x="513.5" y="544.0"/>
      <point x="451.25" y="544.0" type="curve" smooth="yes"/>
      <point x="387.5" y="544.0"/>
      <point x="335.25" y="500.4"/>
      <point x="301.95" y="430.20000000000005" type="curve"/>
      <point x="296.7" y="508.0"/>
      <point x="267.15000000000003" y="543.65"/>
      <point x="196.55" y="543.65" type="curve" smooth="yes"/>
      <point x="68.55" y="543.65"/>
      <point x="16.95" y="274.3"/>
      <point x="16.95" y="126.0" type="curve" smooth="yes"/>
      <point x="16.95" y="24.3"/>
      <point x="53.5" y="-10.0"/>
    </contour>
    <contour>
      <point x="131.65" y="35.85000000000001" type="curve" smooth="yes"/>
      <point x="88.9" y="35.85000000000001"/>
      <point x="65.7" y="54.900000000000006"/>
      <point x="65.6" y="124.7" type="curve" smooth="yes"/>
      <point x="65.39999999999999" y="225.5"/>
      <point x="110.55" y="497.7"/>
      <point x="195.6" y="497.8" type="curve" smooth="yes"/>
      <point x="237.55" y="497.8"/>
      <point x="261.29999999999995" y="478.0"/>
      <point x="261.4" y="408.6" type="curve" smooth="yes"/>
      <point x="261.59999999999997" y="306.65000000000003"/>
      <point x="216.65" y="35.95"/>
    </contour>
  </outline>
</glyph>
<glyph name="uni0162" format="2">
  <advance width="303.36"/>
  <unicode hex="0162"/>
  <anchor x="107.76801999999999" y="0.0" name="_bottom"/>
  <anchor x="63.019999999999996" y="-220.0" name="bottom"/>
  <outline>
    <contour>
      <point x="16.96" y="-207.38000000000002" type="line"/>
      <point x="31.640000000000004" y="-216.79999999999998"/>
      <point x="47.300000000000004" y="-220.0"/>
      <point x="63.74" y="-220.0" type="curve" smooth="yes"/>
      <point x="117.96" y="-220.0"/>
      <point x="146.0" y="-162.64"/>
      <point x="146.0" y="-100.34" type="curve" smooth="yes"/>
      <point x="146.0" y="-64.32"/>
      <point x="138.66" y="-27.94"/>
      <point x="127.24000000000001" y="2.04" type="curve"/>
      <point x="91.42" y="1.4600000000000002" type="line"/>
      <point x="102.66000000000001" y="-32.34"/>
      <point x="109.20000000000002" y="-63.459999999999994"/>
      <point x="109.20000000000002" y="-94.68" type="curve" smooth="yes"/>
      <point x="109.20000000000002" y="-149.32"/>
      <point x="89.04" y="-180.76"/>
      <point x="59.699999999999996" y="-180.76" type="curve" smooth="yes"/>
      <point x="47.980000000000004" y="-180.76"/>
      <point x="37.900000000000006" y="-177.28"/>
      <point x="27.64" y="-171.12" type="curve"/>
    </contour>
    <component base="T"/>
  </outline>
</glyph>
<glyph name="Tbar" format="2">
  <advance width="306.64"/>
  <unicode hex="0166"/>
  <outline>
    <contour>
      <point x="359.98" y="653.24" type="line"/>
      <point x="367.66" y="700.0" type="line"/>
      <point x="73.3" y="700.0" type="line"/>
      <point x="65.6" y="653.24" type="line"/>
      <point x="187.58" y="653.24" type="line"/>
      <point x="145.52" y="392.59999999999997" type="line"/>
      <point x="55.56" y="392.59999999999997" type="line"/>
      <point x="47.34" y="345.67999999999995" type="line"/>
      <point x="138.58" y="345.67999999999995" type="line"/>
      <point x="83.80000000000001" y="0.0" type="line"/>
      <point x="133.8" y="0.0" type="line"/>
      <point x="188.58" y="345.67999999999995" type="line"/>
      <point x="281.70000000000005" y="345.67999999999995" type="line"/>
      <point x="289.91999999999996" y="392.59999999999997" type="line"/>
      <point x="196.24" y="392.59999999999997" type="line"/>
      <point x="237.56" y="653.24" type="line"/>
    </contour>
  </outline>
</glyph>
<glyph name="tbar" format="2">
  <advance width="219.18"/>
  <unicode hex="0167"/>
  <outline>
    <contour>
      <point x="14.02" y="299.29" type="line"/>
      <point x="217.45999999999998" y="299.29" type="line"/>
      <point x="224.40999999999997" y="339.34" type="line"/>
      <point x="20.820000000000004" y="339.34" type="line"/>
    </contour>
    <contour>
      <point x="181.69" y="46.85000000000001" type="line"/>
      <point x="165.49" y="42.3"/>
      <point x="149.82000000000002" y="39.150000000000006"/>
      <point x="135.91000000000003" y="39.150000000000006" type="curve" smooth="yes"/>
      <point x="97.58" y="39.150000000000006"/>
      <point x="82.21000000000002" y="58.56000000000001"/>
      <point x="82.21000000000002" y="96.26" type="curve" smooth="yes"/>
      <point x="82.21000000000002" y="107.49"/>
      <point x="83.9" y="119.72"/>
      <point x="85.81" y="134.27" type="curve" smooth="yes"/>
      <point x="142.35" y="488.27" type="line"/>
      <point x="254.46" y="488.27" type="line"/>
      <point x="262.21000000000004" y="534.0" type="line"/>
      <point x="150.0" y="534.0" type="line"/>
      <point x="170.10999999999999" y="662.9499999999999" type="line"/>
      <point x="128.79" y="662.9499999999999" type="line"/>
      <point x="100.0" y="534.0" type="line"/>
      <point x="42.25" y="527.7" type="line"/>
      <point x="35.44" y="488.52" type="line"/>
      <point x="92.25" y="488.52" type="line"/>
      <point x="35.25999999999999" y="130.21999999999997" type="line" smooth="yes"/>
      <point x="31.860000000000003" y="110.36"/>
      <point x="30.099999999999998" y="88.60000000000001"/>
      <point x="30.099999999999998" y="73.02999999999999" type="curve" smooth="yes"/>
      <point x="30.099999999999998" y="17.589999999999996"/>
      <point x="57.08" y="-10.0"/>
      <point x="112.36999999999999" y="-10.0" type="curve" smooth="yes"/>
      <point x="134.04" y="-10.0"/>
      <point x="157.72" y="-5.96"/>
      <point x="182.0" y="3.54" type="curve"/>
    </contour>
  </outline>
</glyph>
